<?xml version="1.0" encoding="utf-8"?>
<!-- Generator: Adobe Illustrator 17.0.0, SVG Export Plug-In . SVG Version: 6.00 Build 0)  -->
<!DOCTYPE svg PUBLIC "-//W3C//DTD SVG 1.1//EN" "http://www.w3.org/Graphics/SVG/1.1/DTD/svg11.dtd">
<svg version="1.1" id="Layer_1" xmlns="http://www.w3.org/2000/svg" xmlns:xlink="http://www.w3.org/1999/xlink" x="0px" y="0px"
	 width="216px" height="216px" viewBox="0 0 216 216" enable-background="new 0 0 216 216" xml:space="preserve">
<g>
	<g>
		<path d="M124.008,119.104c-2.925-3.572-6.327-7.619-10.269-10.153c-1.281-0.823-2.707-1.368-4.18-1.647
			c-0.24-3.191-0.481-6.382-0.721-9.573h16.183l-8.667-8.667H60.582l8.667,8.667h9.372v53.949l7.519,7.519h0.304V97.731h15.711
			c0.166,2.204,0.332,4.408,0.498,6.612c0.035,0.469,0.214,1.893,0.293,3.514c-0.837,0.313-1.639,0.719-2.385,1.222
			c-4.552,3.07,2.421,8.192,4.494,10.347c1.117,1.162,2.107,2.688,3.902,2.22c1.875-0.489,1.364-4.234,1.271-5.467
			c-0.016-0.222-0.034-0.444-0.05-0.666c2.227-0.912,4.806-0.8,7.114-0.332c0.792,0.161,1.544,0.461,2.281,0.783
			c0.769,1.971,1.079,4.122,1.173,6.205c0.401,8.906-5.6,16.048-12.24,21.857c-3.817,3.34-3.957,9.671-0.234,13.08
			c0.263,0.24,0.436,0.364,0.484,0.327c8.578-6.624,17.754-14.084,19.173-25.419C128.508,127.367,126.961,122.711,124.008,119.104z"
			/>
	</g>
</g>
</svg>
