<?xml version="1.0" encoding="utf-8"?>
<!-- Generator: Adobe Illustrator 17.0.0, SVG Export Plug-In . SVG Version: 6.00 Build 0)  -->
<!DOCTYPE svg PUBLIC "-//W3C//DTD SVG 1.1//EN" "http://www.w3.org/Graphics/SVG/1.1/DTD/svg11.dtd">
<svg version="1.1" id="Layer_1" xmlns="http://www.w3.org/2000/svg" xmlns:xlink="http://www.w3.org/1999/xlink" x="0px" y="0px"
	 width="216px" height="216px" viewBox="0 0 216 216" enable-background="new 0 0 216 216" xml:space="preserve">
<g>
	<path d="M113.459,121.507c-0.037-0.497-1.353-1.452-1.674-1.765c-0.222-0.216-1.789-1.347-1.81-1.626
		c0.406,5.438,0.082,12.826-6.689,13.849c-0.481,0.073-0.964,0.024-1.442-0.031c-0.087-0.014-0.172-0.036-0.258-0.055
		c-0.226-0.795-0.268-1.659-0.284-2.46c-0.055-2.77,0.65-5.476,0.316-8.253c-0.281-2.336-1.805-3.868-3.409-5.429
		c-1.757-1.709-3.376-3.128-5.869-3.533c-4.36-0.709-7.318,2.576-8.186,6.378c-1.188-1.289-2.509-2.589-4.009-3.399
		c-6.2-3.348-7.325,7.326-7.495,11.052c-0.02,0.427,1.407,1.505,1.674,1.765c0.176,0.172,1.819,1.424,1.81,1.626
		c0.101-2.206,0.431-4.346,0.997-6.481c0.46-1.736,0.997-3.724,2.595-4.732c0.548-0.346,1.247-0.379,1.871-0.387
		c0.336,0.016,0.666,0.067,0.991,0.152c0.123,0.026,0.239,0.059,0.349,0.096c0.558,1.23,0.819,2.643,1.044,3.956
		c0.031,0.222,0.066,0.443,0.113,0.66c0.123,0.572,1.284,1.385,1.674,1.765c0.11,0.107,0.426,0.343,0.764,0.608
		c0.349,0.339,0.697,0.678,1.046,1.018c-0.036-0.21-0.074-0.42-0.112-0.63c-0.774-5.207,2.623-10.599,8.359-10.056
		c0.512,0.048,1.007,0.198,1.496,0.347c0.138,0.042,0.267,0.09,0.388,0.14c0.34,0.878,0.464,1.858,0.527,2.766
		c0.192,2.742-0.55,5.463-0.375,8.211c0.147,2.317,1.539,3.762,3.115,5.296c1.736,1.689,3.21,3.177,5.795,3.002
		C113.588,134.896,113.832,126.501,113.459,121.507z M83.536,118.555C84.055,118.873,84.136,119.153,83.536,118.555L83.536,118.555z
		 M98.28,116.375C99.083,116.871,99.184,117.342,98.28,116.375L98.28,116.375z"/>
</g>
</svg>
