<?xml version="1.0" encoding="utf-8"?>
<!-- Generator: Adobe Illustrator 17.0.0, SVG Export Plug-In . SVG Version: 6.00 Build 0)  -->
<!DOCTYPE svg PUBLIC "-//W3C//DTD SVG 1.1//EN" "http://www.w3.org/Graphics/SVG/1.1/DTD/svg11.dtd">
<svg version="1.1" id="Layer_1" xmlns="http://www.w3.org/2000/svg" xmlns:xlink="http://www.w3.org/1999/xlink" x="0px" y="0px"
	 width="216px" height="216px" viewBox="0 0 216 216" enable-background="new 0 0 216 216" xml:space="preserve">
<g>
	<path d="M164.165,101.105c-0.033-0.119-0.042-0.227-0.035-0.326h13.161l-8.581-8.146h-60.24l8.581,8.146h1.478
		c-0.115,17.264-0.3,31.479-0.383,50.109l7.81,8.006c0.098-19.579,0.304-34.408,0.409-53.696
		c4.434,7.457,9.735,14.379,15.488,20.257c4.893,4.998,10.997,5.595,16.273,1.055c6.035-5.194,6.321-17.385,6.007-25.409
		C164.143,101.102,164.154,101.104,164.165,101.105z M144.269,119.484c-1.995,0.443-4.014-0.184-5.853-0.973
		c-1.17-0.502-2.208-1.37-3.212-2.175c-0.257-0.206-0.478-0.377-0.683-0.533c-3.029-4.681-5.508-9.761-7.589-15.023h29.337
		C155.623,109.24,152.811,117.586,144.269,119.484z"/>
</g>
</svg>
