<?xml version="1.0" encoding="utf-8"?>
<!-- Generator: Adobe Illustrator 17.0.0, SVG Export Plug-In . SVG Version: 6.00 Build 0)  -->
<!DOCTYPE svg PUBLIC "-//W3C//DTD SVG 1.1//EN" "http://www.w3.org/Graphics/SVG/1.1/DTD/svg11.dtd">
<svg version="1.1" id="Layer_1" xmlns="http://www.w3.org/2000/svg" xmlns:xlink="http://www.w3.org/1999/xlink" x="0px" y="0px"
	 width="216px" height="216px" viewBox="0 0 216 216" enable-background="new 0 0 216 216" xml:space="preserve">
<g>
	<g>
		<path d="M180.087,89.811l-8.856-8.857h-0.117h-55.05h-7.008l8.856,8.857h10.287c0.257,6.211,0.673,12.414,1.293,18.607
			c0.812,8.094,0.738,17.846,4.822,25.093c1.787,3.172,4.915,5.928,7.363,8.557c2.347,2.521,4.473,4.901,7.591,6.454
			c7.561,3.766,18.767,3.41,23.074-3.677c2.822-4.644-9.332-10.217-9.373-10.176c-5.273,5.187-14.159,7.123-21.273,4.507
			c-1.983-5.94-1.985-12.962-2.64-18.792c-1.14-10.15-1.673-20.362-1.77-30.574h40.846c0.204,0.008,0.408,0.017,0.612,0.025
			c-0.023-0.001-0.055-0.018-0.082-0.025H180.087z"/>
	</g>
</g>
</svg>
