<?xml version="1.0" encoding="utf-8"?>
<!-- Generator: Adobe Illustrator 17.0.0, SVG Export Plug-In . SVG Version: 6.00 Build 0)  -->
<!DOCTYPE svg PUBLIC "-//W3C//DTD SVG 1.1//EN" "http://www.w3.org/Graphics/SVG/1.1/DTD/svg11.dtd">
<svg version="1.1" id="Layer_1" xmlns="http://www.w3.org/2000/svg" xmlns:xlink="http://www.w3.org/1999/xlink" x="0px" y="0px"
	 width="216px" height="216px" viewBox="0 0 216 216" enable-background="new 0 0 216 216" xml:space="preserve">
<g>
	<path d="M106.563,122.311c-4.088-4.098-8.111-8.491-13.336-11.202c-1.049-0.544-2.206-1.009-3.414-1.374
		c-0.328-4.322-0.655-8.645-0.983-12.967c7.332,0,14.664,0,21.996,0c2.83,0,5.66,0,8.489,0c-0.722,0-3.555-5.535-4.078-6.314
		c-0.279-0.416-0.939-1.632-1.675-2.868H54.63c0.793,1.377,1.53,2.755,1.772,3.115c0.637,0.948,3.253,6.066,4.245,6.066
		c6.469,0,12.939,0,19.408,0c0.23,3.036,0.46,6.071,0.691,9.107c0.09,1.185,0.18,2.371,0.269,3.556
		c-1.619,0.48-3.103,1.321-4.299,2.64c-4.421,4.876,4.215,10.722,7.167,13.546c1.648,1.577,2.998,3.071,5.367,3.429
		c3.457,0.523,1.505-6.895,1.353-8.902c-0.04-0.528-0.08-1.056-0.12-1.584c2.037-0.499,4.373-0.307,6.27-0.061
		c2.402,0.312,4.675,1.223,6.796,2.354c0.706,1.243,1.237,2.574,1.714,3.913c4.219,11.839-4.652,24.651-16.28,27.911
		c0.383-0.107,4.28,4.378,4.645,4.735c0.456,0.447,4.146,4.742,4.834,4.55c11.702-3.281,19.289-14.978,16.624-26.727
		C113.898,129.996,110.267,126.024,106.563,122.311z"/>
</g>
</svg>
