<?xml version="1.0" encoding="utf-8"?>
<!-- Generator: Adobe Illustrator 17.0.0, SVG Export Plug-In . SVG Version: 6.00 Build 0)  -->
<!DOCTYPE svg PUBLIC "-//W3C//DTD SVG 1.1//EN" "http://www.w3.org/Graphics/SVG/1.1/DTD/svg11.dtd">
<svg version="1.1" id="Layer_1" xmlns="http://www.w3.org/2000/svg" xmlns:xlink="http://www.w3.org/1999/xlink" x="0px" y="0px"
	 width="216px" height="216px" viewBox="0 0 216 216" enable-background="new 0 0 216 216" xml:space="preserve">
<g>
	<path d="M121.633,89.698c0.002-1.089-3.753-3.919-4.472-4.635c-0.592-0.59-4.664-3.66-4.662-4.461
		c-0.014,6.886-0.028,13.772-0.042,20.659c-0.272,2.204-0.735,4.357-1.659,6.259c-1.86,3.83-5.558,7.434-9.292,9.615
		c-1.475,0.862-3.458,1.073-5.147,1.321c-1.214,0.178-2.576,0.086-3.488-0.704c-0.578-0.5-0.902-1.224-1.04-1.957
		c-1.236-6.542,0.9-13.419-0.887-19.867c-1.152-4.155-5.376-7.363-8.358-10.3C79.207,82.3,75.99,79.32,70.757,79.88
		c0.541-0.058,3.681,3.832,4.095,4.244c0.515,0.512,3.446,4.172,4.268,4.084c1.342-0.144,2.546-0.07,3.713,0.199
		c0.253,0.959,0.361,1.961,0.477,2.931c0.527,4.424-0.439,8.866,0.048,13.286c0.423,3.84,1.253,8.563,3.656,11.76
		c2.298,3.058,5.295,6.459,8.675,8.442c3.559,2.089,9.254,2.182,13.153,1.067c1.246-0.357,2.445-1.043,3.57-1.915
		c0,0.151-0.001,0.302-0.001,0.452c-0.004,0.074-0.009,0.147,0,0.209c-0.021,10.407-0.043,20.814-0.064,31.22
		c-0.002,1.089,3.753,3.919,4.472,4.635c0.592,0.589,4.663,3.66,4.662,4.461C121.529,139.87,121.581,114.784,121.633,89.698z"/>
</g>
</svg>
