<?xml version="1.0" encoding="utf-8"?>
<!-- Generator: Adobe Illustrator 17.0.0, SVG Export Plug-In . SVG Version: 6.00 Build 0)  -->
<!DOCTYPE svg PUBLIC "-//W3C//DTD SVG 1.1//EN" "http://www.w3.org/Graphics/SVG/1.1/DTD/svg11.dtd">
<svg version="1.1" id="Layer_1" xmlns="http://www.w3.org/2000/svg" xmlns:xlink="http://www.w3.org/1999/xlink" x="0px" y="0px"
	 width="216px" height="216px" viewBox="0 0 216 216" enable-background="new 0 0 216 216" xml:space="preserve">
<g>
	<path d="M123.76,117.749c-2.397-2.65-4.845-5.969-7.73-8.039c-7.354-5.276-15.231-0.149-20.022,6.382
		c-4.815,6.563-8.633,15.027-17.763,12.938c-0.116-0.033-0.227-0.081-0.342-0.117c-0.211-0.655-0.406-1.315-0.583-1.972
		c-1.239-4.596-0.511-9.61,0.533-14.148c1.772-7.701,5.932-15.096,2.106-22.887c-0.532-1.083-1.291-2.086-2.126-3.04
		c13.479,0,26.958,0,40.437,0c3.208,0,6.416,0,9.624,0c-0.818,0-4.03-5.764-4.623-6.575c-0.32-0.437-1.08-1.725-1.924-3.025H54.536
		c0.908,1.447,1.757,2.904,2.034,3.283c0.723,0.987,3.688,6.317,4.812,6.317c3.773,0,7.545,0,11.318,0
		c0.012,1.45-0.189,2.909-0.415,4.325c-0.911,5.718-3.444,10.957-4.289,16.732c-1.676,11.45,4.717,18.061,11.639,25.364
		c6.784,7.157,14.461,7.571,20.795-0.681c2.395-3.12,4.238-6.418,6.643-9.285c0.245,0.307,0.5,0.607,0.751,0.911
		c0.319,0.725,1.535,2.034,2.633,2.995c1.759,1.863,3.6,3.571,5.437,4.992c6.041,4.672,14.002,1.018,12.456-7.615
		C127.859,121.857,125.471,119.641,123.76,117.749z M117.695,122.601c-1.223,1.69-3.163,2.192-5.026,2.331
		c-1.11,0.083-2.218-0.35-3.242-0.785c-0.548-0.541-1.119-1.064-1.697-1.581c0.987-1.094,2.074-2.115,3.334-3.023
		c1.941-1.398,4.185-2.024,6.463-2.345c0.703-0.099,1.391-0.074,2.042,0.022C119.551,119.051,118.948,120.87,117.695,122.601z"/>
</g>
</svg>
