<?xml version="1.0" encoding="utf-8"?>
<!-- Generator: Adobe Illustrator 17.0.0, SVG Export Plug-In . SVG Version: 6.00 Build 0)  -->
<!DOCTYPE svg PUBLIC "-//W3C//DTD SVG 1.1//EN" "http://www.w3.org/Graphics/SVG/1.1/DTD/svg11.dtd">
<svg version="1.1" id="Layer_1" xmlns="http://www.w3.org/2000/svg" xmlns:xlink="http://www.w3.org/1999/xlink" x="0px" y="0px"
	 width="216px" height="216px" viewBox="0 0 216 216" enable-background="new 0 0 216 216" xml:space="preserve">
<g>
	<path d="M120.965,111.421c-0.857-1.188-2.796-2.386-3.431-3.266c2.751,3.813-0.274,9.339-4.846,9.403
		c-0.808,0.011-1.6-0.224-2.334-0.571c-0.033-0.063-0.065-0.123-0.099-0.193c-0.32-0.665-0.425-1.399-0.486-2.124
		c-0.251-2.988,1.546-5.672,0.515-8.665c-0.1-0.289-0.368-0.593-0.671-0.88c-0.006-0.091-0.012-0.184-0.019-0.273
		c-0.037-0.502-1.367-1.467-1.692-1.783c-0.224-0.218-1.808-1.361-1.829-1.642c0.41,5.494,0.083,12.958-6.758,13.991
		c-0.486,0.073-0.974,0.024-1.457-0.031c-0.088-0.014-0.174-0.037-0.261-0.056c-0.228-0.804-0.271-1.676-0.287-2.486
		c-0.055-2.798,0.656-5.532,0.319-8.338c-0.284-2.36-1.823-3.907-3.444-5.485c-1.775-1.727-3.41-3.16-5.93-3.57
		c-4.405-0.716-7.393,2.602-8.27,6.443c-1.2-1.303-2.535-2.615-4.051-3.434c-6.264-3.382-7.4,7.402-7.572,11.166
		c-0.02,0.431,1.422,1.521,1.692,1.783c0.178,0.173,1.838,1.438,1.829,1.642c0.102-2.229,0.435-4.391,1.007-6.547
		c0.465-1.753,1.007-3.762,2.622-4.78c0.554-0.349,1.26-0.383,1.89-0.391c0.339,0.016,0.673,0.068,1.001,0.154
		c0.125,0.026,0.242,0.059,0.352,0.097c0.564,1.243,0.827,2.67,1.054,3.997c0.031,0.224,0.067,0.447,0.114,0.667
		c0.124,0.578,1.297,1.399,1.692,1.783c0.111,0.108,0.431,0.347,0.772,0.614c0.352,0.343,0.704,0.685,1.057,1.028
		c-0.037-0.212-0.075-0.424-0.113-0.637c-0.782-5.26,2.65-10.708,8.445-10.16c0.517,0.049,1.018,0.2,1.512,0.351
		c0.139,0.042,0.269,0.09,0.392,0.142c0.343,0.887,0.469,1.877,0.533,2.794c0.194,2.77-0.555,5.519-0.379,8.295
		c0.149,2.341,1.555,3.801,3.147,5.35c1.754,1.706,3.243,3.209,5.855,3.033c2.56-0.173,4.201-1.454,5.235-3.254
		c1.29,1.597,3.094,3.013,4.513,4.103C118.02,123.868,124.819,116.765,120.965,111.421z M79.363,101.868
		C79.888,102.19,79.969,102.472,79.363,101.868L79.363,101.868z M94.259,99.666C95.07,100.168,95.172,100.643,94.259,99.666
		L94.259,99.666z M110.563,117.36C111.397,118.116,111.113,118.258,110.563,117.36L110.563,117.36z"/>
</g>
</svg>
