<?xml version="1.0" encoding="utf-8"?>
<!-- Generator: Adobe Illustrator 17.0.0, SVG Export Plug-In . SVG Version: 6.00 Build 0)  -->
<!DOCTYPE svg PUBLIC "-//W3C//DTD SVG 1.1//EN" "http://www.w3.org/Graphics/SVG/1.1/DTD/svg11.dtd">
<svg version="1.1" id="Layer_1" xmlns="http://www.w3.org/2000/svg" xmlns:xlink="http://www.w3.org/1999/xlink" x="0px" y="0px"
	 width="216px" height="216px" viewBox="0 0 216 216" enable-background="new 0 0 216 216" xml:space="preserve">
<g>
	<path d="M110.094,112.671c1.037,1.38,2.519,2.926,4.184,2.469c1.207-0.331,1.875-1.587,2.406-2.721
		c1.503-3.217,3.007-6.434,4.51-9.651c2.102,0,4.204,0,6.305,0c2.804,0,5.608,0,8.412,0c-0.715,0-3.523-3.688-4.041-4.206
		c-0.632-0.632-3.223-4.041-4.206-4.041c-2.804,0-5.608,0-8.412,0c-16.574,0-33.148,0-49.721,0c0.715,0,3.523,3.688,4.041,4.206
		c0.632,0.632,3.223,4.041,4.206,4.041c0.739,0,1.479,0,2.219,0c0.18,5.606,0.361,11.212,0.541,16.817
		c0.163,5.051-0.084,10.393,1.993,15.124c1.833,4.175,5.312,7.365,8.508,10.497c3.206,3.142,6.483,6.188,10.566,8.18
		c7.398,3.608,16.258,2.368,24.098,1.37c-0.655,0.083-4.487-4.691-4.996-5.2c-0.633-0.633-4.21-5.122-5.2-4.996
		c-4.062,0.516-8.149,0.993-12.251,0.936c-2.883-0.04-8.223,0.182-10.543-1.807c-2.174-1.863-1.959-5.371-2.075-7.983
		c-0.149-3.352,0.073-6.707-0.035-10.06c-0.222-6.893-0.225-22.026-1.104-22.879c4.771,0,8.38,0,13.151,0
		C105.131,106.069,107.612,109.37,110.094,112.671z"/>
</g>
</svg>
