<?xml version="1.0" encoding="utf-8"?>
<!-- Generator: Adobe Illustrator 17.0.0, SVG Export Plug-In . SVG Version: 6.00 Build 0)  -->
<!DOCTYPE svg PUBLIC "-//W3C//DTD SVG 1.1//EN" "http://www.w3.org/Graphics/SVG/1.1/DTD/svg11.dtd">
<svg version="1.1" id="Layer_1" xmlns="http://www.w3.org/2000/svg" xmlns:xlink="http://www.w3.org/1999/xlink" x="0px" y="0px"
	 width="216px" height="216px" viewBox="0 0 216 216" enable-background="new 0 0 216 216" xml:space="preserve">
<g>
	<path d="M131.559,68.444c-0.018-1.072-3.545-3.786-4.223-4.477c-0.559-0.569-4.383-3.514-4.396-4.302
		c0.172,10.449,0.344,20.898,0.516,31.347c-0.618-0.613-1.186-1.065-1.531-1.056c-4.73,0.134-9.459,0.269-14.188,0.403
		c-0.759,0.022-1.526,0.03-2.296,0.034c-1.285-7.652-3.694-15.118-7.052-22.067c-0.791-1.637-2.984-3.215-4.223-4.477
		c-1.136-1.157-3.685-2.832-4.396-4.302c3.829,7.922,6.246,16.313,7.489,25.043c0.281,1.971,0.504,3.955,0.542,5.932
		c-1.48,0.084-2.947,0.224-4.382,0.482c-3.977,0.715-5.66,5.404-3.877,8.781c1.638,3.101,5.482,5.893,7.936,8.294
		c2.06,2.016,3.924,2.968,6.382,0.836c2.449-2.124,2.734-6.069,2.584-9.498c0.155-0.002,0.306-0.005,0.453-0.009
		c5.563-0.158,11.127-0.316,16.69-0.474c0.191,11.61,0.382,23.219,0.573,34.829c0.018,1.072,3.545,3.786,4.223,4.477
		c0.559,0.569,4.383,3.513,4.396,4.302C132.372,117.842,131.966,93.143,131.559,68.444z"/>
</g>
</svg>
