<?xml version="1.0" encoding="utf-8"?>
<!-- Generator: Adobe Illustrator 17.0.0, SVG Export Plug-In . SVG Version: 6.00 Build 0)  -->
<!DOCTYPE svg PUBLIC "-//W3C//DTD SVG 1.1//EN" "http://www.w3.org/Graphics/SVG/1.1/DTD/svg11.dtd">
<svg version="1.1" id="Layer_1" xmlns="http://www.w3.org/2000/svg" xmlns:xlink="http://www.w3.org/1999/xlink" x="0px" y="0px"
	 width="216px" height="216px" viewBox="0 0 216 216" enable-background="new 0 0 216 216" xml:space="preserve">
<path d="M154.449,118.444c15.543,5.596,5.628,24.579,2.579,29.686l7.261,7.203c0.036,0.01,0.06,0.011,0.067,0.001
	c5.071-6.928,11.402-17.636,8.935-25.653c-6.07-19.728-28.207-20.423-35.518-19.347c-8.54,1.257-16.202,14.147-18.21,22.403
	c-0.04,0.166-9.184-5.051-9.184-5.051l12.115-23.175c11.76,0,25.73,0.427,37.49,0.427c2.816,0,5.632,0,8.448,0l-8.356-8.356
	c-1.443,0-2.886,0-4.329,0c-17.507,0-35.015,0-52.522,0l8.356,8.356c0.605,0,3.575-0.243,4.18-0.243l-11.48,21.308
	c0,0,20.665,10.654,24.344,12.817C127.762,138.314,135.37,111.576,154.449,118.444z"/>
</svg>
