<?xml version="1.0" encoding="utf-8"?>
<!-- Generator: Adobe Illustrator 17.0.0, SVG Export Plug-In . SVG Version: 6.00 Build 0)  -->
<!DOCTYPE svg PUBLIC "-//W3C//DTD SVG 1.1//EN" "http://www.w3.org/Graphics/SVG/1.1/DTD/svg11.dtd">
<svg version="1.1" id="Layer_1" xmlns="http://www.w3.org/2000/svg" xmlns:xlink="http://www.w3.org/1999/xlink" x="0px" y="0px"
	 width="216px" height="216px" viewBox="0 0 216 216" enable-background="new 0 0 216 216" xml:space="preserve">
<g>
	<path d="M129.763,118.929l-5.375-5.375h-7.049c-2.087-2.655-5.083-4.638-8.262-6.574c-3.419-2.082-8.523-4.096-12.269-2.608
		c-1.893-1.86-4.416-3.294-6.839-4.706c-5.515-3.214-12.261-1.915-14.497,4.688c-0.225,0.664,6.837,3.677,6.687,4.122
		c1.219-3.6,4.023-5.842,7.722-6.564c0.592-0.115,1.189-0.102,1.783-0.046c0.056,0.086,0.121,0.166,0.175,0.254
		c1.212,1.768,1.475,3.948,1.285,6.02c-0.047,0.513,2.588,1.802,4.565,2.814c0.707,0.436,1.415,0.872,2.122,1.308
		c1.774-4.06,6.208-4.823,10.157-3.964c0.735,0.765,1.298,1.674,1.85,2.572c0.516,0.841,0.874,1.747,1.137,2.682H86.655l5.375,5.375
		h23.452c3.611,9.232,6.766,7.795,8.732,0H129.763z"/>
</g>
</svg>
