<?xml version="1.0" encoding="utf-8"?>
<!-- Generator: Adobe Illustrator 17.0.0, SVG Export Plug-In . SVG Version: 6.00 Build 0)  -->
<!DOCTYPE svg PUBLIC "-//W3C//DTD SVG 1.1//EN" "http://www.w3.org/Graphics/SVG/1.1/DTD/svg11.dtd">
<svg version="1.1" id="Layer_1" xmlns="http://www.w3.org/2000/svg" xmlns:xlink="http://www.w3.org/1999/xlink" x="0px" y="0px"
	 width="216px" height="216px" viewBox="0 0 216 216" enable-background="new 0 0 216 216" xml:space="preserve">
<g>
	<path d="M118.069,96.306l19.94,0.632l-5.922-11.454l-44.075-1.396l5.922,11.454l15.193,0.481
		c0.069,6.923,0.139,13.846,0.208,20.769c-0.121-0.089-0.241-0.188-0.364-0.261c-10.345-6.162-22.737,0.102-24.103,12.006
		c-0.557,4.855,2.094,9.026,4.948,12.638c3.255,4.12,6.5,8.708,10.658,11.978c3.763,2.959,9.051,3.4,13.209,1.159
		c4.812-2.592,4.838-9.599,4.824-14.258C118.463,125.473,118.216,110.888,118.069,96.306z M101.149,144.626
		c-1.617,0.374-4.815,0.543-6.209-0.559c-2.258-1.784-0.841-6.443-0.158-8.673c1.119-3.652,3.724-6.571,7.122-8.273
		c1.542-0.772,3.381-1.309,5.195-1.412c2.373-0.134,2.503,0.474,2.496,2.686C109.578,134.854,108.643,142.895,101.149,144.626z"/>
</g>
</svg>
