<?xml version="1.0" encoding="utf-8"?>
<!-- Generator: Adobe Illustrator 17.0.0, SVG Export Plug-In . SVG Version: 6.00 Build 0)  -->
<!DOCTYPE svg PUBLIC "-//W3C//DTD SVG 1.1//EN" "http://www.w3.org/Graphics/SVG/1.1/DTD/svg11.dtd">
<svg version="1.1" id="Layer_1" xmlns="http://www.w3.org/2000/svg" xmlns:xlink="http://www.w3.org/1999/xlink" x="0px" y="0px"
	 width="216px" height="216px" viewBox="0 0 216 216" enable-background="new 0 0 216 216" xml:space="preserve">
<g>
	<g>
		<g>
			<path d="M128.892,105.058H90.517l5.467,7.927h13.455c0,6.5,0,13.001,0,19.502l-13.102,14.239l12.426,11.433
				c0.001,0.025,0,0.049,0.001,0.074l3.099,2.779l2.801,2.577l-0.001-0.067l2.026,1.817v-0.276c0.131,0.17,0.214,0.315,0.214,0.412
				c0-2.538,0-5.076,0-7.614c0-14.959,0-29.918,0-44.876h17.455L128.892,105.058z"/>
		</g>
	</g>
	<g>
		<g>
			<rect x="97.316" y="90.468" transform="matrix(0.7071 0.7071 -0.7071 0.7071 97.3739 -44.3453)" width="9.8" height="9.8"/>
		</g>
	</g>
	<g>
		<g>
			<rect x="112.907" y="90.468" transform="matrix(0.7071 0.7071 -0.7071 0.7071 101.9405 -55.3699)" width="9.8" height="9.8"/>
		</g>
	</g>
</g>
</svg>
