<?xml version="1.0" encoding="utf-8"?>
<!-- Generator: Adobe Illustrator 17.0.0, SVG Export Plug-In . SVG Version: 6.00 Build 0)  -->
<!DOCTYPE svg PUBLIC "-//W3C//DTD SVG 1.1//EN" "http://www.w3.org/Graphics/SVG/1.1/DTD/svg11.dtd">
<svg version="1.1" id="Layer_1" xmlns="http://www.w3.org/2000/svg" xmlns:xlink="http://www.w3.org/1999/xlink" x="0px" y="0px"
	 width="216px" height="216px" viewBox="0 0 216 216" enable-background="new 0 0 216 216" xml:space="preserve">
<g>
	<g>
		<g>
			<path d="M114.366,112.541c0.144-0.002-0.58-0.728-2.171-2.176c-0.928-0.961-1.873-2.041-2.985-2.758
				c-0.336-0.217-0.683-0.388-1.034-0.541h-8.081c0.771,0.877,3.981,4.453,4.402,4.376c2.316-0.422,4.632-0.771,6.966-0.284
				c0.102,0.021,0.202,0.049,0.302,0.078c0.071,0.232,0.137,0.464,0.192,0.695c0.978,4.086-1.996,7.858-5.556,9.431
				c-4.497,1.987-9.653,0.332-13.534-2.205c-0.824-0.539-1.603-1.151-2.351-1.795c-0.098-0.109-0.198-0.216-0.296-0.326
				c-0.522-0.583-1.035-1.174-1.549-1.763c-1.747-2-3.493-4.001-5.24-6.001c-0.67-0.768-1.401-1.489-2.131-2.205h-0.403
				c3.949,4.531,7.91,9.036,12.289,13.173c4.518,4.268,10.318,7.799,16.751,6.06c5.402-1.461,8.639-7.718,5.375-12.593
				C115.04,113.295,114.711,112.913,114.366,112.541z"/>
		</g>
	</g>
</g>
</svg>
