<?xml version="1.0" encoding="utf-8"?>
<!-- Generator: Adobe Illustrator 17.0.0, SVG Export Plug-In . SVG Version: 6.00 Build 0)  -->
<!DOCTYPE svg PUBLIC "-//W3C//DTD SVG 1.1//EN" "http://www.w3.org/Graphics/SVG/1.1/DTD/svg11.dtd">
<svg version="1.1" id="Layer_1" xmlns="http://www.w3.org/2000/svg" xmlns:xlink="http://www.w3.org/1999/xlink" x="0px" y="0px"
	 width="216px" height="216px" viewBox="0 0 216 216" enable-background="new 0 0 216 216" xml:space="preserve">
<g>
	<path d="M132.481,101.118c-0.361-0.487-1.35-2.175-2.325-3.562H59.013c1.222,1.482,2.543,3.316,2.915,3.722
		c0.787,0.857,4.015,5.485,5.24,5.485c2.142,0,4.283,0,6.425,0c0.196,4.455,0.392,8.911,0.588,13.366
		c0.111,2.518,0.25,5.037,0.344,7.556c-1.41-0.232-2.887-0.079-4.446,0.678c-2.535,1.232-1.809,3.281-0.466,5.081
		c-0.021-0.015-0.043-0.026-0.065-0.042c0.047,0.047,0.094,0.093,0.14,0.14c0.904,1.186,2.055,2.254,2.689,2.895
		c2.235,2.259,5.785,7.662,9.471,5.457c1.574-0.941,1.323-3.837,1.117-5.872c1.287,0.282,2.536,0.824,3.499,1.334
		c3.274,1.733,6.202,4.773,9.074,7.093c2.812,2.271,5.623,4.543,8.435,6.814c4.981,4.024,9.887,8.17,14.99,12.038
		c4.538,3.44,10.095,5.653,15.642,3.347c-0.209,0.087-3.842-4.01-4.114-4.282c-0.336-0.336-3.813-4.309-4.281-4.114
		c-5.109,2.124-10.052,0.407-14.453-2.493c-5.157-3.399-9.829-7.785-14.63-11.664c-4.792-3.871-9.584-7.742-14.376-11.614
		c-0.103-2.345-0.206-4.69-0.31-7.035c-0.271-6.154-0.541-12.309-0.812-18.463c-0.003-0.068-0.02-0.142-0.049-0.221
		c1.144,0,2.288,0,3.432,0c0.092,0.049,0.179,0.083,0.254,0.083c3.062,0,6.123,0,9.185,0c0.468,11.149-0.312-5.376,0.156,5.773
		c0.1,2.375,0.199,4.75,0.299,7.125c0.035,0.832,4.531,3.115,5.369,3.666c0.688,0.452,5.551,2.925,5.576,3.53
		c-0.1-2.375-0.199-4.75-0.299-7.125v0c-0.568-13.531,0.108,0.54-0.456-12.922c2.568,0,5.136,0,7.703,0
		c0.468,11.196-0.312-5.399,0.157,5.798c0.1,2.385,0.199,4.77,0.299,7.155c0.035,0.836,4.531,3.128,5.369,3.681
		c0.688,0.454,5.551,2.937,5.576,3.545c-0.099-2.385-0.199-4.77-0.299-7.155v0c-0.569-13.605,0.11,0.58-0.458-13.024
		c4.384,0,8.768,0,13.152,0C135.867,106.894,133.009,101.83,132.481,101.118z"/>
</g>
</svg>
