<?xml version="1.0" encoding="utf-8"?>
<!-- Generator: Adobe Illustrator 17.0.0, SVG Export Plug-In . SVG Version: 6.00 Build 0)  -->
<!DOCTYPE svg PUBLIC "-//W3C//DTD SVG 1.1//EN" "http://www.w3.org/Graphics/SVG/1.1/DTD/svg11.dtd">
<svg version="1.1" id="Layer_1" xmlns="http://www.w3.org/2000/svg" xmlns:xlink="http://www.w3.org/1999/xlink" x="0px" y="0px"
	 width="216px" height="216px" viewBox="0 0 216 216" enable-background="new 0 0 216 216" xml:space="preserve">
<g>
	<g>
		<g>
			<path d="M123.517,126.085c-1.39-2.228-2.896-4.857-4.811-6.673c-3.527-3.346-8.151-2.783-12.51-1.798
				c-0.699-1.027-1.427-2.084-2.322-2.893c-0.33-0.298-0.68-0.548-1.038-0.779l-8.866-1.449c0.688,1.1,3.569,5.599,4.045,5.59
				c2.617-0.047,5.22-0.015,7.693,0.937c0.108,0.042,0.213,0.09,0.318,0.139c0.036,0.267,0.067,0.534,0.086,0.797
				c0.34,4.658-3.598,8.263-7.786,9.351c-5.289,1.374-10.649-1.366-14.452-4.845c-0.807-0.738-1.553-1.55-2.257-2.391
				c-0.088-0.137-0.179-0.273-0.266-0.411c-0.468-0.733-0.925-1.473-1.384-2.212c-1.558-2.507-3.115-5.015-4.672-7.523
				c-0.597-0.962-1.27-1.885-1.942-2.801l-0.442-0.072c3.52,5.679,7.058,11.331,11.12,16.654c4.192,5.492,9.921,10.406,17.29,9.65
				c6.032-0.618,10.621-6.605,8.342-12.403c2.908-0.673,5.746-1.158,8.738-0.571c0.623,0.149,1.225,0.36,1.804,0.633
				c0.164,0.067,0.309,0.141,0.444,0.216c0.206,1.041,0.198,2.133,0.119,3.172c-0.526,6.987-8.322,10.529-14.033,12.35
				c0.547-0.175,3.061,5.497,3.787,5.266c4.41-1.406,8.49-3.219,11.563-6.796C124.578,134.322,125.645,129.494,123.517,126.085z
				 M121.159,123.567C121.851,124.121,121.793,124.536,121.159,123.567L121.159,123.567z"/>
		</g>
	</g>
</g>
</svg>
