<?xml version="1.0" encoding="utf-8"?>
<!-- Generator: Adobe Illustrator 17.0.0, SVG Export Plug-In . SVG Version: 6.00 Build 0)  -->
<!DOCTYPE svg PUBLIC "-//W3C//DTD SVG 1.1//EN" "http://www.w3.org/Graphics/SVG/1.1/DTD/svg11.dtd">
<svg version="1.1" id="Layer_1" xmlns="http://www.w3.org/2000/svg" xmlns:xlink="http://www.w3.org/1999/xlink" x="0px" y="0px"
	 width="216px" height="216px" viewBox="0 0 216 216" enable-background="new 0 0 216 216" xml:space="preserve">
<g>
	<g>
		<path d="M110.284,106.422l-3.775-5.73h-2.787c0.786-2.891,1.11-5.825-0.012-8.775c-1.002-2.636-4.094-5.453-6.35-7.016
			c-3.191-2.211-6.908-1.539-9.868,0.737c-3.478,2.673-4.887,7.244-6.296,11.191c-0.301,0.843,3.451,2.937,4.161,3.862h-5.351
			l3.775,5.73h14.173v35.153l5.73,5.824v-40.883l-0.092-0.094H110.284z M85.565,100.692c1.774-5.422,4.365-11.811,10.63-12.974
			c1.11-0.206,2.23-0.035,3.302,0.26c0.242,0.595,0.384,1.234,0.521,1.856c0.741,3.367-0.532,6.925-1.557,10.086
			c-0.064,0.199,0.095,0.467,0.382,0.772H85.565z"/>
	</g>
</g>
</svg>
