<?xml version="1.0" encoding="utf-8"?>
<!-- Generator: Adobe Illustrator 17.0.0, SVG Export Plug-In . SVG Version: 6.00 Build 0)  -->
<!DOCTYPE svg PUBLIC "-//W3C//DTD SVG 1.1//EN" "http://www.w3.org/Graphics/SVG/1.1/DTD/svg11.dtd">
<svg version="1.1" id="Layer_1" xmlns="http://www.w3.org/2000/svg" xmlns:xlink="http://www.w3.org/1999/xlink" x="0px" y="0px"
	 width="216px" height="216px" viewBox="0 0 216 216" enable-background="new 0 0 216 216" xml:space="preserve">
<g>
	<path d="M145.956,86.052c3.691,0,7.382,0,11.074,0c-0.941,0-4.637-4.86-5.32-5.543c-0.831-0.832-4.243-5.326-5.537-5.326
		c-3.691,0-7.382,0-11.074,0c-21.818,0-43.636,0-65.454,0c0.941,0,4.637,4.86,5.32,5.543c0.831,0.832,4.243,5.326,5.537,5.326
		c9.69,0,19.38,0,29.07,0c0,4.889,0,9.778,0,14.667c-1.675-1.47-3.455-2.77-5.375-3.736c-5.892-2.964-12.599-0.77-16.085,4.604
		c-3.595,5.542-0.494,10.535,3.432,14.559c3.996,4.095,8.117,9.558,14.482,8.781c1.328-0.162,2.498-0.64,3.546-1.337
		c0,8.933,0,17.866,0,26.799c0,0.971,3.366,3.533,3.99,4.157c0.512,0.512,4.153,3.288,4.153,3.994c0-14.847,0-29.695,0-44.542
		c1.859,2.001,3.821,3.924,5.858,5.829c4.502,4.209,10.2,5.961,15.286,1.614c4.845-4.141,3.61-10.93-0.206-15.176
		c-3.944-4.388-8.519-10.187-14.616-11.323c-2.327-0.434-4.433-0.14-6.321,0.645c0-3.179,0-6.357,0-9.536
		C127.128,86.052,136.542,86.052,145.956,86.052z M109.572,101.179v0.002c-0.031-0.035-0.06-0.066-0.091-0.101
		C109.51,101.112,109.542,101.146,109.572,101.179z M94.912,116.783c-0.041-0.005-0.082-0.014-0.123-0.02
		c-0.658-3.149,0.842-6.383,2.724-8.792c2.068-2.648,5.281-3.88,8.523-4.136c1.038-0.082,2.077,0.06,3.095,0.273
		c-0.217,0.381-0.427,0.764-0.625,1.147C105.631,110.793,102.254,117.63,94.912,116.783z M118.502,110.071
		c3.178-5.302,9.224-8.081,15.102-6.614c0.182,0.763,0.284,1.547,0.347,2.327c0.261,3.246-1.686,6.182-4.034,8.189
		c-2.267,1.938-5.236,2.258-8.041,1.684c-0.644-0.132-1.271-0.365-1.876-0.657c-0.423-0.664-0.836-1.334-1.249-2
		c-0.299-0.483-0.653-0.931-1.037-1.359c0-0.053,0-0.106,0-0.158C117.977,110.985,118.238,110.511,118.502,110.071z"/>
</g>
</svg>
