<?xml version="1.0" encoding="utf-8"?>
<!-- Generator: Adobe Illustrator 17.0.0, SVG Export Plug-In . SVG Version: 6.00 Build 0)  -->
<!DOCTYPE svg PUBLIC "-//W3C//DTD SVG 1.1//EN" "http://www.w3.org/Graphics/SVG/1.1/DTD/svg11.dtd">
<svg version="1.1" id="Layer_1" xmlns="http://www.w3.org/2000/svg" xmlns:xlink="http://www.w3.org/1999/xlink" x="0px" y="0px"
	 width="216px" height="216px" viewBox="0 0 216 216" enable-background="new 0 0 216 216" xml:space="preserve">
<g>
	<g>
		<path d="M154.786,83.95h3.068l-9.003-9.003h-2.446H90.631h-4.986l9.003,9.003h4.484C99.222,83.982,99.305,84,99.38,84
			c1.976,0,3.951,0,5.928,0c0.517,6.745,1.232,13.471,2.184,20.177c1.12,7.893,1.44,17.445,5.73,24.377
			c1.878,3.034,5.051,5.607,7.554,8.083c2.4,2.374,4.577,4.62,7.692,6.015c7.556,3.383,18.514,2.584,22.446-4.529
			c2.577-4.661-9.549-9.629-9.587-9.588c-4.955,5.292-13.578,7.544-20.649,5.269c-2.18-5.737-2.466-12.613-3.342-18.294
			c-1.608-10.436-2.563-20.965-3.048-31.51c3.179,0,6.358,0,9.537,0c0.278,2.708,0.61,5.412,1.011,8.11
			c0.7,4.702,0.9,10.393,3.581,14.522c1.173,1.807,3.156,3.34,4.72,4.815c1.5,1.414,2.859,2.752,4.806,3.583
			c4.721,2.015,11.568,1.539,14.025-2.698c1.61-2.777-5.967-5.736-5.991-5.712c-3.096,3.152-8.484,4.494-12.902,3.139
			c-1.362-3.418-1.541-7.514-2.088-10.898c-0.796-4.926-1.329-9.888-1.669-14.862c8.55,0,17.101,0,25.651,0
			C154.919,84,154.856,83.982,154.786,83.95z"/>
	</g>
</g>
</svg>
