<?xml version="1.0" encoding="utf-8"?>
<!-- Generator: Adobe Illustrator 17.0.0, SVG Export Plug-In . SVG Version: 6.00 Build 0)  -->
<!DOCTYPE svg PUBLIC "-//W3C//DTD SVG 1.1//EN" "http://www.w3.org/Graphics/SVG/1.1/DTD/svg11.dtd">
<svg version="1.1" id="Layer_1" xmlns="http://www.w3.org/2000/svg" xmlns:xlink="http://www.w3.org/1999/xlink" x="0px" y="0px"
	 width="216px" height="216px" viewBox="0 0 216 216" enable-background="new 0 0 216 216" xml:space="preserve">
<g>
	<path d="M100.481,81.601c0,0,12.006-0.035,13.076-0.039c-0.758,0.003-3.764-4.236-4.315-4.828
		c-0.671-0.721-3.446-4.642-4.491-4.639c-13.818,0.045-27.637,0.091-41.455,0.136c-0.015-0.046-0.034-0.095-0.039-0.136
		c0.005,0.045,0.009,0.091,0.014,0.136c-5.142,0.017-10.285,0.034-15.427,0.051c0.758-0.002,3.764,4.236,4.315,4.828
		c0.671,0.721,3.446,4.642,4.491,4.639c2.536-0.008,5.072-0.017,7.608-0.025c0.142,0,1.066,11.067,1.191,12.117
		c0.506,4.266,1.2,8.533,2.464,12.646c2.665,8.666,8.443,15.619,15.265,21.426c3.389,2.885,8.265,4.827,12.602,2.882
		c4.487-2.012,5.841-7.131,6.483-11.589C104.079,106.603,102.613,94.057,100.481,81.601z M94.119,101.817
		c-0.342,8.482-1.058,19.433-10.886,20.312c-6.731,0.602-7-7.4-7.756-12.42c-1.395-9.255-2.395-18.693-3.399-28.011
		c7.054-0.023,14.108-0.046,21.161-0.069C94.091,88.305,94.393,95.033,94.119,101.817z"/>
</g>
</svg>
