<?xml version="1.0" encoding="utf-8"?>
<!-- Generator: Adobe Illustrator 17.0.0, SVG Export Plug-In . SVG Version: 6.00 Build 0)  -->
<!DOCTYPE svg PUBLIC "-//W3C//DTD SVG 1.1//EN" "http://www.w3.org/Graphics/SVG/1.1/DTD/svg11.dtd">
<svg version="1.1" id="Layer_1" xmlns="http://www.w3.org/2000/svg" xmlns:xlink="http://www.w3.org/1999/xlink" x="0px" y="0px"
	 width="216px" height="216px" viewBox="0 0 216 216" enable-background="new 0 0 216 216" xml:space="preserve">
<g>
	<g>
		<path d="M139.274,94.748c-0.744-0.709-4.018-4.819-5.152-4.819H89.24c0.971,0,4.373,4.273,5.046,4.918
			c0.602,0.567,2.849,3.352,4.288,4.401c-2.353,2.36-5.514,4.068-8.71,5.018c0.369,0,3.565,3.629,3.855,3.912
			c0.369,0.361,3.466,3.926,4.026,3.763c1.601-0.468,3.203-1.134,4.699-1.977v1.914c-0.007,0-0.007,0-0.014,0v9.808
			c-1.531-0.439-3.147-0.56-4.415-0.078c-0.17,0.057-0.326,0.128-0.482,0.206c-0.737,0.397-1.318,1.049-1.616,2.013
			c-0.092,0.255-0.149,0.532-0.191,0.836c0.007,0.021,0.007,0.05,0.014,0.078c-0.362,1.368-0.305,2.877,0.312,4.139
			c0.078,0.17,0.17,0.34,0.276,0.503c0.829,1.29,2.041,2.218,3.196,3.161c0.794,0.652,1.545,1.361,2.367,1.991
			c0.298,0.227,0.61,0.446,0.936,0.652c1.474,0.907,7.562,4.507,7.562,0.092v-3.373c1.814-0.007,3.629,0.007,5.443,0.021
			c2.332,0.014,6.57,0.043,9.745,0.078v10.921c-3.912-2.303-12.084-1.524-11.658,4.004c0.057,0.765,2.388,2.438,2.898,2.941
			c0.425,0.411,2.977,2.24,3.019,2.821c-0.291-3.813,3.742-5.45,7.47-5.244c-1.162,3.083-6.634,5.244-9.419,5.854
			c-3.451,0.758-6.648-1.432-9.433-4.068c2.898,2.92,5.847,5.861,9.149,8.249c4.451,3.21,11.36,1.099,14.727-2.799
			c0.638-0.737,0.936-1.495,0.985-2.254c0.099,0.135,0.156,0.248,0.156,0.333V99.659h10.858
			C143.357,99.659,139.948,95.393,139.274,94.748z M110.338,99.659h15.237v24.032c-4.763-0.099-11.091-0.17-15.188-0.206v-11.906
			h-0.049V99.659z"/>
	</g>
</g>
</svg>
