<?xml version="1.0" encoding="utf-8"?>
<!-- Generator: Adobe Illustrator 17.0.0, SVG Export Plug-In . SVG Version: 6.00 Build 0)  -->
<!DOCTYPE svg PUBLIC "-//W3C//DTD SVG 1.1//EN" "http://www.w3.org/Graphics/SVG/1.1/DTD/svg11.dtd">
<svg version="1.1" id="Layer_1" xmlns="http://www.w3.org/2000/svg" xmlns:xlink="http://www.w3.org/1999/xlink" x="0px" y="0px"
	 width="216px" height="216px" viewBox="0 0 216 216" enable-background="new 0 0 216 216" xml:space="preserve">
<g>
	<path d="M119.495,144.94c-3.31-2.472-6.658-4.946-9.967-7.38c-3.842-2.853-7.685-5.707-11.527-8.56
		c-1.788-1.294-3.576-2.625-5.364-3.957c-1.75-1.293-3.576-3.12-5.63-3.957c-0.114-0.038-0.267-0.076-0.419-0.114
		c-0.114,2.473-0.875,4.68-3.385,4.223c-2.169-0.381-3.69-2.207-5.327-3.576c-1.483-1.256-3.69-2.816-3.994-4.908
		c-0.418-2.664,2.701-3.881,4.832-3.006c0.152,0.076,0.342,0.152,0.495,0.228c0.038-0.343,0.038-0.685,0-1.027
		c-0.305-3.728-0.685-7.456-1.065-11.147c-0.457-4.945-0.913-9.891-1.408-14.799H64.522c0.609,0,2.891-4.184,3.31-4.794
		c0.342-0.494,1.446-2.472,2.397-3.652h47.668c-0.913,1.256-2.13,3.424-2.434,3.842c-0.495,0.723-2.625,4.603-3.424,4.603h-4.832
		c-0.152,3.12-0.342,7.305-0.495,10.31c-0.038,0.8-1.065,1.18-1.674,0.647c-0.799-0.724-1.674-1.446-1.864-1.637
		c-1.065-1.064-2.207-2.131-3.158-3.309c-1.483-1.902-2.853-3.881-3.995-6.011H83.429c0.913,9.397,1.826,18.793,2.701,28.19
		c0.076,0.685,0.304,2.131,0.418,3.691c0.761,0.608,1.484,1.217,2.245,1.75c7.647,5.668,15.256,11.337,22.902,16.967
		c0.228,0.19,0.494,0.342,0.723,0.532c1.902,1.408,3.348,3.31,5.022,5.022l0.114,0.114
		C118.163,143.837,118.81,144.408,119.495,144.94z"/>
</g>
</svg>
