<?xml version="1.0" encoding="utf-8"?>
<!-- Generator: Adobe Illustrator 17.0.0, SVG Export Plug-In . SVG Version: 6.00 Build 0)  -->
<!DOCTYPE svg PUBLIC "-//W3C//DTD SVG 1.1//EN" "http://www.w3.org/Graphics/SVG/1.1/DTD/svg11.dtd">
<svg version="1.1" id="Layer_1" xmlns="http://www.w3.org/2000/svg" xmlns:xlink="http://www.w3.org/1999/xlink" x="0px" y="0px"
	 width="216px" height="216px" viewBox="0 0 216 216" enable-background="new 0 0 216 216" xml:space="preserve">
<g>
	<path d="M154.645,120.995c-0.548-8.434-1.096-10.862-1.644-18.221h13.116l-10.039-10.039H82.918
		c1.402,1.587,3.097,3.901,3.538,4.37c0.833,0.886,4.251,5.669,5.548,5.669h6.803c0.207,4.605,0.415,9.21,0.622,13.815
		c0.117,2.602,0.264,5.206,0.365,7.81c-1.493-0.24-3.058-0.082-4.708,0.701c-2.684,1.273-1.915,3.391-0.493,5.252
		c-0.023-0.016-0.046-0.027-0.069-0.044c0.049,0.048,0.099,0.096,0.148,0.145c0.956,1.225,2.175,2.33,2.846,2.992
		c2.366,2.335,6.125,7.919,10.028,5.64c1.666-0.973,1.401-3.966,1.183-6.069c1.362,0.291,2.685,0.852,3.704,1.378
		c2.904,1.5,5.55,3.946,8.12,6.111c-2.652,2.97-4.373,6.867-5.257,10.844c-0.25-0.222-0.504-0.445-0.766-0.668
		c-3.973-3.377-7.969-7.814-13.553-7.721c-6.236,0.104-9.705,6.442-9.959,11.888c-0.29,6.207,3.978,11.392,8.335,15.254
		c2.145,1.902,4.338,3.749,6.554,5.568c0.257,0.211,3.578,2.863,1.837,1.319c-6.239-5.531-9.768-14.611-4.45-21.979
		c2.085-2.889,5.722-4.117,9.142-3.871c0.856,1.684,1.501,3.503,2.174,5.238c0.559,1.444,3.6,3.19,4.73,4.14
		c0.152,0.128,0.723,0.529,1.422,1.03c1.157,0.973,2.314,1.945,3.471,2.917c0.311-6.039,2.118-11.646,6.231-16.02
		c1.701,1.38,3.402,2.759,5.103,4.139c3.292,2.67,6.501,5.746,10.379,7.551c4.03,1.876,7.742-0.43,8.679-4.458
		c0.88-3.785-1.679-7.345-4.315-9.719c-6.181-5.566-12.476-12.293-21.499-10.36c-2.939,0.63-5.383,2.048-7.368,3.963l-12.941-10.205
		c-0.109-2.424-0.218-4.848-0.327-7.272c-0.286-6.361-0.573-12.722-0.86-19.083c-0.003-0.07-0.021-0.147-0.052-0.229h15.801
		c0.43,5.01,0.861,6.116,1.291,12.514c0.106,1.569,0.211,3.137,0.316,4.706c0.037,0.55,4.797,2.057,5.685,2.421
		c0.728,0.299,5.877,1.932,5.904,2.332c-0.105-1.569-0.211-3.137-0.316-4.706c-0.539-8.02-1.079-10.418-1.618-17.267h7.412
		c0.44,5.482,0.879,6.535,1.319,13.302c0.106,1.623,0.211,3.247,0.316,4.871c0.037,0.569,4.797,2.129,5.685,2.506
		c0.728,0.309,5.877,1.999,5.904,2.413C154.856,124.242,154.75,122.618,154.645,120.995L154.645,120.995z M131.666,147.254
		c2.566-2.333,5.895-3.567,9.283-3.992c1.28-0.161,2.557-0.001,3.809,0.259c1.485,4.689-1.427,9.689-6.999,8.937
		c0,0-0.005-0.017-0.008-0.025c-2.2-1.508-4.322-3.165-6.415-4.861C131.447,147.466,131.552,147.358,131.666,147.254z"/>
</g>
</svg>
