<?xml version="1.0" encoding="utf-8"?>
<!-- Generator: Adobe Illustrator 17.0.0, SVG Export Plug-In . SVG Version: 6.00 Build 0)  -->
<!DOCTYPE svg PUBLIC "-//W3C//DTD SVG 1.1//EN" "http://www.w3.org/Graphics/SVG/1.1/DTD/svg11.dtd">
<svg version="1.1" id="Layer_1" xmlns="http://www.w3.org/2000/svg" xmlns:xlink="http://www.w3.org/1999/xlink" x="0px" y="0px"
	 width="216px" height="216px" viewBox="0 0 216 216" enable-background="new 0 0 216 216" xml:space="preserve">
<path d="M127.605,76.255c-0.119-0.19-0.326-0.576-0.567-1.027h-55.34c0.315,0.607,0.566,1.087,0.685,1.277
	c0.598,0.956,3.052,6.114,3.983,6.114c7.078,0,14.155,0,21.232,0v29.276H80.711l21.258,24.454c1.53,1.466,4.778,0.689,4.778-1.141
	v-23.105V82.827c4.225,0,12.492-0.208,16.717-0.208c2.656,0,5.312,0,7.968,0C130.755,82.619,128.096,77.039,127.605,76.255z"/>
</svg>
