<?xml version="1.0" encoding="utf-8"?>
<!-- Generator: Adobe Illustrator 17.0.0, SVG Export Plug-In . SVG Version: 6.00 Build 0)  -->
<!DOCTYPE svg PUBLIC "-//W3C//DTD SVG 1.1//EN" "http://www.w3.org/Graphics/SVG/1.1/DTD/svg11.dtd">
<svg version="1.1" id="Layer_1" xmlns="http://www.w3.org/2000/svg" xmlns:xlink="http://www.w3.org/1999/xlink" x="0px" y="0px"
	 width="216px" height="216px" viewBox="0 0 216 216" enable-background="new 0 0 216 216" xml:space="preserve">
<g>
	<path d="M110.324,98.943c-0.997-1.364-2.23-2.554-3.521-3.698c0.067,0.038,0.136,0.071,0.204,0.11
		c-0.099-0.056-0.192-0.124-0.289-0.184c-0.812-0.717-1.643-1.417-2.453-2.131c-2.248-2.476-4.095-5.728-6.9-7.326
		c-13.147-7.489-29.095-2.429-35.727,11.064c-3.299,6.711-2.691,14.48,0.306,21.143c2.859,6.356,9.034,11.377,13.96,16.065
		c9.187,8.745,28.52,14.26,38.903,4.785C127.013,127.632,118.052,109.519,110.324,98.943z M108.653,124.287
		c-3.176,6.804-10.09,9.569-17.255,9.556c-4.468-0.008-9.146-0.506-13.381-1.984c-5.582-1.948-7.397-5.249-8.586-10.905
		c-1.318-6.272,0.443-12.669,3.774-17.994c3.704-5.922,9.964-9.766,16.836-10.78c7.378-1.088,15.686,1.863,18.64,9.267
		C111.403,108.27,111.811,117.521,108.653,124.287z"/>
</g>
</svg>
