<?xml version="1.0" encoding="utf-8"?>
<!-- Generator: Adobe Illustrator 17.0.0, SVG Export Plug-In . SVG Version: 6.00 Build 0)  -->
<!DOCTYPE svg PUBLIC "-//W3C//DTD SVG 1.1//EN" "http://www.w3.org/Graphics/SVG/1.1/DTD/svg11.dtd">
<svg version="1.1" id="Layer_1" xmlns="http://www.w3.org/2000/svg" xmlns:xlink="http://www.w3.org/1999/xlink" x="0px" y="0px"
	 width="216px" height="216px" viewBox="0 0 216 216" enable-background="new 0 0 216 216" xml:space="preserve">
<g>
	<path d="M118.798,97.643c2.191,0,4.382,0,6.573,0c-0.559,0-2.752-3.773-3.157-4.304c-0.493-0.646-2.518-4.135-3.286-4.135
		c-2.191,0-4.382,0-6.572,0c-12.95,0-25.899,0-38.849,0c0.558,0,2.752,3.773,3.157,4.303c0.493,0.646,2.518,4.135,3.286,4.135
		c9.199,0,18.397,0,27.596,0c0,3.666,0,7.207,0,10.677c-0.107-0.029-0.199-0.029-0.274,0.007
		c-6.094,2.987-12.188,5.974-18.282,8.961c-5.06,2.48-10.075,6.655-5.18,11.967c3.26,3.537,6.803,7.599,11.114,9.921
		c3.905,2.103,8.278,3.659,12.622,5.157c0,0.03,0,0.058,0,0.088c0,3.209,0,6.419,0,9.628c0,1.125,3.197,4.091,3.789,4.814
		c0.486,0.593,3.944,3.807,3.944,4.625c0-3.209,0-6.419,0-9.628c0-12.435,0-24.87,0-37.306c0.085-0.042,0.171-0.083,0.256-0.125
		c-0.063,0.031-0.15,0.017-0.256-0.032c0-6.252,0-12.503,0-18.755C116.452,97.643,117.625,97.643,118.798,97.643z M107.436,136.783
		c-0.339-0.269-8.341-3.427-12.009-4.832c-1.833-0.702-3.692-1.339-5.532-2.024c1.135-3.61,3.941-5.543,7.248-7.179
		c3.427-1.694,6.859-3.376,10.293-5.055C107.436,124.056,107.436,130.42,107.436,136.783z"/>
</g>
</svg>
