<?xml version="1.0" encoding="utf-8"?>
<!-- Generator: Adobe Illustrator 17.0.0, SVG Export Plug-In . SVG Version: 6.00 Build 0)  -->
<!DOCTYPE svg PUBLIC "-//W3C//DTD SVG 1.1//EN" "http://www.w3.org/Graphics/SVG/1.1/DTD/svg11.dtd">
<svg version="1.1" id="Layer_1" xmlns="http://www.w3.org/2000/svg" xmlns:xlink="http://www.w3.org/1999/xlink" x="0px" y="0px"
	 width="216px" height="216px" viewBox="0 0 216 216" enable-background="new 0 0 216 216" xml:space="preserve">
<g>
	<path d="M168.957,119.047c-0.548-0.818-1.204-1.579-1.891-2.32c0.286-0.004-1.156-1.451-4.327-4.338
		c-1.849-1.915-3.734-4.069-5.951-5.498c-0.903-0.582-1.835-1.033-2.787-1.393c3.08-4.213,6.16-8.426,9.241-12.639
		c0.932-1.275,2.07-2.478,1.291-4.073c-0.394-0.806-1.129-1.599-1.93-2.351l-5.202-6.082h-1.195h-40.451h-6.545l6.865,8.024h34.671
		c-0.884,1.21-1.769,2.419-2.653,3.629c-3.27,4.473-6.541,8.947-9.812,13.42c-0.012,0.016,8.155,9.285,9.111,9.111
		c4.618-0.84,9.234-1.536,13.888-0.567c0.204,0.042,0.404,0.098,0.603,0.155c0.141,0.462,0.273,0.925,0.383,1.386
		c1.949,8.146-3.978,15.665-11.077,18.802c-8.965,3.962-19.243,0.662-26.981-4.396c-1.642-1.074-3.196-2.294-4.687-3.579
		c-0.196-0.218-0.395-0.431-0.589-0.65c-1.041-1.162-2.063-2.34-3.089-3.514c-3.483-3.987-6.964-7.976-10.445-11.964
		c-1.733-1.985-3.669-3.817-5.541-5.668c-0.912-0.903-1.826-1.805-2.764-2.681c0.319,0.298-1.115-1.06-0.53-0.389
		c9.15,10.48,18.156,21.035,28.283,30.602c9.008,8.509,20.57,15.548,33.395,12.08C169.009,141.241,175.462,128.767,168.957,119.047z
		"/>
</g>
</svg>
