<?xml version="1.0" encoding="utf-8"?>
<!-- Generator: Adobe Illustrator 17.0.0, SVG Export Plug-In . SVG Version: 6.00 Build 0)  -->
<!DOCTYPE svg PUBLIC "-//W3C//DTD SVG 1.1//EN" "http://www.w3.org/Graphics/SVG/1.1/DTD/svg11.dtd">
<svg version="1.1" id="Layer_1" xmlns="http://www.w3.org/2000/svg" xmlns:xlink="http://www.w3.org/1999/xlink" x="0px" y="0px"
	 width="216px" height="216px" viewBox="0 0 216 216" enable-background="new 0 0 216 216" xml:space="preserve">
<g>
	<path d="M127.399,123.524c-2.324-4.249-6.27-7.602-9.647-10.961c-0.775-0.771-1.552-1.54-2.333-2.306
		c-0.152-0.149-0.959-0.923-1.304-1.242c-1.056-1.116-2.19-2.352-3.395-3.125c-5.578-3.575-11.45-5.725-17.712-5.94
		c0.005-0.343,0.005-0.687,0.011-1.031c0.054-2.743-0.722-5.237-0.872-7.938c-0.029-0.52-0.762-1.358-1.673-2.226
		c2.823,0.091,5.65,0.161,8.486,0.161c4.188,0,8.349,0.413,12.532,0.413c3.712,0,8.42-0.765,11.98,0.399
		c0.035,0.083,0.055,0.157,0.055,0.221c0-0.069,0-0.138,0-0.206c0-1.17-4.436-4.541-5.203-5.308c-1.26-1.26-3.555-4.619-5.308-5.203
		c-3.566-1.189-8.304-0.413-12.035-0.413c-4.183,0-8.344-0.408-12.532-0.413c-8.565-0.01-17.055-0.619-25.6-0.619
		c0.999,0,4.508,4.613,5.203,5.308c0.767,0.767,4.138,5.203,5.308,5.203c3.012,0,6.018,0.078,9.022,0.178
		c0.059,0.897,0.093,1.804,0.08,2.73c-0.045,3.394-0.023,6.789,0.099,10.181c-2.693,0.92-4.778,2.375-6.422,5.203
		c-1.612,2.773-0.971,6.656,0.912,9.131c-0.041-0.026-0.085-0.046-0.125-0.073c0.094,0.094,0.188,0.187,0.281,0.281
		c0.131,0.161,0.268,0.316,0.41,0.463c3.054,3.16,6.187,7.28,9.82,9.767c1.51,1.034,3.036,0.82,4.787,0.616
		c2.524-0.294,1.597-3.885,1.521-5.652c-0.135-3.133-0.41-6.231-0.593-9.345c2.349-0.793,4.943-1.113,7.254-1.34
		c4.743-0.466,8.946,0.586,13.418,2.015c1.341,0.428,2.582,1.129,3.812,1.85c4.219,7.148,6.903,16.077,1.264,22.813
		c-7.499,8.957-19.043,4.296-27.205-1.388c-1.795-1.837-3.466-3.452-4.5-4.227c-0.038-0.038-0.076-0.076-0.114-0.114
		c0.019,0.024,0.039,0.049,0.058,0.074c-0.496-0.365-0.84-0.53-0.961-0.409c-0.035,0.035,2.035,2.145,4.347,4.465
		c10.094,11.344,27.869,25.269,39.815,11.001C135.95,139.818,130.808,129.755,127.399,123.524z M123.423,89.639
		c-1.039-1.039-2.079-2.079-3.118-3.118C121.595,87.615,123.042,88.908,123.423,89.639z"/>
</g>
</svg>
