<?xml version="1.0" encoding="utf-8"?>
<!-- Generator: Adobe Illustrator 17.0.0, SVG Export Plug-In . SVG Version: 6.00 Build 0)  -->
<!DOCTYPE svg PUBLIC "-//W3C//DTD SVG 1.1//EN" "http://www.w3.org/Graphics/SVG/1.1/DTD/svg11.dtd">
<svg version="1.1" id="Layer_1" xmlns="http://www.w3.org/2000/svg" xmlns:xlink="http://www.w3.org/1999/xlink" x="0px" y="0px"
	 width="216px" height="216px" viewBox="0 0 216 216" enable-background="new 0 0 216 216" xml:space="preserve">
<g>
	<path d="M127.187,80.659c-0.881,0-4.342-4.644-4.981-5.297c-0.778-0.795-3.973-5.089-5.184-5.089c-22.894,0-45.788,0-68.682,0
		c0.881,0,4.342,4.644,4.981,5.297c0.778,0.795,3.973,5.089,5.184,5.089c2.76,0,5.519,0,8.279,0
		c0.717,20.096,1.477,40.19,2.175,60.287c0.045,1.303,4.156,4.454,4.981,5.297c0.682,0.697,5.15,4.12,5.184,5.089
		c-0.811-23.341-1.715-46.679-2.526-70.02c-0.006-0.184-0.1-0.407-0.248-0.653c3.168,0,6.337,0,9.506,0
		c0.673,4.444,1.671,8.83,2.437,13.183c1.677,9.531,6.708,12.714,12.888,15.402c2.926,1.273,4.783,2.663,7.032,2.049
		c0.142,9.61,0.285,19.22,0.432,28.829c0.019,1.266,4.182,4.481,4.981,5.297c0.658,0.672,5.17,4.159,5.184,5.089
		c-0.357-23.283-0.689-46.566-1.047-69.849C120.904,80.659,124.046,80.659,127.187,80.659z M106.013,92.622
		c-0.609,1.954-1.644,3.754-2.961,5.184c-2.002,2.175-5.589,1.04-6.015-1.914c-0.05-0.35-0.103-0.698-0.16-1.045
		c-0.77-4.734-1.669-9.441-2.36-14.188h12.86C107.379,84.708,107.225,88.735,106.013,92.622z"/>
</g>
</svg>
