<?xml version="1.0" encoding="utf-8"?>
<!-- Generator: Adobe Illustrator 17.0.0, SVG Export Plug-In . SVG Version: 6.00 Build 0)  -->
<!DOCTYPE svg PUBLIC "-//W3C//DTD SVG 1.1//EN" "http://www.w3.org/Graphics/SVG/1.1/DTD/svg11.dtd">
<svg version="1.1" id="Layer_1" xmlns="http://www.w3.org/2000/svg" xmlns:xlink="http://www.w3.org/1999/xlink" x="0px" y="0px"
	 width="216px" height="216px" viewBox="0 0 216 216" enable-background="new 0 0 216 216" xml:space="preserve">
<g>
	<path d="M135.528,91.027c-0.778,0-3.512-3.594-4.053-4.135c-0.598-0.598-3.224-4.053-4.135-4.053c-20.801,0-41.601,0-62.402,0
		c0.778,0,3.512,3.594,4.053,4.135c0.598,0.598,3.224,4.053,4.135,4.053c1.423,0,2.847,0,4.27,0
		c-0.213,6.913,1.648,14.004,5.715,19.614c0.736,1.025,1.533,2.015,2.356,2.987c0.085,0.089,0.163,0.184,0.241,0.279
		c0.102,0.116,0.205,0.238,0.307,0.354c0.157,0.177,0.325,0.368,0.518,0.586c0.03,0.034,0.06,0.068,0.091,0.096
		c0.157,0.171,0.332,0.362,0.507,0.56c1.363,1.521,2.767,3.006,4.12,4.494c2.089,2.301,4.325,4.198,7.222,5.413
		c5.832,2.44,12.056,0.07,16.444-4.004c0.282-0.262,0.55-0.536,0.816-0.811c0,10.898,0,21.795,0,32.693
		c0,0.907,3.455,3.532,4.053,4.13c0.54,0.547,4.137,3.275,4.137,4.053c0-23.482,0-46.964,0-70.445
		C127.791,91.027,131.66,91.027,135.528,91.027z M115.733,91.027c0,1.103,0,2.206,0,3.31c-0.461,3.264-1.365,6.679-2.743,9.862
		c-9.265-0.314-18.53-0.627-27.795-0.941c-0.119-1.701-0.133-3.404-0.054-5.08c0.088-1.814-1.044-4.55-2.412-7.151
		C93.73,91.027,104.732,91.027,115.733,91.027z M96.556,117.694c-2.46,0.171-4.894-0.507-7.091-1.557
		c-0.357-0.17-0.7-0.359-1.028-0.572c-1.558-3-2.497-6.297-2.968-9.66c8.754,0.296,17.509,0.593,26.263,0.889
		C108.553,112.635,103.572,117.202,96.556,117.694z"/>
</g>
</svg>
