<?xml version="1.0" encoding="utf-8"?>
<!-- Generator: Adobe Illustrator 17.0.0, SVG Export Plug-In . SVG Version: 6.00 Build 0)  -->
<!DOCTYPE svg PUBLIC "-//W3C//DTD SVG 1.1//EN" "http://www.w3.org/Graphics/SVG/1.1/DTD/svg11.dtd">
<svg version="1.1" id="Layer_1" xmlns="http://www.w3.org/2000/svg" xmlns:xlink="http://www.w3.org/1999/xlink" x="0px" y="0px"
	 width="216px" height="216px" viewBox="0 0 216 216" enable-background="new 0 0 216 216" xml:space="preserve">
<g>
	<path d="M176.506,88.603l-5.51-8.302h-25.884h-2.361c-3.479,0-6.957,0-10.436,0c-13.572,0-27.144,0-40.716,0h-4.769l8.302,8.302
		h4.84c0.17,0.09,0.323,0.143,0.449,0.143c0.861,0,1.722,0,2.583,0c0,16.784,0,33.567,0,50.351c0,1.006,3.647,3.66,4.323,4.307
		c0.554,0.531,4.499,3.406,4.499,4.138c0-19.4,0-38.799,0-58.199c0-0.161-0.101-0.367-0.26-0.597c3.939,0,7.877,0,11.815,0
		c0,2.325,0,4.649,0,6.974c0,0,0.008,0.032,0.01,0.047c-3.284,0.348-6.542,1.532-9.4,2.854c1.069-0.494,7.432,9.088,8.821,8.445
		c3.441-1.591,6.865-2.66,10.695-2.895c1.571-0.097,3.114,0.172,4.627,0.533c0.293,1.567,0.171,3.203-0.386,4.914
		c-1.251,3.842-5.776,5.034-9.359,5.891c-7.938,1.899-13.675,7.15-11.778,15.563c0.644,2.855,2.771,5.102,4.813,7.136
		c2.938,2.928,5.895,5.99,9.231,8.51c6.818,5.15,16.231,2.857,21.889-2.662c0.16-0.156-8.717-8.547-8.822-8.445
		c-3.453,3.369-7.614,5.272-12.548,5.559c-1.881,0.11-3.724-0.31-5.484-0.897c-0.088-0.252-0.174-0.504-0.257-0.756
		c-1.264-3.805,0.191-8.012,2.602-11.063c2.977-3.766,8.334-4.11,12.675-5.44c4.461-1.367,6.645-4.887,6.408-9.243
		c-0.234-4.29-4.509-7.498-7.41-10.275c-2.412-2.309-4.631-4.537-7.505-6.067c0-2.695,0-5.391,0-8.086
		c0-0.161-0.101-0.367-0.26-0.597c3.612,0,7.223,0,10.835,0c2.603,4.349,5.26,8.652,8.567,12.426
		c0.057,0.105,0.194,0.263,0.42,0.481c1.544,1.712,3.23,3.309,5.12,4.741c3.844,2.912,6.947-1.004,8.532-4.187
		c2.242-4.501,4.37-9.062,6.532-13.604H176.506z M162.009,91.918c-1.504,3.137-2.719,6.962-5.505,9.214
		c-0.972,0.786-2.206,0.776-3.36,0.605c-0.164-0.275-0.326-0.548-0.492-0.814c-2.426-3.911-4.84-7.829-7.282-11.73
		c-0.094-0.149-0.203-0.298-0.32-0.446c2.174,0,4.349,0,6.523,0c-0.087,0-0.207-0.055-0.347-0.143h2.188h10.183
		C163.068,89.708,162.538,90.813,162.009,91.918z"/>
</g>
</svg>
