<?xml version="1.0" encoding="utf-8"?>
<!-- Generator: Adobe Illustrator 17.0.0, SVG Export Plug-In . SVG Version: 6.00 Build 0)  -->
<!DOCTYPE svg PUBLIC "-//W3C//DTD SVG 1.1//EN" "http://www.w3.org/Graphics/SVG/1.1/DTD/svg11.dtd">
<svg version="1.1" id="Layer_1" xmlns="http://www.w3.org/2000/svg" xmlns:xlink="http://www.w3.org/1999/xlink" x="0px" y="0px"
	 width="216px" height="216px" viewBox="0 0 216 216" enable-background="new 0 0 216 216" xml:space="preserve">
<g>
	<path d="M136.992,86.852c-0.245-0.703-1.251-4.495-1.633-4.495c-1.088,0-2.176,0-3.264,0c-6.432,0-12.865,0-19.297,0
		c0.277,0,1.367,4.102,1.568,4.678c0.245,0.703,1.251,4.495,1.632,4.495c1.208,0,2.416,0,3.625,0v20.399c-5.93,0-11.86,0-17.79,0
		c0-6.251,0-12.503,0-18.754c0-0.548,0-1.097,0-1.645h0.001v-4.377c0-2.639-1.305-4.778-2.914-4.778h-2.944
		c-0.683,0-1.365,0-2.048,0c-2.076,0-4.153,0-6.23,0c-1.958,0-3.917,0-5.875,0c0.174,0,2.512,4.093,2.872,4.669
		c0.437,0.701,2.598,4.486,2.838,4.486c0.055,0,0.11,0,0.166,0c1.694,0,3.389,0,5.082,0c0,6.8,0,13.599,0,20.399H82.463
		l19.37,18.578v-9.075v0c0-0.338,0-0.676,0-1.014c0.37,0,0.74,0,1.11,0c5.56,0,11.12,0,16.68,0v26.04l9.319,8.883v-14.258
		c0-14.37,0-28.741,0-43.111c0-1.664,0-3.329,0-4.993c0-0.483,0-0.967,0-1.45c2.118,0,4.236,0,6.353,0c1.088,0,2.176,0,3.265,0
		C138.282,91.53,137.193,87.428,136.992,86.852z"/>
</g>
</svg>
