<?xml version="1.0" encoding="utf-8"?>
<!-- Generator: Adobe Illustrator 17.0.0, SVG Export Plug-In . SVG Version: 6.00 Build 0)  -->
<!DOCTYPE svg PUBLIC "-//W3C//DTD SVG 1.1//EN" "http://www.w3.org/Graphics/SVG/1.1/DTD/svg11.dtd">
<svg version="1.1" id="Layer_1" xmlns="http://www.w3.org/2000/svg" xmlns:xlink="http://www.w3.org/1999/xlink" x="0px" y="0px"
	 width="216px" height="216px" viewBox="0 0 216 216" enable-background="new 0 0 216 216" xml:space="preserve">
<g>
	<g>
		<path d="M69.866,94.353c-0.62,4.811-1.209,9.826,0.837,14.389c1.416,3.157,4.473,5.756,7.066,7.932
			c2.749,2.308,6.35,2.743,9.35,0.686c3.051-2.092,4.295-6.367,2.754-9.698c-0.357-0.773-1.376-1.499-1.97-2.076
			c-0.489-0.476-1.849-1.308-2.129-1.912c2.275,4.917-1.594,11.034-7.011,11.086c-0.654,0.006-1.298-0.164-1.924-0.327
			c-1.817-0.474-3.203-2.562-0.67,0.493c-1.171-1.413-1.839-3.129-2.304-4.879c-1.004-3.781-0.39-7.897,0.101-11.706
			c0.058-0.446-1.694-1.808-1.97-2.076C71.817,96.092,69.842,94.533,69.866,94.353L69.866,94.353z"/>
	</g>
</g>
</svg>
