<?xml version="1.0" encoding="utf-8"?>
<!-- Generator: Adobe Illustrator 17.0.0, SVG Export Plug-In . SVG Version: 6.00 Build 0)  -->
<!DOCTYPE svg PUBLIC "-//W3C//DTD SVG 1.1//EN" "http://www.w3.org/Graphics/SVG/1.1/DTD/svg11.dtd">
<svg version="1.1" id="Layer_1" xmlns="http://www.w3.org/2000/svg" xmlns:xlink="http://www.w3.org/1999/xlink" x="0px" y="0px"
	 width="216px" height="216px" viewBox="0 0 216 216" enable-background="new 0 0 216 216" xml:space="preserve">
<g>
	<g>
		<rect x="104.52" y="78.817" transform="matrix(0.7071 -0.7071 0.7071 0.7071 -26.8237 101.1077)" width="8.231" height="8.231"/>
	</g>
	<g>
		<path d="M135.987,99.733h2.954c-1.066,0-4.813-4.108-5.556-4.725c-0.816-0.683-4.416-4.63-5.666-4.63H78.331
			c1.073,0,4.821,4.1,5.563,4.725c0.816,0.683,4.417,4.63,5.666,4.63h0.177c-2.66,3.358-6.694,5.783-10.773,7.032
			c0.404,0,3.932,4.152,4.255,4.475c0.412,0.419,3.829,4.497,4.446,4.306c1.778-0.536,3.542-1.301,5.195-2.263v10.405v3.516
			c-1.678-0.456-3.449-0.578-4.834-0.084c-0.186,0.059-0.362,0.132-0.529,0.22c-1.026,0.522-1.77,1.46-1.981,2.949
			c0.004,0.027,0.009,0.053,0.013,0.08c-0.451,1.613-0.307,3.411,0.646,4.815c0.909,1.339,2.235,2.299,3.498,3.277
			c0.872,0.676,1.699,1.416,2.592,2.064c0.332,0.241,0.672,0.468,1.028,0.675c1.617,0.941,8.282,4.674,8.282,0.096v-3.498
			c1.984-0.007,3.976,0.007,5.96,0.022c3.505,0.022,7.018,0.066,10.53,0.132c-0.015,1.007-0.022,2.021-0.044,3.028
			c-4.423,1.146-8.605,3.535-8.987,8.73c-0.125,1.661,0.713,3.153,1.779,4.292c2.212,2.388,4.475,4.732,6.746,7.062
			c1.198,1.235,2.205,2.454,3.784,3.138c2.403,1.036,4.27-1.668,4.982-3.586c0.985-2.623,0.588-6.246,0.668-9.009
			c0.015-0.426,0.015-0.852,0.022-1.279c0.074-0.015,0.154-0.044,0.228-0.059c-0.051,0-0.132-0.044-0.228-0.103
			c0.059-2.66,0.074-5.313,0.044-7.973h0.066v-41.886c0-0.103-0.044-0.22-0.11-0.353h7.811c-0.051,0-0.125-0.029-0.206-0.074h1.529
			L135.987,99.733z M118.402,129.362c-5.607-0.147-11.214-0.242-16.828-0.294V99.954h16.828V129.362z"/>
	</g>
</g>
</svg>
