<?xml version="1.0" encoding="utf-8"?>
<!-- Generator: Adobe Illustrator 17.0.0, SVG Export Plug-In . SVG Version: 6.00 Build 0)  -->
<!DOCTYPE svg PUBLIC "-//W3C//DTD SVG 1.1//EN" "http://www.w3.org/Graphics/SVG/1.1/DTD/svg11.dtd">
<svg version="1.1" id="Layer_1" xmlns="http://www.w3.org/2000/svg" xmlns:xlink="http://www.w3.org/1999/xlink" x="0px" y="0px"
	 width="216px" height="216px" viewBox="0 0 216 216" enable-background="new 0 0 216 216" xml:space="preserve">
<g>
	<path d="M127.629,96.058c-1.175,1.112-2.007,2.863-2.91,4.196c-1.118,1.649-2.235,3.299-3.353,4.948
		c-1.08,1.594-2.161,3.189-3.241,4.783c-0.297,0.438-3.393,4.605-3.241,4.783c-3.1-3.647-6.42-7.061-9.742-10.498
		c-3.282-3.395-7.018-8.739-12.311-8.652c-2.97,0.049-5.66,1.775-7.591,3.927c-1.655,1.845-2.539,4.194-2.836,6.632
		c-0.302,2.483,0.468,4.926,0.316,7.39c-0.074-0.084-0.244-0.327-0.36-0.344c0.168,0.024-0.338-0.529-1.528-1.668
		c-1.914-2.048-3.926-4.068-6.05-6.109c-6.843-6.574-17.59-10.837-25.696-3.753c-7.549,6.598-4.053,18.397,1.364,24.921
		c6.64,7.996,22.488,14.583,19.706,12.899c-2.426-1.468-4.9-2.851-7.289-4.381c-3.646-2.335-6.768-4.263-7.598-8.793
		c-0.859-4.691,0.253-9.738,3.166-13.537c2.706-3.527,7.159-4.739,11.441-4.494c4.595,0.263,8.095,2.821,10.999,6.205
		c2.278,2.655,4.258,5.545,6.442,8.274c2.087,2.609,4.604,4.822,7.037,7.097c-0.092-0.145-0.185-0.29-0.277-0.435
		c0.134,0.213,0.267,0.425,0.401,0.638c-1.822-4.19-1.974-9.395-1.485-13.884c0.431-3.957,2.567-7.4,6.034-9.428
		c0.171-0.1,0.345-0.197,0.52-0.291c1.561-0.833,3.311-0.806,5.001-0.587c2.169,0.493,3.231,2.459,4.552,4.031
		c1.727,2.056,3.453,4.114,5.179,6.171c0.488,0.582,3.471,3.456,6.061,5.973c1.275,1.268,2.549,2.536,3.824,3.804
		c0.109,0.122,0.169,0.199,0.159,0.213c4.511-6.657,9.022-13.314,13.533-19.971c0.531-0.786-4.08-4.41-4.573-4.846
		C131.37,99.581,129.335,97.952,127.629,96.058z"/>
</g>
</svg>
