<?xml version="1.0" encoding="utf-8"?>
<!-- Generator: Adobe Illustrator 17.0.0, SVG Export Plug-In . SVG Version: 6.00 Build 0)  -->
<!DOCTYPE svg PUBLIC "-//W3C//DTD SVG 1.1//EN" "http://www.w3.org/Graphics/SVG/1.1/DTD/svg11.dtd">
<svg version="1.1" id="Layer_1" xmlns="http://www.w3.org/2000/svg" xmlns:xlink="http://www.w3.org/1999/xlink" x="0px" y="0px"
	 width="216px" height="216px" viewBox="0 0 216 216" enable-background="new 0 0 216 216" xml:space="preserve">
<g>
	<path d="M138.145,99.363c-0.387-0.447-1.435-1.974-2.482-3.259H70.671c1.08,1.394,2.234,3.092,2.563,3.471
		c0.703,0.812,3.589,5.195,4.683,5.195c3.128,0,6.256,0,9.384,0c0,14.591,0,29.181,0,43.772H74.635l17.079,15.293
		c1.367,1.224,3.539,0.254,3.539-1.581v-2.395v-11.317v-32.939c0.259,0.33,0.504,0.67,0.772,0.994
		c4.18,5.074,9.428,10.723,15.211,13.973c6.099,3.428,12.529,0.838,16.44-4.434c4.368-5.889,4.468-14.398,2.926-21.367
		c0.892,0,1.785,0,2.677,0c3.122,0,6.244,0,9.366,0C141.848,104.771,138.722,100.03,138.145,99.363z M111.925,123.893
		c-2.005,0.591-4.207,0.486-6.195-0.123c-3.484-1.066-5.42-3.977-7.164-6.925c-0.594-1.004-1.161-2.024-1.711-3.053
		c-0.396-0.742-1.602-2.289-1.602-3.118v-5.903c9.397,0,18.794,0,28.191,0C123.355,113.006,120.329,121.415,111.925,123.893z"/>
</g>
</svg>
