<?xml version="1.0" encoding="utf-8"?>
<!-- Generator: Adobe Illustrator 17.0.0, SVG Export Plug-In . SVG Version: 6.00 Build 0)  -->
<!DOCTYPE svg PUBLIC "-//W3C//DTD SVG 1.1//EN" "http://www.w3.org/Graphics/SVG/1.1/DTD/svg11.dtd">
<svg version="1.1" id="Layer_1" xmlns="http://www.w3.org/2000/svg" xmlns:xlink="http://www.w3.org/1999/xlink" x="0px" y="0px"
	 width="216px" height="216px" viewBox="0 0 216 216" enable-background="new 0 0 216 216" xml:space="preserve">
<g>
	<path d="M159.241,145.294c-0.922-2.003-3.797-4.014-5.318-5.535c-1.384-1.384-4.714-3.535-5.535-5.317
		c2.468,5.364-1.787,9.408-6.834,10.405c-6.604,1.305-14.851-3.583-20.81-5.851c-4.972-1.892-9.945-3.785-14.917-5.677
		c-0.41-3.085-0.82-6.17-1.23-9.255c-1.062-7.991-2.124-15.983-3.186-23.974c-0.019-0.144-0.082-0.304-0.162-0.47
		c18.383-0.049,36.767-0.098,55.151-0.147c-0.935,0.002-4.639-4.856-5.318-5.535c-0.827-0.827-4.246-5.321-5.535-5.317
		c-22.168,0.059-44.336,0.118-66.504,0.177c0.935-0.003,4.639,4.856,5.318,5.535c0.828,0.827,4.247,5.321,5.535,5.317
		c0.682-0.002,1.365-0.003,2.047-0.005c0.867,6.52,1.733,13.04,2.599,19.56c0.468,3.52,1.238,7.162,1.33,10.761
		c-3.459-0.634-7.829-0.413-9.03,3.559c-1.097,3.633,2.579,7.046,4.91,9.272c2.629,2.51,5.464,6.196,9.23,6.821
		c2.832,0.47,4.725-2.594,5.507-4.731c0.456-1.245,0.487-2.691,0.362-4.15c0.377,0.053,0.742,0.121,1.087,0.205
		c7.382,1.798,14.701,5.497,21.802,8.199c6.706,2.552,13.899,6.419,21.174,6.67C156.609,156.008,161.841,150.942,159.241,145.294z"
		/>
</g>
</svg>
