<?xml version="1.0" encoding="utf-8"?>
<!-- Generator: Adobe Illustrator 17.0.0, SVG Export Plug-In . SVG Version: 6.00 Build 0)  -->
<!DOCTYPE svg PUBLIC "-//W3C//DTD SVG 1.1//EN" "http://www.w3.org/Graphics/SVG/1.1/DTD/svg11.dtd">
<svg version="1.1" id="Layer_1" xmlns="http://www.w3.org/2000/svg" xmlns:xlink="http://www.w3.org/1999/xlink" x="0px" y="0px"
	 width="216px" height="216px" viewBox="0 0 216 216" enable-background="new 0 0 216 216" xml:space="preserve">
<g>
	<path d="M127.373,102.827c0.002-0.05,0.015-0.102,0.054-0.156c0.1-0.135,0.202-0.275,0.302-0.412h7.81l-0.137-0.13h1.221
		l-8.004-7.455H72.429l1.939,1.806l6.083,5.779h1.188c-0.766,15.154-0.49,30.484-0.162,43.796c0.003,0.143,0.191,0.421,1.095,1.315
		c0.044,0.043,0.073,0.072,0.081,0.081c1.023,1.144,2.049,2.272,2.828,3.126c0.781,0.856,1.812,1.983,2.86,3.109
		c0.369,0.342,1.115,1.07,1.173,1.201l0.111-0.029l0.117-0.003v0l0,0c-0.184-7.489-0.366-16.303-0.326-25.058
		c0.317,0.572,0.622,1.092,0.928,1.579c1.079,1.72,2.376,3.268,3.386,4.425l0.396,0.451c0.283,0.487,3.934,4.476,5.523,6.128
		c1.057,1.124,1.928,2.025,2.743,2.836c2.704,2.69,6.066,4.701,9.721,5.814c1.534,0.467,3.108,0.731,4.678,0.785l0,0
		c5.917,0.202,11.504-2.634,14.946-7.588c2.744-3.949,3.656-9.038,2.501-13.962c-0.554-2.366-1.657-4.654-3.276-6.802
		c-0.46-0.61-0.956-1.19-1.356-1.646l0.001-0.035c0.016-0.472-6.294-7.345-6.932-7.564c-0.456-0.473-0.87-0.89-1.261-1.27
		l0.771-1.295C123.832,108.887,125.535,106.026,127.373,102.827z M122.421,118.306l0.05,0.002c0.777,0.034,1.664,0.115,2.335,0.544
		c0.801,0.511,0.961,1.759,1.174,2.626c0.566,2.304,0.654,4.716,0.283,7.058c-1.137,7.168-7.228,13.108-14.482,14.124
		c-0.9,0.126-1.835,0.174-2.779,0.141c-2.664-0.091-5.53-0.831-8.289-2.141c-1.602-0.76-2.794-1.508-3.598-3.124
		c-0.975-1.96-1.833-3.946-2.504-6.034c-1.211-3.772-1.899-7.685-2.378-11.611c-0.762-6.249-1.17-12.491-1.433-17.634h25.235
		c-0.756,0.973-1.498,1.872-2.219,2.742c-1.739,2.098-3.532,4.265-5.572,7.569c-0.337,0.962-1.098,1.679-1.407,2.676
		c0.006,0.008,0.007,0.015,0.014,0.024c0.008,0.011,0.832,0.989,1.102,1.22c1.02,1.141,2.047,2.27,2.828,3.127
		c0.051,0.056,0.266,0.275,0.571,0.586l0.622,0.633l2.974,3.261l0.078-0.141c0.776-1.397,1.857-2.474,3.05-3.56
		C119.275,119.306,120.722,118.248,122.421,118.306z"/>
</g>
</svg>
