<?xml version="1.0" encoding="utf-8"?>
<!-- Generator: Adobe Illustrator 17.0.0, SVG Export Plug-In . SVG Version: 6.00 Build 0)  -->
<!DOCTYPE svg PUBLIC "-//W3C//DTD SVG 1.1//EN" "http://www.w3.org/Graphics/SVG/1.1/DTD/svg11.dtd">
<svg version="1.1" id="Layer_1" xmlns="http://www.w3.org/2000/svg" xmlns:xlink="http://www.w3.org/1999/xlink" x="0px" y="0px"
	 width="216px" height="216px" viewBox="0 0 216 216" enable-background="new 0 0 216 216" xml:space="preserve">
<g>
	<path d="M157.494,127.131c-1.077-5.507-6.224-11.6-10.208-15.312c-4.389-4.09-10.262-5.962-16.005-4.717
		c-0.545-0.596-1.727-1.723-3.567-3.398c-1.662-1.721-3.356-3.657-5.349-4.942c-0.811-0.523-1.65-0.928-2.505-1.252
		c2.768-3.787,5.537-7.574,8.306-11.361c0.838-1.146,1.86-2.228,1.16-3.661c-0.354-0.725-1.015-1.438-1.735-2.113l-4.676-5.467
		h-1.074h-36.36h-5.883l6.17,7.213h31.165c-0.795,1.087-1.59,2.174-2.385,3.262c-2.94,4.021-5.88,8.042-8.819,12.063
		c-0.011,0.015,7.33,8.346,8.19,8.19c4.151-0.755,8.301-1.381,12.483-0.509c0.183,0.038,0.363,0.088,0.542,0.139
		c0.127,0.415,0.246,0.832,0.345,1.246c1.752,7.323-3.576,14.081-9.956,16.9c-8.058,3.561-17.297,0.595-24.252-3.951
		c-1.476-0.965-2.873-2.062-4.213-3.217c-0.176-0.196-0.355-0.388-0.53-0.584c-0.935-1.044-1.854-2.103-2.777-3.159
		c-3.131-3.584-6.259-7.17-9.389-10.754c-1.558-1.784-3.298-3.431-4.98-5.094c-0.82-0.811-1.642-1.622-2.485-2.41
		c0.287,0.268-1.002-0.953-0.476-0.35c8.224,9.42,16.319,18.907,25.423,27.507c8.097,7.648,18.489,13.976,30.017,10.858
		c7.58-2.05,12.78-9.369,11.871-16.644c4.803-1.53,9.569-1.014,14.105,1.309c0.435,0.223,0.818,0.481,1.146,0.739
		c0.269,0.857,0.463,1.738,0.635,2.622c0.56,2.873,0.059,5.855-0.793,8.607c-4.397,14.208-22.005,12.302-33.091,9.384
		c0.687,0.181,2.561,3.614,3.029,4.213c0.654,0.837,2.234,3.665,3.356,3.958c8.283,2.164,16.825,3.601,24.866-0.15
		C156.024,142.921,158.952,134.586,157.494,127.131z M151.573,118.368C152.272,119.104,152.331,119.496,151.573,118.368
		L151.573,118.368z"/>
</g>
</svg>
