<?xml version="1.0" encoding="utf-8"?>
<!-- Generator: Adobe Illustrator 17.0.0, SVG Export Plug-In . SVG Version: 6.00 Build 0)  -->
<!DOCTYPE svg PUBLIC "-//W3C//DTD SVG 1.1//EN" "http://www.w3.org/Graphics/SVG/1.1/DTD/svg11.dtd">
<svg version="1.1" id="Layer_1" xmlns="http://www.w3.org/2000/svg" xmlns:xlink="http://www.w3.org/1999/xlink" x="0px" y="0px"
	 width="216px" height="216px" viewBox="0 0 216 216" enable-background="new 0 0 216 216" xml:space="preserve">
<g>
	<path d="M142.268,87.471h2.793c-1.008,0-4.551-3.884-5.253-4.468c-0.771-0.646-4.176-4.378-5.357-4.378H87.749
		c1.014,0,4.558,3.877,5.26,4.468c0.772,0.646,4.176,4.378,5.357,4.378h0.167c-2.516,3.175-6.33,5.469-10.187,6.65
		c0.382,0,3.718,3.926,4.023,4.232c0.389,0.396,3.62,4.253,4.204,4.072c1.682-0.507,3.349-1.23,4.913-2.14v9.839v3.324
		c-1.587-0.431-3.261-0.547-4.571-0.08c-0.176,0.056-0.343,0.125-0.5,0.208c-0.97,0.493-1.674,1.381-1.873,2.788
		c0.004,0.025,0.009,0.051,0.013,0.076c-0.426,1.525-0.29,3.225,0.61,4.553c0.859,1.266,2.114,2.174,3.308,3.099
		c0.824,0.639,1.606,1.339,2.451,1.952c0.314,0.227,0.636,0.443,0.972,0.639c1.529,0.889,7.831,4.419,7.831,0.09v-3.308
		c1.876-0.007,3.759,0.007,5.636,0.021c3.314,0.021,6.636,0.063,9.957,0.125c-0.014,0.952-0.021,1.911-0.042,2.863
		c-4.183,1.084-8.137,3.342-8.498,8.255c-0.118,1.57,0.674,2.981,1.682,4.058c2.091,2.258,4.232,4.475,6.379,6.678
		c1.133,1.167,2.085,2.321,3.578,2.967c2.272,0.98,4.037-1.577,4.711-3.391c0.931-2.481,0.556-5.906,0.632-8.519
		c0.014-0.403,0.014-0.806,0.021-1.209c0.07-0.014,0.146-0.042,0.215-0.056c-0.049,0-0.125-0.042-0.215-0.097
		c0.056-2.515,0.07-5.024,0.042-7.539h0.062V88.013c0-0.097-0.042-0.208-0.104-0.334h7.386c-0.049,0-0.118-0.028-0.194-0.07h1.445
		L142.268,87.471z M125.64,115.488c-5.302-0.139-10.604-0.229-15.912-0.278V87.679h15.912V115.488z"/>
</g>
</svg>
