<?xml version="1.0" encoding="utf-8"?>
<!-- Generator: Adobe Illustrator 17.0.0, SVG Export Plug-In . SVG Version: 6.00 Build 0)  -->
<!DOCTYPE svg PUBLIC "-//W3C//DTD SVG 1.1//EN" "http://www.w3.org/Graphics/SVG/1.1/DTD/svg11.dtd">
<svg version="1.1" id="Layer_1" xmlns="http://www.w3.org/2000/svg" xmlns:xlink="http://www.w3.org/1999/xlink" x="0px" y="0px"
	 width="216px" height="216px" viewBox="0 0 216 216" enable-background="new 0 0 216 216" xml:space="preserve">
<g>
	<g>
		<path d="M111.898,79.133c5.384-3.592,13.045-0.519,16.989,3.692c1.209,1.291,2.496,2.527,3.811,3.709
			c0.939,0.843,1.009,0.765,0.148-0.152c-5.496-5.86-11.982-13.749-20.68-13.953c-4.323-0.102-8.059,2.259-9.262,6.457
			c-1.06,3.701,0.628,7.495,2.54,10.797H95.372l4.426,6.717h6.605v40.964l6.717,6.792V96.474l-0.074-0.075h17.822l-4.426-6.717
			h-17.758C107.578,85.776,107.869,81.82,111.898,79.133z"/>
	</g>
</g>
</svg>
