<?xml version="1.0" encoding="utf-8"?>
<!-- Generator: Adobe Illustrator 17.0.0, SVG Export Plug-In . SVG Version: 6.00 Build 0)  -->
<!DOCTYPE svg PUBLIC "-//W3C//DTD SVG 1.1//EN" "http://www.w3.org/Graphics/SVG/1.1/DTD/svg11.dtd">
<svg version="1.1" id="Layer_1" xmlns="http://www.w3.org/2000/svg" xmlns:xlink="http://www.w3.org/1999/xlink" x="0px" y="0px"
	 width="216px" height="216px" viewBox="0 0 216 216" enable-background="new 0 0 216 216" xml:space="preserve">
<g>
	<path d="M119.571,88.746c-0.016-0.045-0.028-0.091-0.044-0.136l-0.12-0.008c-0.655-0.568-1.27-1.066-1.478-1.274
		c-0.462-0.462-3.526-2.793-3.526-3.457c0,3.815,0,7.63,0,11.444c-0.226,1.604-0.577,3.249-1.059,4.877
		c-8.352-0.283-16.704-0.566-25.056-0.848c0.007-0.249,0.015-0.499,0.026-0.747c0.183-3.781-5.848-12.265-5.848-12.265
		c-0.342,1.622-0.569,3.263-0.689,4.866c-0.475,6.298,1.082,12.89,4.807,18.028c0.628,0.874,1.307,1.718,2.009,2.548
		c0.072,0.076,0.139,0.157,0.205,0.238c0.087,0.099,0.174,0.203,0.262,0.302c0.134,0.151,0.278,0.314,0.442,0.5
		c0.026,0.029,0.051,0.058,0.077,0.082c0.134,0.146,0.283,0.309,0.432,0.477c1.163,1.297,2.36,2.563,3.513,3.833
		c1.781,1.962,3.688,3.58,6.158,4.617c4.973,2.081,10.281,0.06,14.023-3.415c0.241-0.224,0.469-0.458,0.697-0.692
		c0,11.031,0,22.062,0,33.093c0,0.777,2.947,3.017,3.457,3.526c0.462,0.462,3.526,2.793,3.526,3.457c0-22.312,0-44.624,0-66.935
		C121.385,90.422,120.469,89.535,119.571,88.746z M98.047,115.241c-2.098,0.146-4.173-0.432-6.047-1.328
		c-0.304-0.145-0.597-0.306-0.877-0.488c-1.882-3.623-2.704-7.75-2.833-11.831c8.103,0.274,16.205,0.549,24.308,0.823
		C110.116,108.983,105.388,114.726,98.047,115.241z"/>
</g>
</svg>
