<?xml version="1.0" encoding="utf-8"?>
<!-- Generator: Adobe Illustrator 17.0.0, SVG Export Plug-In . SVG Version: 6.00 Build 0)  -->
<!DOCTYPE svg PUBLIC "-//W3C//DTD SVG 1.1//EN" "http://www.w3.org/Graphics/SVG/1.1/DTD/svg11.dtd">
<svg version="1.1" id="Layer_1" xmlns="http://www.w3.org/2000/svg" xmlns:xlink="http://www.w3.org/1999/xlink" x="0px" y="0px"
	 width="216px" height="216px" viewBox="0 0 216 216" enable-background="new 0 0 216 216" xml:space="preserve">
<g>
	<path d="M134.207,126.903c-4.293-4.115-9.36-7.1-15.405-4.228c-5.185,2.463-4.521,7.559-1.831,11.197
		c-0.044-0.036-0.085-0.066-0.13-0.104c0.069,0.068,0.138,0.135,0.207,0.203c0.317,0.42,0.655,0.825,1.021,1.198
		c1.13,1.154,2.401,2.663,3.786,4.172c-5.883-0.781-12.347-3.779-16.951-5.599c-3.777-1.493-7.43-3.269-11.017-5.152
		c-0.352-0.185-0.698-0.379-1.045-0.572c-0.061-3.48-0.227-6.96-0.43-10.431c-0.534-9.128-1.718-18.211-3.329-27.213
		c14.958,0,29.915,0,44.873,0c3.496,0,6.991,0,10.487,0c-0.891,0-4.392-6.041-5.038-6.891c-0.328-0.431-1.083-1.655-1.939-2.935
		H64.662c0.931,1.436,1.776,2.829,2.062,3.205c0.787,1.035,4.019,6.62,5.244,6.62c2.791,0,5.582,0,8.373,0
		c0.938,6.889,1.589,13.808,1.94,20.763c0.085,1.671,0.554,6.822,0.185,11.55c-0.181-0.059-0.355-0.129-0.539-0.182
		c-5.219-1.527-11.575,3.704-7.083,8.421c2.495,2.62,5.1,5.15,7.714,7.655c2.343,2.245,3.934,3.958,7.327,2.253
		c2.783-1.399,2.934-5.351,2.971-8.065c2.978,0.656,5.787,2.784,8.326,4.269c3.497,2.046,7.15,3.822,10.85,5.484
		c6.844,3.074,36.332,14.646,33.209-2.492C144.284,134.785,137.442,130.005,134.207,126.903z M128.334,139.047
		c-0.933,0.273-1.921,0.418-2.944,0.47c-0.075-0.087-0.151-0.174-0.231-0.268c0.028-1.585,0.693-3.168,1.841-4.698
		c1.883-2.509,5.114-3.056,8.085-2.813c0.006,0.2,0.008,0.401,0.007,0.602C135.072,135.986,131.424,138.141,128.334,139.047z"/>
</g>
</svg>
