<?xml version="1.0" encoding="utf-8"?>
<!-- Generator: Adobe Illustrator 17.0.0, SVG Export Plug-In . SVG Version: 6.00 Build 0)  -->
<!DOCTYPE svg PUBLIC "-//W3C//DTD SVG 1.1//EN" "http://www.w3.org/Graphics/SVG/1.1/DTD/svg11.dtd">
<svg version="1.1" id="Layer_1" xmlns="http://www.w3.org/2000/svg" xmlns:xlink="http://www.w3.org/1999/xlink" x="0px" y="0px"
	 width="216px" height="216px" viewBox="0 0 216 216" enable-background="new 0 0 216 216" xml:space="preserve">
<g>
	<g>
		<path d="M126.452,126.445v18.335l9.156,9.156V89.246c2.537,0,5.074,0,7.611,0c-0.704,0-3.47-3.85-3.981-4.391
			c-0.622-0.659-3.176-4.219-4.144-4.219c-2.452,0-4.905,0-7.357,0l-0.19-0.207h-1.095v0.207c-16.211,0-32.422,0-48.634,0
			c0.704,0,3.471,3.85,3.981,4.391c0.622,0.659,3.176,4.219,4.144,4.219c2.9,0,5.8,0,8.7,0c0.412,0.417,0.848,0.794,1.328,1.099
			c2.531,1.611,4.971,3.34,7.332,5.21c1.066,0.844,2.096,1.737,3.12,2.636c0.512,0.455,1.014,0.924,1.514,1.393
			c0.115,0.13,0.241,0.272,0.386,0.435c-0.372,0.556-0.865,0.611-1.478,0.168c-0.684-0.157-1.372-0.297-2.062-0.421
			c-1.373-0.263-2.753-0.355-4.146-0.374c-2.365-0.032-4.586,0.725-6.569,2.023c-6.819,4.463-2.673,11.453,2.241,16.807
			c0.811,1.039,2.387,2.705,2.773,2.808c1.33,1.262,2.574,2.341,3.521,3.152C109.311,129.928,119.467,132.148,126.452,126.445z
			 M99.695,120.102c-0.552-0.327-1.086-0.693-1.607-1.076c-0.82-1.454-1.19-3.099-1.277-4.778c-0.189-3.627,2.714-6.249,5.609-7.555
			c3.958-1.786,8.681-0.53,12.669,0.439c-0.032-0.044-0.063-0.088-0.094-0.133c-5.39-6.42-11.258-12.54-17.768-17.753
			c9.661,0,19.322,0,28.983,0c0.082,1.071,0.165,2.141,0.243,3.212v8.218c-0.117,3.058-0.364,6.097-0.814,9.079
			c-1.244,8.232-7.253,13.436-15.169,13.664C106.665,123.529,102.946,122.029,99.695,120.102z"/>
	</g>
</g>
</svg>
