<?xml version="1.0" encoding="utf-8"?>
<!-- Generator: Adobe Illustrator 17.0.0, SVG Export Plug-In . SVG Version: 6.00 Build 0)  -->
<!DOCTYPE svg PUBLIC "-//W3C//DTD SVG 1.1//EN" "http://www.w3.org/Graphics/SVG/1.1/DTD/svg11.dtd">
<svg version="1.1" id="Layer_1" xmlns="http://www.w3.org/2000/svg" xmlns:xlink="http://www.w3.org/1999/xlink" x="0px" y="0px"
	 width="216px" height="216px" viewBox="0 0 216 216" enable-background="new 0 0 216 216" xml:space="preserve">
<g>
	<path d="M130.643,124.062c-3.712-0.739-6.917,0.295-9.631,2.28c0-5.371,0-10.742,0-16.113c0-0.323-0.298-0.796-0.734-1.324
		c7.687,0,15.373,0,23.06,0c2.983,0,5.965,0,8.948,0c-0.76,0-3.747-4.197-4.298-4.787c-0.672-0.719-3.122-5.306-4.168-5.306
		c-10.23,0-20.687,0.218-31.004,0.332c-10.381,0.114-20.755-0.332-31.138-0.332c0.76,0,3.747,4.904,4.298,5.494
		c0.672,0.719,3.429,4.599,4.474,4.599c7.156,0,14.313,0,21.469,0c0,6.524,0,13.047,0,19.571c0,0.102,0.038,0.222,0.091,0.35
		c-1.128-0.88-2.298-1.673-3.521-2.331c-6.579-3.538-14.069-0.919-17.962,5.495c-4.015,6.615-0.552,12.573,3.833,17.376
		c4.462,4.887,9.064,11.407,16.172,10.481c6.229-0.812,9.381-8.224,12.13-14.116c2.343,2.781,4.85,5.418,7.464,8.03
		c5.027,5.024,11.39,7.115,17.069,1.926c5.41-4.943,4.031-13.046-0.23-18.113C142.56,132.338,137.451,125.418,130.643,124.062z
		 M113.301,136.369c-3.21,6.61-6.982,14.77-15.18,13.759c-0.046-0.006-0.091-0.017-0.138-0.024
		c-0.735-3.758,0.941-7.618,3.042-10.494c2.31-3.16,5.897-4.631,9.518-4.937c1.159-0.098,2.319,0.072,3.456,0.326
		C113.757,135.455,113.523,135.912,113.301,136.369z M137.21,146.775c-1.723,1.574-4.327,2.372-6.626,2.418
		c-2.953,0.059-4.441-1.163-5.842-3.58c-0.349-0.602-0.765-1.16-1.217-1.692c0.313-0.637,0.625-1.243,0.939-1.803
		c3.544-6.319,9.869-9.123,16.865-7.894C141.807,139.33,141.182,143.146,137.21,146.775z"/>
</g>
</svg>
