<?xml version="1.0" encoding="utf-8"?>
<!-- Generator: Adobe Illustrator 17.0.0, SVG Export Plug-In . SVG Version: 6.00 Build 0)  -->
<!DOCTYPE svg PUBLIC "-//W3C//DTD SVG 1.1//EN" "http://www.w3.org/Graphics/SVG/1.1/DTD/svg11.dtd">
<svg version="1.1" id="Layer_1" xmlns="http://www.w3.org/2000/svg" xmlns:xlink="http://www.w3.org/1999/xlink" x="0px" y="0px"
	 width="216px" height="216px" viewBox="0 0 216 216" enable-background="new 0 0 216 216" xml:space="preserve">
<path d="M106.402,133.362c-0.112-12.928-0.223-25.855-0.34-38.783c-0.003-0.283-0.005-0.571-0.007-0.854
	c0-0.052-0.009-0.105-0.029-0.157l19.055,0.17c-0.454-0.004-2.221-2.509-2.551-2.858c-0.4-0.428-2.033-2.743-2.658-2.748
	l-13.752-0.122l0.02-2.258c0.008-0.875-0.671-1.594-1.518-1.601l-3.453-0.031c-0.847-0.008-1.539,0.699-1.547,1.574l-0.02,2.258
	l-14.433-0.129c0.454,0.004,2.221,2.504,2.551,2.857c0.399,0.428,2.033,2.743,2.658,2.748l9.099,0.081
	c0.007,0.948,0.019,1.886,0.03,2.819c0.1,10.318,0.203,19.683,0.298,30.53c0.02,2.238,0.041,4.47,0.061,6.708
	c0.008,0.781,2.728,2.817,3.232,3.319c0.263,0.258,5.378,4.799,10.213,9.981C113.203,146.338,106.412,134.479,106.402,133.362z"/>
</svg>
