<?xml version="1.0" encoding="utf-8"?>
<!-- Generator: Adobe Illustrator 17.0.0, SVG Export Plug-In . SVG Version: 6.00 Build 0)  -->
<!DOCTYPE svg PUBLIC "-//W3C//DTD SVG 1.1//EN" "http://www.w3.org/Graphics/SVG/1.1/DTD/svg11.dtd">
<svg version="1.1" id="Layer_1" xmlns="http://www.w3.org/2000/svg" xmlns:xlink="http://www.w3.org/1999/xlink" x="0px" y="0px"
	 width="216px" height="216px" viewBox="0 0 216 216" enable-background="new 0 0 216 216" xml:space="preserve">
<g>
	<g>
		<path d="M135.39,124.821c-2.962-3.557-6.079-7.002-9.272-10.339c-1.007-1.053-2.108-2.189-3.284-3.31
			c2.104-1.388,3.999-3.098,5.552-5.353c3.379-4.908,2.129-10.443-1.386-14.675c-0.547-0.659-1.114-1.323-1.696-1.982
			c-0.111-0.154-0.256-0.339-0.434-0.552c4.503,0.054,9.006,0.108,13.508,0.162c-0.741-0.009-3.742-4.403-4.261-4.986
			c-0.505-0.568-2.36-3.255-3.623-4.343H91.758c1.173,1.325,2.781,3.641,3.148,4.054c0.636,0.714,3.412,4.793,4.451,4.806
			c7.474,0.09,14.948,0.18,22.421,0.27c1.171,7.827-6.706,12.801-13.399,15.711c-1.403,0.209-2.819,0.732-4.235,1.668
			c0.98,1.101,1.959,2.202,2.939,3.303c2.218,2.955,4.983,6.773,5.774,6.489c1.485-0.533,2.959-1.075,4.396-1.675
			c4.608-0.571,9.065,2.315,12.735,5.568c0.627,1.195,1.079,2.465,1.421,3.805c0.84,3.297-0.395,6.741-2.031,9.528
			c-3.67,6.251-11.133,7.767-17.626,6.905c-8.434-1.119-15.603-3.979-12.619-1.461c7.434,6.272,14.21,10.839,24.159,11.54
			c8.766,0.618,17.317-6.017,17.007-15.476C140.176,130.737,137.63,127.511,135.39,124.821z"/>
	</g>
	<path d="M126.497,153.333v-3.192v-1.694h-6.94v1.66c0,0.034,0,0.066,0.033,0.1l-0.054,0.359c-1.465-0.075-3.412,1.351-1.978,2.308
		c0.412,0.275,0.826,0.515,1.265,0.743c0.179,0.092,0.366,0.152,0.555,0.199l25.178,12.393l8.773,5.074
		c0.102-0.237,0.223-0.464,0.371-0.676L126.497,153.333z"/>
</g>
</svg>
