<?xml version="1.0" encoding="utf-8"?>
<!-- Generator: Adobe Illustrator 17.0.0, SVG Export Plug-In . SVG Version: 6.00 Build 0)  -->
<!DOCTYPE svg PUBLIC "-//W3C//DTD SVG 1.1//EN" "http://www.w3.org/Graphics/SVG/1.1/DTD/svg11.dtd">
<svg version="1.1" id="Layer_1" xmlns="http://www.w3.org/2000/svg" xmlns:xlink="http://www.w3.org/1999/xlink" x="0px" y="0px"
	 width="216px" height="216px" viewBox="0 0 216 216" enable-background="new 0 0 216 216" xml:space="preserve">
<g>
	<g>
		<g>
			<path d="M91.388,117.736c1.435-3.525,4.371-5.597,8.11-6.095c0.599-0.08,1.194-0.031,1.784,0.061
				c0.051,0.089,0.111,0.173,0.159,0.265c1.105,1.84,1.237,4.033,0.923,6.093c-0.078,0.51,2.478,1.956,4.392,3.086
				c0.681,0.478,1.361,0.956,2.042,1.434c2.016-3.951,6.493-4.446,10.388-3.352c0.689,0.809,1.197,1.75,1.694,2.681
				c0.765,1.433,1.13,3.011,1.262,4.61l4.625-0.808c-1.902-3.172-5.041-5.53-8.388-7.854c-3.291-2.285-8.271-4.604-12.104-3.342
				c-1.78-1.972-4.215-3.557-6.552-5.113c-5.318-3.543-12.137-2.649-14.768,3.815C84.69,113.866,91.565,117.301,91.388,117.736z"/>
		</g>
	</g>
	<g>
		<g>
			<polygon points="136.14,130.16 89.973,130.16 83.397,123.583 129.563,123.583 			"/>
		</g>
	</g>
</g>
</svg>
