<?xml version="1.0" encoding="utf-8"?>
<!-- Generator: Adobe Illustrator 17.0.0, SVG Export Plug-In . SVG Version: 6.00 Build 0)  -->
<!DOCTYPE svg PUBLIC "-//W3C//DTD SVG 1.1//EN" "http://www.w3.org/Graphics/SVG/1.1/DTD/svg11.dtd">
<svg version="1.1" id="Layer_1" xmlns="http://www.w3.org/2000/svg" xmlns:xlink="http://www.w3.org/1999/xlink" x="0px" y="0px"
	 width="216px" height="216px" viewBox="0 0 216 216" enable-background="new 0 0 216 216" xml:space="preserve">
<path d="M119.146,81.098c-0.146-0.187-0.25-0.32-0.295-0.374c-0.593-0.718-2.188-3.729-3.141-3.729
	c-9.978-0.002-19.912,0.277-29.889,0c-3.03-0.087-6.046,0.177-9.084,0.091c-3.445-0.097-6.892-0.089-10.338-0.091
	c-0.07,0-0.14,0-0.209,0c0.606,0,2.984,3.902,3.424,4.356c0.535,0.553,2.731,3.538,3.563,3.538c3.209,0,6.417,0,9.626,0
	c0,4.606,0,9.211,0,13.817h-8.901l16.016,19.83v-14.079v-5.751v-9.771h-0.077c0-1.349,0-2.697,0-4.046c3.386,0,6.772,0,10.158,0
	v41.398c0,1.571,0,3.141,0,4.712c0,1.238,0,2.476,0,3.714c0,0.984,3.407,3.58,4.039,4.213c0.383,0.384,2.497,2.021,3.574,3.138
	c0.38,0.394,0.63,0.723,0.63,0.91c0-2.809,0-5.617,0-8.426c0-17.751,0-34.303,0-49.659c2.354,0,4.707,0,7.061,0
	c1.113,0,2.226,0,3.34,0c1.005,0,2.574,0.272,3.464-0.094C122.032,84.827,119.955,82.135,119.146,81.098z"/>
</svg>
