<?xml version="1.0" encoding="utf-8"?>
<!-- Generator: Adobe Illustrator 17.0.0, SVG Export Plug-In . SVG Version: 6.00 Build 0)  -->
<!DOCTYPE svg PUBLIC "-//W3C//DTD SVG 1.1//EN" "http://www.w3.org/Graphics/SVG/1.1/DTD/svg11.dtd">
<svg version="1.1" id="Layer_1" xmlns="http://www.w3.org/2000/svg" xmlns:xlink="http://www.w3.org/1999/xlink" x="0px" y="0px"
	 width="216px" height="216px" viewBox="0 0 216 216" enable-background="new 0 0 216 216" xml:space="preserve">
<g>
	<path d="M156.122,92.65h0.899l-1.299-1.299c-0.113-0.352-0.225-0.7-0.335-1.034c-0.299-0.914-1.809-1.96-2.465-2.598
		c-0.51-0.496-2.449-1.739-2.665-2.393c0.09,0.273,0.179,0.55,0.267,0.829l-1.036-1.036H96.612l0.207,0.207H78.9l1.959,1.824
		l6.146,5.839h1.2c-0.774,15.31-0.495,30.798-0.164,44.247c0.003,0.144,0.193,0.425,1.106,1.329
		c0.044,0.044,0.074,0.073,0.082,0.082c1.034,1.156,2.07,2.296,2.857,3.158c0.789,0.865,1.83,2.004,2.889,3.141
		c0.372,0.346,1.127,1.081,1.185,1.213l0.112-0.029l0.118-0.003v0l0,0c-0.186-7.566-0.37-16.471-0.329-25.316
		c0.32,0.578,0.628,1.103,0.937,1.596c1.09,1.738,2.401,3.302,3.421,4.471l0.4,0.456c0.286,0.492,3.975,4.522,5.58,6.191
		c1.068,1.135,1.948,2.046,2.771,2.865c2.732,2.718,6.128,4.75,9.821,5.874c1.55,0.472,3.14,0.738,4.726,0.793h0
		c5.978,0.204,11.623-2.661,15.1-7.666c2.773-3.989,3.694-9.131,2.527-14.106c-0.56-2.39-1.674-4.702-3.31-6.872
		c-0.465-0.616-0.966-1.202-1.37-1.663l0.001-0.036c0.016-0.477-6.359-7.421-7.003-7.642c-0.461-0.478-0.879-0.899-1.273-1.284
		l0.779-1.308c1.663-2.792,3.384-5.682,5.24-8.914c0.002-0.051,0.015-0.103,0.055-0.157c0.101-0.136,0.204-0.278,0.305-0.417h3.365
		c0.242,1.842,0.757,3.625,1.796,5.308c1.502,2.434,4.461,5.242,6.846,6.797c3.11,2.027,6.227,1.587,8.606-1.294
		C157.962,100.676,157.216,96.368,156.122,92.65z M129.407,109.2l0.051,0.002c0.785,0.034,1.681,0.116,2.359,0.55
		c0.809,0.517,0.971,1.777,1.185,2.653c0.571,2.327,0.661,4.764,0.286,7.13c-1.149,7.242-7.302,13.243-14.631,14.27
		c-0.909,0.127-1.854,0.175-2.808,0.143c-2.691-0.092-5.587-0.84-8.374-2.163c-1.618-0.768-2.823-1.523-3.635-3.156
		c-0.985-1.98-1.852-3.987-2.53-6.096c-1.224-3.811-1.919-7.764-2.403-11.73c-0.77-6.313-1.182-12.62-1.448-17.816h25.495
		c-0.764,0.983-1.513,1.891-2.242,2.771c-1.757,2.12-3.568,4.309-5.629,7.647c-0.341,0.972-1.11,1.696-1.421,2.703
		c0.006,0.009,0.007,0.016,0.014,0.025c0.008,0.011,0.84,0.999,1.114,1.233c1.03,1.153,2.068,2.294,2.857,3.159
		c0.052,0.057,0.269,0.278,0.577,0.592l0.628,0.64l3.005,3.295l0.079-0.142c0.783-1.411,1.876-2.5,3.082-3.597
		C126.229,110.21,127.691,109.141,129.407,109.2z M148.408,100.609c-0.962,0.713-2.147,0.85-3.298,0.872
		c-0.392-0.028-0.771-0.109-1.145-0.215c-1.13-2.557-0.997-5.659-0.907-8.409h0.699l-0.222-0.207h8.34
		C152.019,95.662,151.23,98.519,148.408,100.609z"/>
</g>
</svg>
