<?xml version="1.0" encoding="utf-8"?>
<!-- Generator: Adobe Illustrator 17.0.0, SVG Export Plug-In . SVG Version: 6.00 Build 0)  -->
<!DOCTYPE svg PUBLIC "-//W3C//DTD SVG 1.1//EN" "http://www.w3.org/Graphics/SVG/1.1/DTD/svg11.dtd">
<svg version="1.1" id="Layer_1" xmlns="http://www.w3.org/2000/svg" xmlns:xlink="http://www.w3.org/1999/xlink" x="0px" y="0px"
	 width="216px" height="216px" viewBox="0 0 216 216" enable-background="new 0 0 216 216" xml:space="preserve">
<g>
	<path d="M113.466,91.662c-0.605,0-2.979-4.091-3.418-4.666c-0.534-0.701-2.726-4.483-3.557-4.483c-2.372,0-4.743,0-7.114,0
		c-13.717,0-27.434,0-41.151,0l7.41,9.15c9.227,0,18.453,0,27.68,0c0,6.352,0,12.704,0,19.056c-0.018,0-0.035,0-0.053,0
		c-7.918,0-15.836,0-23.753,0l7.41,9.15c5.466,0,10.931,0,16.397,0c0,6.114,0,12.227,0,18.341c0,3.111,0,6.222,0,9.333
		c0,1.09,3.466,3.966,4.109,4.666c0.527,0.575,4.276,3.69,4.276,4.483c0-3.111,0-6.222,0-9.333c0-18.388,0-36.776,0-55.164
		c0-0.147-0.067-0.329-0.179-0.532c1.61,0,3.22,0,4.83,0C108.724,91.662,111.095,91.662,113.466,91.662z"/>
</g>
</svg>
