<?xml version="1.0" encoding="utf-8"?>
<!-- Generator: Adobe Illustrator 17.0.0, SVG Export Plug-In . SVG Version: 6.00 Build 0)  -->
<!DOCTYPE svg PUBLIC "-//W3C//DTD SVG 1.1//EN" "http://www.w3.org/Graphics/SVG/1.1/DTD/svg11.dtd">
<svg version="1.1" id="Layer_1" xmlns="http://www.w3.org/2000/svg" xmlns:xlink="http://www.w3.org/1999/xlink" x="0px" y="0px"
	 width="216px" height="216px" viewBox="0 0 216 216" enable-background="new 0 0 216 216" xml:space="preserve">
<g>
	<g>
		<path d="M137.535,128.889c-3.56,3.473-7.849,5.435-12.935,5.731c-1.939,0.113-3.839-0.32-5.653-0.925
			c-0.091-0.259-0.179-0.52-0.265-0.78c-1.303-3.922,0.197-8.259,2.682-11.404c3.069-3.883,8.591-4.237,13.066-5.608
			c4.599-1.409,6.851-5.038,6.606-9.528c-0.241-4.422-4.648-7.73-7.638-10.592c-2.487-2.381-4.774-4.677-7.737-6.254
			c0-2.779,0-5.557,0-8.336c0-0.166-0.104-0.378-0.268-0.615c6.745,0,13.49,0,20.235,0c-0.09,0-0.214-0.056-0.358-0.148h2.256
			l-8.558-8.558h-2.434c-17.577,0-35.154,0-52.731,0h-4.916l8.558,8.558h4.989c0.175,0.093,0.333,0.148,0.463,0.148
			c0.888,0,1.775,0,2.663,0c0,17.302,0,34.604,0,51.906c0,1.037,3.76,3.773,4.456,4.44c0.571,0.547,4.638,3.511,4.638,4.266
			c0-19.999,0-39.997,0-59.996c0-0.166-0.104-0.378-0.268-0.616c4.06,0,8.12,0,12.18,0c0,2.397,0,4.793,0,7.19
			c0,0.015,0.008,0.033,0.01,0.048c-3.385,0.359-6.744,1.58-9.691,2.943c1.102-0.51,7.661,9.369,9.094,8.706
			c3.547-1.64,7.077-2.742,11.025-2.985c1.62-0.1,3.21,0.177,4.77,0.55c0.302,1.616,0.176,3.301-0.398,5.065
			c-1.29,3.961-5.954,5.19-9.648,6.073c-8.183,1.958-14.098,7.371-12.141,16.043c0.664,2.943,2.857,5.26,4.961,7.357
			c3.028,3.018,6.077,6.175,9.516,8.773c7.028,5.309,16.733,2.945,22.565-2.744C146.794,137.434,137.643,128.783,137.535,128.889z"
			/>
	</g>
</g>
</svg>
