<?xml version="1.0" encoding="utf-8"?>
<!-- Generator: Adobe Illustrator 17.0.0, SVG Export Plug-In . SVG Version: 6.00 Build 0)  -->
<!DOCTYPE svg PUBLIC "-//W3C//DTD SVG 1.1//EN" "http://www.w3.org/Graphics/SVG/1.1/DTD/svg11.dtd">
<svg version="1.1" id="Layer_1" xmlns="http://www.w3.org/2000/svg" xmlns:xlink="http://www.w3.org/1999/xlink" x="0px" y="0px"
	 width="216px" height="216px" viewBox="0 0 216 216" enable-background="new 0 0 216 216" xml:space="preserve">
<g>
	<g>
		<path d="M101.407,121.076c3.017-3.118,6.228-6.244,10.713-6.875c2.334-0.328,4.737,0.096,6.902,0.987
			c1.002,0.413,1.945,0.96,2.838,1.571c0.386,0.264,0.755,0.554,1.117,0.85c0.825,0.763,1.659,1.516,2.379,2.363
			c-1.372-1.614-2.923-3.079-4.428-4.567c-0.023-0.023-0.046-0.045-0.069-0.068c-0.519-0.524-0.771-0.77-0.748-0.729
			c-0.754-0.723-1.528-1.417-2.377-2.036c-2.117-1.543-4.607-2.504-7.214-2.756c-2.678-0.259-5.291,0.43-7.58,1.809
			c-2.229,1.344-4.067,3.262-5.863,5.119C97.021,116.803,101.399,121.085,101.407,121.076z"/>
	</g>
	<g>
		
			<rect x="108.987" y="116.158" transform="matrix(-0.7071 -0.7071 0.7071 -0.7071 106.6315 281.9106)" width="5.428" height="5.428"/>
	</g>
</g>
</svg>
