<?xml version="1.0" encoding="utf-8"?>
<!-- Generator: Adobe Illustrator 17.0.0, SVG Export Plug-In . SVG Version: 6.00 Build 0)  -->
<!DOCTYPE svg PUBLIC "-//W3C//DTD SVG 1.1//EN" "http://www.w3.org/Graphics/SVG/1.1/DTD/svg11.dtd">
<svg version="1.1" id="Layer_1" xmlns="http://www.w3.org/2000/svg" xmlns:xlink="http://www.w3.org/1999/xlink" x="0px" y="0px"
	 width="216px" height="216px" viewBox="0 0 216 216" enable-background="new 0 0 216 216" xml:space="preserve">
<g>
	<g>
		<path d="M119.236,127.512l-0.005-23.037c-2.111-0.007-4.24-0.018-6.369-0.029c-3.339-0.018-6.673-0.036-9.99-0.102
			c-0.921-0.018-5.306-6.94-5.493-7.235l21.87,0.36l-0.018-14.208l-20.74,0.018l-8.787-8.756l51.143-0.033l8.787,8.756L128.02,83.28
			l0.018,14.335c2.739,0.116,6.798,0.524,10.225,2.464c4.1,2.315,8.305,6.369,10.972,10.576c3.887,6.118,2.697,14.357,1.909,19.809
			c-0.338-0.167-7.552-4.804-7.451-5.652l0.175-1.434c0.36-2.919,0.733-5.928,0.571-8.865c-0.3-5.43-3.787-8.945-9.329-9.4
			c-2.184-0.178-4.513-0.313-7.089-0.419l0.018,32.186L119.236,127.512z"/>
		<path d="M140.846,74.51l8.774,8.752H128.02v14.353c3.164,0.156,6.993,0.644,10.234,2.478c4.094,2.315,8.298,6.365,10.965,10.572
			c3.879,6.107,2.695,14.339,1.907,19.794c0,0-0.002,0.011-0.004,0.018c0,0-7.511-4.818-7.411-5.663l0.175-1.434
			c0.36-2.915,0.733-5.928,0.571-8.869c-0.3-5.444-3.792-8.964-9.346-9.418c-2.184-0.178-4.513-0.313-7.091-0.419v32.157
			l-8.771-9.335v-23.022c-2.129-0.025-4.258-0.036-6.387-0.047c-3.337-0.018-6.671-0.036-9.99-0.102
			c-0.921-0.018-5.477-7.228-5.477-7.228h0.005l21.848,0.389V83.262H98.491l-8.774-8.752H140.846 M140.862,74.472h-0.015h-51.13
			h-0.09l0.064,0.064l8.774,8.752l0.011,0.011h0.015h20.721v14.15l-21.81-0.388l-0.069-0.001l0.032,0.058
			c0.186,0.295,4.578,7.227,5.508,7.245c3.321,0.066,6.711,0.084,9.99,0.102c2.081,0.011,4.233,0.022,6.35,0.046v22.986v0.015
			l0.01,0.011l8.77,9.335l0.065,0.068v-0.094v-32.118c2.636,0.108,4.943,0.245,7.051,0.417c5.531,0.453,9.012,3.96,9.312,9.383
			c0.161,2.934-0.21,5.943-0.57,8.853l-0.176,1.444c-0.102,0.858,7.121,5.502,7.428,5.698l0.044,0.028l0.013-0.05l0-0.002
			l0.004-0.02c0.788-5.453,1.978-13.696-1.912-19.82c-2.669-4.21-6.876-8.266-10.978-10.585c-3.415-1.932-7.458-2.343-10.215-2.481
			V83.299h21.564h0.09l-0.064-0.064l-8.774-8.752L140.862,74.472L140.862,74.472z"/>
	</g>
	<path d="M119.47,106.001v13.768c-6.206-0.404-12.411-0.808-18.617-1.212c0.054-3.129-4.774-9.922-4.774-9.922
		c-0.279,1.325-0.464,2.664-0.563,3.973c-0.388,5.141,0.884,10.524,3.924,14.718c0.513,0.714,1.067,1.403,1.64,2.08
		c0.059,0.062,0.113,0.128,0.168,0.194c0.071,0.081,0.142,0.166,0.214,0.246c0.109,0.124,0.227,0.256,0.361,0.408
		c0.021,0.024,0.042,0.047,0.063,0.067c0.109,0.119,0.231,0.252,0.353,0.39c0.949,1.059,1.927,2.093,2.868,3.129
		c1.454,1.602,3.011,2.923,5.028,3.769c3.195,1.337,6.557,0.595,9.335-1.162v19.749l8.548,9.123v-59.317H119.47z M119.47,124.452
		c-2.207,4.16-5.707,7.435-10.67,7.783c-1.713,0.119-3.407-0.353-4.937-1.084c-0.248-0.118-0.487-0.25-0.716-0.398
		c-1.559-3.002-2.219-6.428-2.309-9.809c6.21,0.404,12.421,0.809,18.631,1.213V124.452z"/>
</g>
</svg>
