<?xml version="1.0" encoding="utf-8"?>
<!-- Generator: Adobe Illustrator 17.0.0, SVG Export Plug-In . SVG Version: 6.00 Build 0)  -->
<!DOCTYPE svg PUBLIC "-//W3C//DTD SVG 1.1//EN" "http://www.w3.org/Graphics/SVG/1.1/DTD/svg11.dtd">
<svg version="1.1" id="Layer_1" xmlns="http://www.w3.org/2000/svg" xmlns:xlink="http://www.w3.org/1999/xlink" x="0px" y="0px"
	 width="216px" height="216px" viewBox="0 0 216 216" enable-background="new 0 0 216 216" xml:space="preserve">
<g>
	<path d="M117.722,90.063c-0.447-0.577-1.903-2.996-3.032-4.273H57.95c1.085,1.354,2.67,3.999,3.043,4.48
		c0.615,0.793,3.137,5.074,4.093,5.074c1.697,0,3.395,0,5.092,0c0.549,4.743,1.097,9.486,1.646,14.23
		c0.397,3.438,0.795,6.876,1.193,10.314c-1.695-0.365-3.423-0.518-5.146-0.204c-2.637,0.48-3.371,3.342-1.848,5.313
		c1.651,2.137,3.745,3.885,5.792,5.626c1.941,1.65,3.473,3.204,6.18,3.235c0.922,0.01,1.817-0.257,2.677-0.563
		c1.953-0.694,0.683-4.173,0.459-5.776c2.804,0.565,5.685,1.844,8.081,2.885c6.901,2.998,12.572,9.724,20.789,8.596
		c8.304-1.14,6.885-12.592,6.754-18.227c-0.197-8.52-1.431-16.998-2.662-25.429c2.52,0,5.041,0,7.562,0
		C120.959,95.344,118.227,90.714,117.722,90.063z M107.49,126.976c-2.141,5.794-9.82,4.808-14.306,2.727
		c-2.705-1.255-5.11-3.139-7.619-4.706c-1.6-1-3.291-1.848-5.032-2.592c-0.25-2.16-0.5-4.32-0.75-6.48
		c-0.794-6.86-1.587-13.72-2.38-20.58c9.879,0,19.758,0,29.637,0c0.522,3.997,0.984,8.001,1.297,12.022
		C108.818,113.556,109.691,121.019,107.49,126.976z"/>
</g>
</svg>
