<?xml version="1.0" encoding="utf-8"?>
<!-- Generator: Adobe Illustrator 17.0.0, SVG Export Plug-In . SVG Version: 6.00 Build 0)  -->
<!DOCTYPE svg PUBLIC "-//W3C//DTD SVG 1.1//EN" "http://www.w3.org/Graphics/SVG/1.1/DTD/svg11.dtd">
<svg version="1.1" id="Layer_1" xmlns="http://www.w3.org/2000/svg" xmlns:xlink="http://www.w3.org/1999/xlink" x="0px" y="0px"
	 width="216px" height="216px" viewBox="0 0 216 216" enable-background="new 0 0 216 216" xml:space="preserve">
<g>
	<path d="M101.894,94.258c-0.022-1.615-0.067-3.229-0.167-4.842c-0.122-1.953-0.05-3.696-1.323-5.165
		c-0.937-1.081-2.082-1.913-3.041-2.964c-0.16-0.176-0.579-0.552-1.092-1.014c-1.047-1.147-2.094-2.295-3.142-3.442
		c0.088,2.628,0.175,5.256,0.263,7.884c-0.332,3.806-1.343,7.498-3.037,11.04c-1.636,3.42-4.216,5.79-7.11,6.154
		c0.194-3.484-0.423-7.198-0.97-10.162c-0.259-1.401-3.2-3.688-4.068-4.638c-0.137-0.151-0.606-0.579-1.185-1.117
		c-1.016-1.113-2.032-2.227-3.048-3.34c-0.254,2.99-0.22,5.997-0.153,8.995c0.062,2.768,0.388,6.061-1.284,8.453
		c-1.508,2.158-3.925,3.102-6.354,3.156c-1.21-5.84-1.004-12.309-3.376-17.792c-0.729-1.687-2.892-3.35-4.067-4.638
		c-1.074-1.177-3.582-2.95-4.234-4.457c2.503,5.788,1.849,12.231,3.512,18.257c0.742,2.69,2.306,4.62,3.743,6.841
		c2.099,3.243,4.928,5.637,7.709,8.13c2.862,2.566,6.137,3.589,9.476,1.355c1.868-1.25,2.994-3.033,3.631-5.075
		c1.38,1.448,2.816,2.814,4.319,4.022c2.569,2.066,5.145,1.645,7.341,0.131c0.351,10.525,0.702,21.05,1.052,31.575
		c0.038,1.143,3.393,3.899,4.067,4.638c0.558,0.611,4.205,3.606,4.234,4.457c-0.53-15.9-1.06-31.799-1.59-47.699
		C101.903,100.088,101.934,97.171,101.894,94.258z"/>
</g>
</svg>
