<?xml version="1.0" encoding="utf-8"?>
<!-- Generator: Adobe Illustrator 17.0.0, SVG Export Plug-In . SVG Version: 6.00 Build 0)  -->
<!DOCTYPE svg PUBLIC "-//W3C//DTD SVG 1.1//EN" "http://www.w3.org/Graphics/SVG/1.1/DTD/svg11.dtd">
<svg version="1.1" id="Layer_1" xmlns="http://www.w3.org/2000/svg" xmlns:xlink="http://www.w3.org/1999/xlink" x="0px" y="0px"
	 width="216px" height="216px" viewBox="0 0 216 216" enable-background="new 0 0 216 216" xml:space="preserve">
<g>
	<path d="M136.381,100.514c-0.32-0.447-1.207-2.013-2.072-3.276H82.484c0.886,1.366,1.862,3.103,2.132,3.481
		c0.561,0.783,2.862,5.006,3.735,5.006c1.771,0,3.542,0,5.312,0c0,7.494,0,14.987,0,22.481H83.511l19.059,22.357v-10.92v0
		c0-0.407,0-0.814,0-1.22c0.364,0,0.728,0,1.092,0c5.558,0,11.117,0,16.675,0c0,6.541,0,13.082,0,19.623
		c0,1.055,3.683,3.838,4.364,4.517c0.56,0.557,4.543,3.572,4.543,4.34c0-17.798,0-35.597,0-53.395c0-2.594,0-5.188,0-7.781
		c1.085,0,2.17,0,3.255,0c2.49,0,4.979,0,7.469,0C139.334,105.724,136.841,101.156,136.381,100.514z M120.338,128.205
		c-5.922,0-11.845,0-17.768,0c0-6.616,0-13.231,0-19.847c0-0.878,0-1.756,0-2.634c5.922,0,11.845,0,17.768,0
		C120.338,113.217,120.338,120.711,120.338,128.205z"/>
</g>
</svg>
