<?xml version="1.0" encoding="utf-8"?>
<!-- Generator: Adobe Illustrator 17.0.0, SVG Export Plug-In . SVG Version: 6.00 Build 0)  -->
<!DOCTYPE svg PUBLIC "-//W3C//DTD SVG 1.1//EN" "http://www.w3.org/Graphics/SVG/1.1/DTD/svg11.dtd">
<svg version="1.1" id="Layer_1" xmlns="http://www.w3.org/2000/svg" xmlns:xlink="http://www.w3.org/1999/xlink" x="0px" y="0px"
	 width="216px" height="216px" viewBox="0 0 216 216" enable-background="new 0 0 216 216" xml:space="preserve">
<g>
	<g>
		<g>
			
				<rect x="125.901" y="112.451" transform="matrix(0.7071 -0.7071 0.7071 0.7071 -44.2352 125.8139)" width="7.705" height="7.705"/>
		</g>
		<g>
			
				<rect x="125.901" y="125.978" transform="matrix(0.7071 -0.7071 0.7071 0.7071 -53.8004 129.7759)" width="7.705" height="7.705"/>
		</g>
	</g>
	<g>
		<path d="M126.862,97.156h2.765c-0.997,0-4.505-3.845-5.2-4.423c-0.763-0.64-4.134-4.333-5.303-4.333H72.895
			c1.004,0,4.512,3.838,5.207,4.423c0.764,0.64,4.134,4.333,5.303,4.333h0.165c-2.49,3.143-6.266,5.413-10.084,6.582
			c0.379,0,3.68,3.886,3.983,4.189c0.385,0.392,3.584,4.209,4.162,4.031c1.664-0.502,3.315-1.217,4.863-2.118v9.74v3.291
			c-1.571-0.427-3.228-0.541-4.524-0.079c-0.174,0.055-0.339,0.124-0.495,0.206c-0.961,0.488-1.657,1.367-1.854,2.76
			c0.004,0.025,0.009,0.05,0.012,0.075c-0.422,1.51-0.287,3.193,0.604,4.507c0.851,1.253,2.092,2.152,3.274,3.068
			c0.816,0.632,1.59,1.325,2.426,1.932c0.31,0.225,0.629,0.438,0.962,0.632c1.513,0.88,7.752,4.375,7.752,0.089v-3.274
			c1.857-0.007,3.721,0.007,5.578,0.021c3.281,0.021,6.569,0.062,9.856,0.124c-0.014,0.942-0.02,1.892-0.041,2.834
			c-4.14,1.073-8.054,3.308-8.412,8.171c-0.117,1.554,0.667,2.951,1.665,4.017c2.07,2.235,4.189,4.43,6.314,6.61
			c1.121,1.156,2.063,2.297,3.542,2.937c2.249,0.97,3.996-1.561,4.664-3.357c0.922-2.456,0.55-5.847,0.626-8.433
			c0.014-0.399,0.014-0.798,0.021-1.197c0.069-0.014,0.144-0.041,0.213-0.055c-0.048,0-0.124-0.041-0.213-0.096
			c0.055-2.49,0.069-4.973,0.041-7.463h0.062V97.693c0-0.096-0.041-0.206-0.103-0.33h7.311c-0.048,0-0.117-0.028-0.192-0.069h1.431
			L126.862,97.156z M110.402,124.889c-5.248-0.138-10.496-0.227-15.751-0.275V97.362h15.751V124.889z"/>
	</g>
</g>
</svg>
