<?xml version="1.0" encoding="utf-8"?>
<!-- Generator: Adobe Illustrator 17.0.0, SVG Export Plug-In . SVG Version: 6.00 Build 0)  -->
<!DOCTYPE svg PUBLIC "-//W3C//DTD SVG 1.1//EN" "http://www.w3.org/Graphics/SVG/1.1/DTD/svg11.dtd">
<svg version="1.1" id="Layer_1" xmlns="http://www.w3.org/2000/svg" xmlns:xlink="http://www.w3.org/1999/xlink" x="0px" y="0px"
	 width="216px" height="216px" viewBox="0 0 216 216" enable-background="new 0 0 216 216" xml:space="preserve">
<g>
	<g>
		<g>
			<path d="M134.446,117.728c-3.307-3.271-6.165-5.847-11.031-6.244c-4.929-0.402-9.575,2.679-12.109,6.696
				c-0.48,0.761,7.529,6.704,7.21,7.21c3.4-5.39,9.543-7.815,15.618-6.02c0.427,1.413,0.418,2.923,0.252,4.376
				c-0.366,3.2-2.942,5.682-5.534,7.262c-6.101,3.719-14.621,1.574-20.886-0.578c-3.345-1.149-6.507-2.781-9.512-4.632
				c-1.571-0.969-11.098-9.559-13.08-12.237c5.252,7.097,12.087,13.908,19.4,18.871c7.978,5.414,20.049,9.952,29.582,6.595
				c4.381-1.543,7.344-5.505,7.362-10.122C141.735,124.161,137.497,120.746,134.446,117.728z"/>
		</g>
	</g>
	<g>
		<g>
			<path d="M89.105,114.141c-0.453-5.596,2.196-10.458,7.587-12.371c6.135-2.177,12.795,1.197,18.09,3.978
				c5.799,3.046,11.874,6.105,18.581,4.452c5.146-1.268,8.631-7.266,6.359-12.169c-0.624-1.347-2.548-2.694-3.572-3.718
				c-0.933-0.933-3.162-2.373-3.718-3.572c2.213,4.775-0.847,9.75-5.303,11.804c-6.044,2.786-13.239-0.737-18.557-3.516
				c-5.75-3.004-11.497-6.01-18.177-4.809c-6.015,1.081-9.04,6.967-8.581,12.632c0.079,0.973,2.936,3.082,3.572,3.718
				C85.918,111.099,89.045,113.398,89.105,114.141z"/>
		</g>
	</g>
</g>
</svg>
