<?xml version="1.0" encoding="utf-8"?>
<!-- Generator: Adobe Illustrator 17.0.0, SVG Export Plug-In . SVG Version: 6.00 Build 0)  -->
<!DOCTYPE svg PUBLIC "-//W3C//DTD SVG 1.1//EN" "http://www.w3.org/Graphics/SVG/1.1/DTD/svg11.dtd">
<svg version="1.1" id="Layer_1" xmlns="http://www.w3.org/2000/svg" xmlns:xlink="http://www.w3.org/1999/xlink" x="0px" y="0px"
	 width="216px" height="216px" viewBox="0 0 216 216" enable-background="new 0 0 216 216" xml:space="preserve">
<g>
	<path d="M158.346,83.303h-14.538l-0.031-0.034h-3.043v0.034H94.851l0.361,0.334c-0.136,0-0.272,0-0.409,0
		c0.619,0,3.048,3.495,3.497,3.987c0.547,0.599,2.789,3.83,3.64,3.83c0.58,0,1.161,0,1.741,0l0.214,0.198h36.839v14.186
		c-0.285-0.244-0.543-0.437-0.731-0.533c-1.608-1.756-3.339-3.365-5.487-4.211c-6.999-2.76-12.332,4.475-11.59,11.288
		c-1.15-1.33-2.342-2.639-3.579-3.952c-3.916-4.156-8.213-7.055-13.869-6.351c-6.326,0.787-9.301,7.001-8.366,13.44
		c0.998,6.871,6.7,12.227,10.931,16.893c1.277,1.408,2.531,2.88,3.903,4.18c-0.109-0.103-1.623-1.943-2.114-2.485
		c-3.481-3.839-6.231-8.269-6.676-13.762c-0.372-4.584,1.905-8.536,5.601-10.474c3.114-1.633,6.909-1.253,10.047,0.025
		c0.819,0.333,1.575,0.838,2.323,1.321c0.086,0.059,0.166,0.126,0.25,0.186c0.913,1.405,1.718,2.899,2.486,4.401
		c0.117,0.251,0.244,0.499,0.382,0.743c0.741,1.302,2.096,2.433,3.075,3.506c0.27,0.296,0.625,0.62,1.001,0.958
		c0.733,0.803,1.466,1.606,2.2,2.41c-2.926-5.144-1.622-11.529,3.166-14.614c2.099-1.352,4.654-1.481,6.965-0.871
		c0.034,0.132,0.052,0.27,0.081,0.404v36.337l8.349,9.226V91.651h18.307L158.346,83.303z"/>
</g>
</svg>
