<?xml version="1.0" encoding="utf-8"?>
<!-- Generator: Adobe Illustrator 17.0.0, SVG Export Plug-In . SVG Version: 6.00 Build 0)  -->
<!DOCTYPE svg PUBLIC "-//W3C//DTD SVG 1.1//EN" "http://www.w3.org/Graphics/SVG/1.1/DTD/svg11.dtd">
<svg version="1.1" id="Layer_1" xmlns="http://www.w3.org/2000/svg" xmlns:xlink="http://www.w3.org/1999/xlink" x="0px" y="0px"
	 width="216px" height="216px" viewBox="0 0 216 216" enable-background="new 0 0 216 216" xml:space="preserve">
<g>
	<g>
		<path d="M130.917,122.117c-0.336-1.242-1.227-2.152-2.092-3.047c-1.041-1.078-2.145-2.272-3.473-2.995
			c0.597,0.324,1.313,1.421,2.097,2.246c0.097,0.22,0.179,0.448,0.261,0.675c0.298,0.851,0.298,1.776,0.205,2.66
			c-0.213,1.951-1.619,3.402-3.298,4.241c-1.794,0.899-3.965,0.776-5.8,0.119c-0.351-0.127-0.683-0.336-0.918-0.503
			c-0.172-0.284-0.328-0.575-0.481-0.862c-0.272-0.519-0.485-1.059-0.649-1.619v-0.004l0,0l0,0c-0.03-0.735-0.198-1.459-0.511-2.138
			c-0.28-0.604-1.078-1.171-1.54-1.623c-0.384-0.373-1.447-1.022-1.668-1.496c0.116,0.254,0.213,0.511,0.287,0.772
			c0.004,0.009,0.006,0.02,0.009,0.03l0.009,0.03c0.112,0.384,0.175,0.772,0.198,1.164c0.004,0.004,0.004,0.004,0.004,0.008l0,0
			c0.216,3.324-2.47,6.632-5.991,6.666c-0.511,0.007-1.014-0.127-1.503-0.254c-0.47-0.123-0.903-0.381-1.197-0.586
			c-0.519-0.88-0.866-1.858-1.13-2.846c-0.783-2.954-0.302-6.173,0.082-9.154c0.045-0.351-1.328-1.414-1.541-1.623
			c-0.142-0.138-1.667-1.339-1.667-1.492c-0.485,3.76-0.944,7.68,0.653,11.251c0.858,1.917,2.492,3.566,4.129,5.006
			c0.47,0.418,0.944,0.817,1.399,1.197c2.152,1.805,4.965,2.145,7.311,0.537c1.28-0.877,2.156-2.249,2.503-3.73
			c0.586,0.642,1.22,1.261,1.888,1.88c2.417,2.249,5.036,3.596,8.412,2.731C130.182,128.518,131.756,125.258,130.917,122.117z"/>
	</g>
</g>
</svg>
