<?xml version="1.0" encoding="utf-8"?>
<!-- Generator: Adobe Illustrator 17.0.0, SVG Export Plug-In . SVG Version: 6.00 Build 0)  -->
<!DOCTYPE svg PUBLIC "-//W3C//DTD SVG 1.1//EN" "http://www.w3.org/Graphics/SVG/1.1/DTD/svg11.dtd">
<svg version="1.1" id="Layer_1" xmlns="http://www.w3.org/2000/svg" xmlns:xlink="http://www.w3.org/1999/xlink" x="0px" y="0px"
	 width="216px" height="216px" viewBox="0 0 216 216" enable-background="new 0 0 216 216" xml:space="preserve">
<g>
	<g>
		<path d="M99.21,88.65c4.454-4.604,9.194-9.218,15.816-10.15c3.446-0.485,6.994,0.141,10.189,1.457
			c1.48,0.609,2.872,1.417,4.19,2.32c0.57,0.39,1.114,0.818,1.649,1.255c1.217,1.126,2.449,2.238,3.513,3.489
			c-2.026-2.382-4.316-4.546-6.537-6.742c-0.034-0.033-0.068-0.066-0.102-0.1c-0.767-0.774-1.139-1.137-1.105-1.076
			c-1.113-1.067-2.256-2.092-3.51-3.006c-3.125-2.278-6.802-3.697-10.65-4.069c-3.954-0.382-7.812,0.635-11.191,2.671
			c-3.291,1.984-6.004,4.816-8.656,7.558C92.734,82.342,99.197,88.664,99.21,88.65z"/>
	</g>
	<g>
		<rect x="110.4" y="81.389" transform="matrix(-0.7071 -0.7071 0.7071 -0.7071 134.9215 226.6777)" width="8.013" height="8.013"/>
	</g>
	<g>
		<path d="M141.033,100.082h2.876c-1.037,0-4.686-3.999-5.408-4.6c-0.794-0.665-4.299-4.507-5.516-4.507H84.904
			c1.044,0,4.693,3.992,5.415,4.6c0.794,0.665,4.3,4.507,5.516,4.507h0.172c-2.59,3.269-6.517,5.63-10.488,6.846
			c0.394,0,3.827,4.042,4.142,4.357c0.401,0.408,3.727,4.378,4.328,4.192c1.731-0.522,3.448-1.266,5.058-2.203v10.13v3.423
			c-1.634-0.444-3.357-0.563-4.706-0.082c-0.181,0.057-0.353,0.129-0.515,0.214c-0.999,0.508-1.723,1.422-1.928,2.871
			c0.004,0.026,0.009,0.052,0.013,0.078c-0.439,1.57-0.299,3.321,0.628,4.687c0.885,1.304,2.176,2.238,3.405,3.191
			c0.848,0.658,1.654,1.379,2.523,2.009c0.323,0.234,0.655,0.456,1.001,0.657c1.574,0.916,8.062,4.55,8.062,0.093v-3.405
			c1.932-0.007,3.87,0.007,5.802,0.021c3.412,0.021,6.832,0.064,10.251,0.129c-0.014,0.98-0.021,1.967-0.043,2.947
			c-4.306,1.116-8.377,3.441-8.749,8.499c-0.122,1.617,0.694,3.069,1.732,4.178c2.153,2.325,4.357,4.607,6.567,6.875
			c1.166,1.202,2.146,2.389,3.684,3.055c2.339,1.009,4.156-1.624,4.85-3.491c0.958-2.554,0.572-6.081,0.651-8.771
			c0.015-0.415,0.015-0.83,0.022-1.245c0.072-0.014,0.15-0.043,0.222-0.057c-0.05,0-0.129-0.043-0.222-0.1
			c0.057-2.59,0.072-5.172,0.043-7.762h0.064V100.64c0-0.1-0.043-0.215-0.107-0.343h7.604c-0.05,0-0.122-0.029-0.2-0.072h1.488
			L141.033,100.082z M123.914,128.926c-5.458-0.143-10.917-0.236-16.382-0.286v-28.343h16.382V128.926z"/>
	</g>
</g>
</svg>
