<?xml version="1.0" encoding="utf-8"?>
<!-- Generator: Adobe Illustrator 17.0.0, SVG Export Plug-In . SVG Version: 6.00 Build 0)  -->
<!DOCTYPE svg PUBLIC "-//W3C//DTD SVG 1.1//EN" "http://www.w3.org/Graphics/SVG/1.1/DTD/svg11.dtd">
<svg version="1.1" id="Layer_1" xmlns="http://www.w3.org/2000/svg" xmlns:xlink="http://www.w3.org/1999/xlink" x="0px" y="0px"
	 width="144px" height="144px" viewBox="0 0 144 144" enable-background="new 0 0 144 144" xml:space="preserve">
<g>
	<path d="M85.231,66.646C78.658,72.806,71.68,78.96,62.316,79.811c-4.874,0.443-9.814-0.681-14.211-2.749
		c-2.036-0.958-3.936-2.189-5.725-3.547c-0.774-0.588-1.509-1.225-2.23-1.876c-1.632-1.666-3.285-3.313-4.693-5.143
		c2.681,3.486,5.748,6.683,8.717,9.921c0.045,0.049,0.091,0.098,0.136,0.147c1.024,1.14,1.521,1.675,1.477,1.588
		c1.49,1.575,3.025,3.094,4.722,4.465c4.232,3.416,9.299,5.662,14.678,6.45c5.528,0.809,11.016-0.352,15.903-2.98
		c4.759-2.559,8.766-6.351,12.68-10.018C93.891,75.954,85.25,66.629,85.231,66.646z"/>
	<path d="M74.743,57.413c-5.5,5.154-11.338,10.303-19.173,11.015c-4.078,0.371-8.211-0.569-11.891-2.3
		c-1.704-0.801-3.293-1.832-4.79-2.968c-0.648-0.492-1.263-1.025-1.866-1.57c-1.366-1.394-2.749-2.772-3.927-4.303
		c2.243,2.917,4.809,5.592,7.294,8.301c0.038,0.041,0.076,0.082,0.114,0.123c0.856,0.954,1.273,1.402,1.236,1.329
		c1.247,1.318,2.531,2.589,3.951,3.736c3.541,2.858,7.78,4.738,12.281,5.396c4.625,0.677,9.217-0.295,13.306-2.493
		c3.982-2.141,7.335-5.314,10.609-8.382C81.989,65.2,74.759,57.398,74.743,57.413z"/>
</g>
</svg>
