<?xml version="1.0" encoding="utf-8"?>
<!-- Generator: Adobe Illustrator 17.0.0, SVG Export Plug-In . SVG Version: 6.00 Build 0)  -->
<!DOCTYPE svg PUBLIC "-//W3C//DTD SVG 1.1//EN" "http://www.w3.org/Graphics/SVG/1.1/DTD/svg11.dtd">
<svg version="1.1" id="Layer_1" xmlns="http://www.w3.org/2000/svg" xmlns:xlink="http://www.w3.org/1999/xlink" x="0px" y="0px"
	 width="144px" height="144px" viewBox="0 0 144 144" enable-background="new 0 0 144 144" xml:space="preserve">
<path d="M104.401,80.715c-0.356,0.036-2.901-3.084-3.224-3.398c-0.652-0.634-2.486-3.046-3.485-3.13
	c-3.766-0.314-7.593-0.299-11.412-0.239c-1.156-5.501-4.245-10.565-8.172-14.569c-6.203-6.326-12.473-11.954-21.977-9.944
	c0.244-0.052,3.025,3.211,3.297,3.475c0.455,0.443,2.829,3.322,3.564,3.201c2.886-0.476,5.6-0.516,8.46,0.142
	c1.446,0.333,2.812,0.981,4.102,1.7c3.179,4.782,3.985,10.43,4.137,16.089c-0.316,0.002-0.634,0.006-0.95,0.006
	c-6.214,0.001-12.456-0.162-18.664,0.141c0.417-0.02,2.866,3.05,3.221,3.396c0.615,0.599,2.528,3.085,3.482,3.128
	c4.324,0.191,8.661,0.184,12.995,0.162c-0.091,3.335-0.242,6.673,0.02,9.988c0.072,0.91,2.462,2.643,3.051,3.216
	c0.294,0.286,3.855,2.729,3.826,3.045c0.495-5.307-0.145-10.92,0.168-16.262C92.656,80.912,98.641,81.295,104.401,80.715z"/>
</svg>
