<?xml version="1.0" encoding="utf-8"?>
<!-- Generator: Adobe Illustrator 17.0.0, SVG Export Plug-In . SVG Version: 6.00 Build 0)  -->
<!DOCTYPE svg PUBLIC "-//W3C//DTD SVG 1.1//EN" "http://www.w3.org/Graphics/SVG/1.1/DTD/svg11.dtd">
<svg version="1.1" id="Layer_1" xmlns="http://www.w3.org/2000/svg" xmlns:xlink="http://www.w3.org/1999/xlink" x="0px" y="0px"
	 width="144px" height="144px" viewBox="0 0 144 144" enable-background="new 0 0 144 144" xml:space="preserve">
<path d="M89.853,80.721c-0.652-0.634-2.486-3.046-3.485-3.13c-1.802-0.15-3.618-0.221-5.44-0.252
	c-1.065-5.702-4.224-10.959-8.274-15.089c-6.203-6.326-12.473-11.954-21.977-9.944c0.244-0.052,3.025,3.211,3.297,3.475
	c0.455,0.443,2.829,3.322,3.564,3.201c2.886-0.476,5.6-0.516,8.46,0.142c1.446,0.333,2.812,0.981,4.102,1.7
	c3.209,4.827,4.001,10.537,4.143,16.249c0.002,0.087,0.034,0.185,0.079,0.289c-2.31,0.039-4.616,0.09-6.903,0.091
	c-6.214,0.001-12.456-0.162-18.664,0.141c0.417-0.02,2.866,3.05,3.221,3.396c0.615,0.599,2.528,3.085,3.482,3.128
	c6.307,0.279,12.64,0.139,18.952,0.141c6.157,0.001,12.541,0.479,18.666-0.138C92.72,84.155,90.176,81.035,89.853,80.721z"/>
</svg>
