<?xml version="1.0" encoding="utf-8"?>
<!-- Generator: Adobe Illustrator 17.0.0, SVG Export Plug-In . SVG Version: 6.00 Build 0)  -->
<!DOCTYPE svg PUBLIC "-//W3C//DTD SVG 1.1//EN" "http://www.w3.org/Graphics/SVG/1.1/DTD/svg11.dtd">
<svg version="1.1" id="Layer_1" xmlns="http://www.w3.org/2000/svg" xmlns:xlink="http://www.w3.org/1999/xlink" x="0px" y="0px"
	 width="144px" height="144px" viewBox="0 0 144 144" enable-background="new 0 0 144 144" xml:space="preserve">
<path d="M84.999,87.492c-6.631-6.098-13.665-12.187-23.037-12.95c-4.878-0.397-9.807,0.772-14.185,2.882
	c-2.027,0.977-3.915,2.226-5.692,3.6c-0.769,0.595-1.497,1.239-2.213,1.897c-1.617,1.681-3.254,3.344-4.645,5.187
	c2.648-3.511,5.686-6.737,8.624-10.002c0.045-0.05,0.09-0.099,0.135-0.148c1.013-1.149,1.506-1.689,1.462-1.602
	c1.475-1.589,2.996-3.123,4.68-4.509c4.2-3.455,9.245-5.749,14.617-6.586c5.52-0.861,11.019,0.249,15.93,2.831
	c4.783,2.515,8.825,6.269,12.773,9.899C93.572,78.104,85.018,87.51,84.999,87.492z"/>
</svg>
