<?xml version="1.0" encoding="utf-8"?>
<!-- Generator: Adobe Illustrator 17.0.0, SVG Export Plug-In . SVG Version: 6.00 Build 0)  -->
<!DOCTYPE svg PUBLIC "-//W3C//DTD SVG 1.1//EN" "http://www.w3.org/Graphics/SVG/1.1/DTD/svg11.dtd">
<svg version="1.1" id="Layer_1" xmlns="http://www.w3.org/2000/svg" xmlns:xlink="http://www.w3.org/1999/xlink" x="0px" y="0px"
	 width="144px" height="144px" viewBox="0 0 144 144" enable-background="new 0 0 144 144" xml:space="preserve">
<g>
	<path d="M94.895,77.409c-7.126-5.511-14.654-10.978-24.057-10.941c-4.894,0.02-9.706,1.605-13.888,4.08
		c-1.937,1.146-3.711,2.551-5.364,4.072c-0.715,0.658-1.386,1.362-2.043,2.079c-1.467,1.813-2.958,3.609-4.186,5.564
		c2.339-3.724,5.091-7.197,7.741-10.7c0.04-0.053,0.081-0.106,0.122-0.159c0.911-1.231,1.356-1.812,1.32-1.72
		c1.335-1.709,2.719-3.366,4.279-4.891c3.89-3.8,8.722-6.516,14.003-7.808c5.427-1.328,11-0.69,16.113,1.464
		c4.98,2.098,9.327,5.494,13.57,8.775C102.637,67.325,94.916,77.425,94.895,77.409z"/>
	<path d="M85.327,87.593c-5.962-4.611-12.261-9.185-20.128-9.154c-4.095,0.016-8.121,1.343-11.62,3.413
		c-1.62,0.959-3.105,2.135-4.488,3.407c-0.598,0.551-1.16,1.14-1.709,1.739c-1.228,1.517-2.475,3.019-3.502,4.655
		c1.957-3.116,4.26-6.021,6.477-8.953c0.034-0.045,0.068-0.089,0.102-0.133c0.762-1.03,1.135-1.516,1.105-1.439
		c1.117-1.43,2.275-2.817,3.58-4.092c3.255-3.18,7.298-5.452,11.716-6.533c4.54-1.111,9.204-0.578,13.482,1.225
		c4.167,1.755,7.804,4.597,11.354,7.342C91.804,79.155,85.344,87.606,85.327,87.593z"/>
</g>
</svg>
