<?xml version="1.0" encoding="utf-8"?>
<!-- Generator: Adobe Illustrator 17.0.0, SVG Export Plug-In . SVG Version: 6.00 Build 0)  -->
<!DOCTYPE svg PUBLIC "-//W3C//DTD SVG 1.1//EN" "http://www.w3.org/Graphics/SVG/1.1/DTD/svg11.dtd">
<svg version="1.1" id="Layer_1" xmlns="http://www.w3.org/2000/svg" xmlns:xlink="http://www.w3.org/1999/xlink" x="0px" y="0px"
	 width="144px" height="144px" viewBox="0 0 144 144" enable-background="new 0 0 144 144" xml:space="preserve">
<path d="M98.674,73.101c-6.918,5.77-14.239,11.511-23.637,11.821c-4.891,0.161-9.758-1.246-14.029-3.565
	c-1.978-1.074-3.803-2.413-5.511-3.872c-0.739-0.631-1.436-1.31-2.118-2.002c-1.533-1.757-3.089-3.497-4.388-5.406
	c2.475,3.635,5.353,7.004,8.13,10.408c0.042,0.052,0.085,0.103,0.128,0.155c0.956,1.197,1.422,1.76,1.383,1.67
	c1.397,1.659,2.841,3.264,4.457,4.73c4.028,3.654,8.956,6.189,14.281,7.286c5.472,1.127,11.018,0.284,16.048-2.057
	c4.899-2.28,9.118-5.834,13.237-9.27C106.783,82.892,98.694,73.084,98.674,73.101z"/>
</svg>
