<?xml version="1.0" encoding="utf-8"?>
<!-- Generator: Adobe Illustrator 17.0.0, SVG Export Plug-In . SVG Version: 6.00 Build 0)  -->
<!DOCTYPE svg PUBLIC "-//W3C//DTD SVG 1.1//EN" "http://www.w3.org/Graphics/SVG/1.1/DTD/svg11.dtd">
<svg version="1.1" id="Layer_1" xmlns="http://www.w3.org/2000/svg" xmlns:xlink="http://www.w3.org/1999/xlink" x="0px" y="0px"
	 width="144px" height="144px" viewBox="0 0 144 144" enable-background="new 0 0 144 144" xml:space="preserve">
<path d="M110.685,84.273c-7.374-8.568-14.765-18.78-26.658-17.164c-3.375,0.459-6.327,1.808-8.873,3.766c0-6.047,0-12.094,0-18.14
	c6.366,0,12.732,0,19.098,0c-0.02,0-0.051-0.02-0.074-0.026h6.7L89.494,41.798h-4.333H15.814H9.571L20.956,52.71h4.709
	c0.047,0.007,0.099,0.026,0.143,0.026c13.331,0,26.661,0,39.992,0c0,8.183,0.858,26.446,1.836,27.57
	c-1.179,2.306-2.132,4.769-2.86,7.277c-0.298-0.342-0.601-0.685-0.915-1.03c-4.762-5.225-9.436-11.942-16.672-12.491
	c-8.08-0.612-13.279,7.865-14.219,15.481c-1.071,8.681,3.871,16.481,9.075,22.435c2.562,2.931,5.193,5.793,7.856,8.616
	c0.31,0.328,4.31,4.456,2.229,2.076c-7.453-8.526-11.001-21.706-3.295-31.405c3.022-3.803,7.866-5.085,12.264-4.323
	c0.918,2.469,1.55,5.102,2.225,7.62c0.562,2.095,4.301,4.918,5.657,6.39c0.183,0.198,0.876,0.831,1.723,1.619
	c1.388,1.507,2.777,3.013,4.165,4.52c1.08-8.442,4.047-16.095,9.858-21.738c2.046,2.144,4.093,4.289,6.139,6.433
	c3.961,4.151,7.768,8.859,12.584,11.866c5.005,3.124,10.066,0.338,11.73-5.204C116.742,93.237,113.83,87.928,110.685,84.273z
	 M93.943,90.723c-3.088-0.852-5.959-3.612-8.571-6.537c0.512-0.492,1.038-0.975,1.594-1.435c3.581-2.964,8.027-4.292,12.458-4.477
	c1.675-0.07,3.309,0.31,4.9,0.827C105.741,85.969,101.262,92.744,93.943,90.723z"/>
</svg>
