<?xml version="1.0" encoding="utf-8"?>
<!-- Generator: Adobe Illustrator 17.0.0, SVG Export Plug-In . SVG Version: 6.00 Build 0)  -->
<!DOCTYPE svg PUBLIC "-//W3C//DTD SVG 1.1//EN" "http://www.w3.org/Graphics/SVG/1.1/DTD/svg11.dtd">
<svg version="1.1" id="Layer_1" xmlns="http://www.w3.org/2000/svg" xmlns:xlink="http://www.w3.org/1999/xlink" x="0px" y="0px"
	 width="144px" height="144px" viewBox="0 0 144 144" enable-background="new 0 0 144 144" xml:space="preserve">
<g>
	<g>
		<g>
			<g>
				<path d="M69.549,104.75c0.163-0.002-0.659-0.827-2.467-2.473c-1.054-1.092-2.129-2.319-3.393-3.135
					c-0.382-0.247-0.777-0.441-1.176-0.615h-9.185c0.876,0.997,4.525,5.061,5.004,4.974c2.632-0.479,5.265-0.876,7.917-0.323
					c0.116,0.024,0.23,0.056,0.344,0.088c0.08,0.263,0.156,0.527,0.219,0.79c1.111,4.644-2.268,8.931-6.315,10.719
					c-5.111,2.259-10.97,0.378-15.382-2.506c-0.936-0.612-1.822-1.308-2.672-2.04c-0.111-0.124-0.225-0.246-0.336-0.371
					c-0.593-0.662-1.176-1.334-1.761-2.004c-1.986-2.273-3.97-4.547-5.955-6.821c-0.762-0.872-1.592-1.693-2.421-2.506h-0.458
					c4.488,5.15,8.99,10.27,13.967,14.971c5.135,4.851,11.727,8.864,19.038,6.887c6.139-1.66,9.818-8.771,6.109-14.313
					C70.315,105.606,69.94,105.172,69.549,104.75z"/>
			</g>
		</g>
	</g>
	<path d="M94.56,83.049c-2.962-4.666-7.763-9.41-12.584-12.136c-3.741-2.116-8.214-2.683-12.664-2.837V49.58l-0.601-0.64h24.59
		l-8.171-8.148H27.773l8.171,8.148h25.199v19.053c-8.99-0.164-17.98-0.326-26.971-0.479c0.485,0.008,2.741,2.921,3.133,3.303
		c0.577,0.561,2.486,3.024,3.387,3.042c6.785,0.136,13.622,0.098,20.45,0.186v27.888l8.17,8.696v-36.4
		c3.203,0.114,6.398,0.284,9.579,0.542c7.072,0.575,11.676,5.085,12.065,12.179c0.227,4.143-0.4,8.272-0.889,12.374
		c-0.087,0.727,2.715,2.898,3.164,3.335c0.279,0.271,3.46,2.798,3.42,3.072C97.71,98.395,98.767,89.674,94.56,83.049z"/>
</g>
</svg>
