<?xml version="1.0" encoding="utf-8"?>
<!-- Generator: Adobe Illustrator 17.0.0, SVG Export Plug-In . SVG Version: 6.00 Build 0)  -->
<!DOCTYPE svg PUBLIC "-//W3C//DTD SVG 1.1//EN" "http://www.w3.org/Graphics/SVG/1.1/DTD/svg11.dtd">
<svg version="1.1" id="Layer_1" xmlns="http://www.w3.org/2000/svg" xmlns:xlink="http://www.w3.org/1999/xlink" x="0px" y="0px"
	 width="144px" height="144px" viewBox="0 0 144 144" enable-background="new 0 0 144 144" xml:space="preserve">
<g>
	<path d="M84.363,79.73c-1.558-0.049-3.062-0.361-4.51-0.935c-5.623-4.395-5.137-2.532,1.456,5.589
		c-1.798-4.456,0.979-8.585,4.139-11.295c2.306-1.977,5.584-2.343,8.462-2.445c1.5,0.068,2.935,0.407,4.307,1.016
		c-0.801-1.781-1.603-3.562-2.404-5.343c0.414,2.153,0.34,4.273-0.221,6.359c-1.536,8.271-10.686,10.062-17.615,9.329
		c-5.269-0.558-10.433-3.504-14.675-6.427c-1.552-1.131-3.044-2.335-4.478-3.612c-1.333-1.13-7.125-9.283-4.129-3.286
		c-0.787-1.574-8.107-15.451-9.639-14.795c-3.615,1.548,6.828,15.142,8.759,17.101c-2.15-2.182-5.2-10.273-8.108-13.869
		c-0.224-0.277-0.448-0.554-0.672-0.831c2.878,4.807,5.757,9.614,8.635,14.421c0.196-0.753,0.672-1.004,1.426-0.753
		c-3.213-4.932-6.426-9.863-9.639-14.795c6.815,13.637,15.72,29.308,29.406,37.073c8.435,4.786,18.177,6.893,26.299,0.426
		c5.879-4.681,3.936-13.33,0.985-18.881c-2.828-5.32-6.146-10.969-10.617-15.066c-6.16-5.646-15.896-1.129-19.011,5.27
		c-2.803,5.757,3.129,13.463,5.954,17.961c3.348,5.331,7.019,11.438,14.116,10.952C90.929,93.009,87.512,80.108,84.363,79.73
		L84.363,79.73z"/>
</g>
</svg>
