<?xml version="1.0" encoding="utf-8"?>
<!-- Generator: Adobe Illustrator 17.0.0, SVG Export Plug-In . SVG Version: 6.00 Build 0)  -->
<!DOCTYPE svg PUBLIC "-//W3C//DTD SVG 1.1//EN" "http://www.w3.org/Graphics/SVG/1.1/DTD/svg11.dtd">
<svg version="1.1" id="Layer_1" xmlns="http://www.w3.org/2000/svg" xmlns:xlink="http://www.w3.org/1999/xlink" x="0px" y="0px"
	 width="144px" height="144px" viewBox="0 0 144 144" enable-background="new 0 0 144 144" xml:space="preserve">
<path d="M71,101.023v-3.176v-0.286c7.489-0.957,14.001-7.045,13.731-15.299c-0.122-3.72-2.655-6.929-4.883-9.605
	c-2.947-3.539-6.048-6.966-9.224-10.286c-1.002-1.047-2.097-2.178-3.267-3.293c2.093-1.38,3.979-3.082,5.523-5.326
	c3.362-4.882,2.118-10.388-1.379-14.599c-0.457-0.552-0.935-1.104-1.417-1.657h-3.766c0.435,7.253-6.952,11.95-13.341,14.728
	c-1.396,0.207-2.805,0.728-4.213,1.659c0.975,1.095,1.949,2.191,2.923,3.286c2.206,2.939,4.958,6.738,5.744,6.456
	c1.477-0.53,2.944-1.07,4.373-1.667c4.585-0.568,9.017,2.304,12.669,5.539c0.624,1.188,1.074,2.451,1.414,3.786
	c0.836,3.28-0.393,6.706-2.021,9.478c-3.651,6.218-11.075,7.726-17.535,6.869c-8.39-1.112-15.522-3.958-12.553-1.453
	c6.431,5.425,12.372,9.561,20.319,11.008v0.626c0,0.033,0,0.066,0.033,0.099l-0.054,0.358c-1.457-0.075-3.395,1.343-1.967,2.295
	c0.41,0.274,0.821,0.512,1.258,0.74c0.178,0.091,0.365,0.151,0.553,0.197l25.047,12.33l8.728,5.047
	c0.101-0.236,0.222-0.461,0.369-0.673L71,101.023z"/>
</svg>
