<?xml version="1.0" encoding="utf-8"?>
<!-- Generator: Adobe Illustrator 17.0.0, SVG Export Plug-In . SVG Version: 6.00 Build 0)  -->
<!DOCTYPE svg PUBLIC "-//W3C//DTD SVG 1.1//EN" "http://www.w3.org/Graphics/SVG/1.1/DTD/svg11.dtd">
<svg version="1.1" id="Layer_1" xmlns="http://www.w3.org/2000/svg" xmlns:xlink="http://www.w3.org/1999/xlink" x="0px" y="0px"
	 width="144px" height="144px" viewBox="0 0 144 144" enable-background="new 0 0 144 144" xml:space="preserve">
<path d="M103.109,82.425c-7.027-1.699-15.09-1.05-22.317-1.334c-2.49-0.098-4.981-0.189-7.472-0.283
	c-0.904-7.002-2.17-13.958-3.894-20.876c4.894,0.161,9.787,0.322,14.681,0.483c10.469,0.345,21.647,1.739,32.064,0.707
	c0.087-0.009-3.723-7.074-3.976-7.479c-0.759-1.214-3.301-6.615-4.98-6.852c-9.907-1.401-20.383-0.874-30.387-1.186
	c-5.366-0.167-10.732-0.317-16.098-0.463c-0.201-0.2-0.377-0.305-0.343-0.009c-5.247-0.142-10.495-0.28-15.742-0.425
	c0.122,0.003,3.774,7.185,4.082,7.678c0.664,1.062,3.566,6.983,5.111,7.034c3.139,0.103,6.277,0.207,9.415,0.31
	c1.129,6.871,1.917,13.795,2.244,20.745c-2.953-0.141-5.904-0.3-8.851-0.518c0.05,0.004,2.926,5.867,3.122,6.195
	c1.791,2.993,3.613,6.189,5.888,8.852c2.859,3.347,5.724,6.689,8.626,9.998c0.222,0.395,0.529,0.687,0.922,0.875
	c-0.092-3.302-0.249-6.589-0.453-9.869c4.556,0.102,9.112,0.269,13.664,0.41c3.984,0.123,7.969,0.251,11.954,0.377
	c3.78,0.119,7.982,0.809,11.661-0.092C111.32,96.876,105.697,83.05,103.109,82.425z"/>
</svg>
