<?xml version="1.0" encoding="utf-8"?>
<!-- Generator: Adobe Illustrator 17.0.0, SVG Export Plug-In . SVG Version: 6.00 Build 0)  -->
<!DOCTYPE svg PUBLIC "-//W3C//DTD SVG 1.1//EN" "http://www.w3.org/Graphics/SVG/1.1/DTD/svg11.dtd">
<svg version="1.1" id="Layer_1" xmlns="http://www.w3.org/2000/svg" xmlns:xlink="http://www.w3.org/1999/xlink" x="0px" y="0px"
	 width="144px" height="144px" viewBox="0 0 144 144" enable-background="new 0 0 144 144" xml:space="preserve">
<path d="M95,95.714c-1.474-1.663-5.101-4.331-5.909-6.406c2.43,6.249-2.671,10.539-8.459,11.324
	c-7.575,1.027-16.586-5.078-23.185-8.058c-5.506-2.485-11.012-4.972-16.518-7.457c-0.253-3.525-0.506-7.049-0.759-10.575
	c-0.656-9.13-1.311-18.261-1.967-27.39c0,0-0.023-0.068-0.028-0.1l-10.645-0.644c0.525,7.313,1.05,14.625,1.576,21.938
	c0.289,4.022,0.912,8.203,0.77,12.289C26,79.679,21.031,79.631,19.398,84.05c-1.493,4.042,2.44,8.163,4.93,10.846
	c2.807,3.026,5.768,7.396,9.993,8.364c3.177,0.727,5.534-2.617,6.566-4.985c0.602-1.379,0.736-3.015,0.695-4.679
	c0.423,0.087,0.833,0.188,1.218,0.307c8.244,2.544,16.286,7.238,24.148,10.788c7.425,3.351,15.313,8.228,23.541,9.011
	c6.439,0.612,12.716-4.77,10.158-11.35C99.74,100.019,96.619,97.542,95,95.714z"/>
</svg>
