<?xml version="1.0" encoding="utf-8"?>
<!-- Generator: Adobe Illustrator 17.0.0, SVG Export Plug-In . SVG Version: 6.00 Build 0)  -->
<!DOCTYPE svg PUBLIC "-//W3C//DTD SVG 1.1//EN" "http://www.w3.org/Graphics/SVG/1.1/DTD/svg11.dtd">
<svg version="1.1" id="Layer_1" xmlns="http://www.w3.org/2000/svg" xmlns:xlink="http://www.w3.org/1999/xlink" x="0px" y="0px"
	 width="144px" height="144px" viewBox="0 0 144 144" enable-background="new 0 0 144 144" xml:space="preserve">
<g>
	<path d="M45.56,37.625c-4.273,14.841,4.324,33.86,17.968,41.419c7.951,4.405,19.927-1.539,19.044-11.262
		c-0.668-7.351-5.871-13.806-10.074-19.616c0.078,0.108-1.691-1.929-1.689-1.903c1.119,17.509,1.538,35.137,3.263,52.596
		c0.484,4.899,8.921,10.006,8.996,14.098c-0.32-17.38-2.157-34.808-3.18-52.164c-0.563-0.634-1.126-1.269-1.689-1.903
		c0.528,0.73,1.055,1.46,1.583,2.191c-2.456-4.098-4.913-8.195-7.369-12.293c2.86,7.954-1.024,14.562-8.626,17.121
		c-2.983,1.004-6.379-0.195-9.166-1.12c-2.594,2.945-3.207,0.985-1.84-5.88c0.184-2.502,0.688-4.937,1.514-7.306
		C55.424,47.526,44.748,40.446,45.56,37.625L45.56,37.625z"/>
</g>
</svg>
