<?xml version="1.0" encoding="utf-8"?>
<!-- Generator: Adobe Illustrator 17.0.0, SVG Export Plug-In . SVG Version: 6.00 Build 0)  -->
<!DOCTYPE svg PUBLIC "-//W3C//DTD SVG 1.1//EN" "http://www.w3.org/Graphics/SVG/1.1/DTD/svg11.dtd">
<svg version="1.1" id="Layer_1" xmlns="http://www.w3.org/2000/svg" xmlns:xlink="http://www.w3.org/1999/xlink" x="0px" y="0px"
	 width="144px" height="144px" viewBox="0 0 144 144" enable-background="new 0 0 144 144" xml:space="preserve">
<path d="M79.571,74.333c-1.06-1.108-2.218-2.303-3.456-3.484c2.214-1.46,4.209-3.261,5.843-5.633
	c3.556-5.166,2.241-10.99-1.458-15.445c-0.364-0.438-0.749-0.878-1.128-1.318h-4.35c0.14,7.423-7.489,12.264-14.119,15.146
	c-1.477,0.22-2.967,0.77-4.457,1.755c1.031,1.159,2.062,2.318,3.093,3.476c2.334,3.11,5.245,7.128,6.076,6.83
	c1.563-0.56,3.115-1.132,4.626-1.762c4.85-0.602,9.54,2.436,13.403,5.859c0.66,1.257,1.136,2.594,1.495,4.005
	c0.884,3.47-0.416,7.095-2.138,10.028c-3.863,6.579-11.717,8.174-18.55,7.267c-8.876-1.178-16.422-4.188-13.281-1.538
	c7.824,6.6,14.955,11.406,25.426,12.145c9.226,0.651,18.225-6.332,17.899-16.287c-0.129-3.936-2.808-7.331-5.166-10.162
	C86.211,81.471,82.931,77.846,79.571,74.333z"/>
</svg>
