<?xml version="1.0" encoding="utf-8"?>
<!-- Generator: Adobe Illustrator 17.0.0, SVG Export Plug-In . SVG Version: 6.00 Build 0)  -->
<!DOCTYPE svg PUBLIC "-//W3C//DTD SVG 1.1//EN" "http://www.w3.org/Graphics/SVG/1.1/DTD/svg11.dtd">
<svg version="1.1" id="Layer_1" xmlns="http://www.w3.org/2000/svg" xmlns:xlink="http://www.w3.org/1999/xlink" x="0px" y="0px"
	 width="144px" height="144px" viewBox="0 0 144 144" enable-background="new 0 0 144 144" xml:space="preserve">
<path d="M110.274,123.186c-9.904-6.94-19.808-13.88-29.712-20.82c-0.942-0.66-1.885-1.368-2.837-2.086
	c-0.13-1.889-0.424-3.602-0.505-4.4c-1.124-11.145-2.249-22.291-3.373-33.436h15.908c1.396,2.494,3.088,4.825,4.924,7.034
	c1.176,1.415,2.647,2.669,3.974,3.948c0.236,0.227,1.312,1.062,2.325,1.917c0.778,0.657,2.051,0.201,2.104-0.76
	c0.195-3.538,0.441-8.407,0.644-12.138h8.103l-8.126-10.53c-0.002-0.011-0.01-0.019-0.01-0.019
	c-0.037-0.293-0.076-0.519-0.113-0.746h-0.467h-0.27c-0.036-2.657-0.215-5.365-0.615-7.687c-0.011-0.063-0.035-0.131-0.063-0.199
	h8.96l-8.628-9.359H41.925l8.628,9.359H90.92c0.908,0.016,1.816,0.032,2.725,0.048c0.063,2.593,0.046,5.233,0.086,7.838H58.529
	H41.925l8.463,10.966c-0.134,0.117-0.249,0.189-0.333,0.189h0.479l0.107,0.139h14.784c0.588,5.822,1.175,11.645,1.763,17.467
	c0.448,4.435,0.936,8.867,1.328,13.306c0.033,0.374,0.029,0.779-0.009,1.195c-0.214-0.091-0.422-0.196-0.639-0.279
	c-2.443-0.935-5.004,0.014-6.034,2.106c-0.756,1.535,0.87,2.877,1.902,3.848c2.482,2.333,6.023,7.104,9.773,7.733
	c3.186,0.535,4.124-2.08,4.259-5.045c0.191,0.053,0.377,0.111,0.552,0.178c2.561,0.981,4.886,3.15,7.076,4.684
	c2.251,1.577,4.502,3.155,6.753,4.732c9.004,6.309,18.008,12.618,27.011,18.928C116.77,129.624,113.378,125.361,110.274,123.186z"/>
</svg>
