<?xml version="1.0" encoding="utf-8"?>
<!-- Generator: Adobe Illustrator 17.0.0, SVG Export Plug-In . SVG Version: 6.00 Build 0)  -->
<!DOCTYPE svg PUBLIC "-//W3C//DTD SVG 1.1//EN" "http://www.w3.org/Graphics/SVG/1.1/DTD/svg11.dtd">
<svg version="1.1" id="Layer_1" xmlns="http://www.w3.org/2000/svg" xmlns:xlink="http://www.w3.org/1999/xlink" x="0px" y="0px"
	 width="144px" height="144px" viewBox="0 0 144 144" enable-background="new 0 0 144 144" xml:space="preserve">
<path d="M74.699,118.33c-1.513-6.321,2.681-13.294,6.007-18.274c4.201-6.289,8.3-12.418,7.558-20.338
	c-1.287-13.745-16.436-21.081-20.077-21.387c-0.251-2.507-0.503-5.015-0.754-7.522c-0.02-0.202-0.12-0.436-0.267-0.687h22.906
	l-5.793-8.321h-2.794H48.053h-4.441l5.793,8.321h11.959c0.303,3.026,0.607,6.052,0.91,9.077c-0.425,0.165-0.849,0.348-1.27,0.56
	c-2.82,1.419-4.716,4.048-5.686,6.975c-1.159,3.496,0.133,10.569,9.098,14.57c3.576,1.596,5.17-2.094,5.418-4.572
	c0.309-3.086-0.253-6.43-0.702-9.621c3.714-1.601,11.233,2.497,12.233,10.033c0.735,5.542-4.423,10.39-7.465,14.887
	c-2.975,4.399-5.544,8.905-6.13,14.27c-0.554,5.068,2.181,8.571,5.217,12.192C75.663,121.685,74.981,118.426,74.699,118.33z"/>
</svg>
