<?xml version="1.0" encoding="utf-8"?>
<!-- Generator: Adobe Illustrator 17.0.0, SVG Export Plug-In . SVG Version: 6.00 Build 0)  -->
<!DOCTYPE svg PUBLIC "-//W3C//DTD SVG 1.1//EN" "http://www.w3.org/Graphics/SVG/1.1/DTD/svg11.dtd">
<svg version="1.1" id="Layer_1" xmlns="http://www.w3.org/2000/svg" xmlns:xlink="http://www.w3.org/1999/xlink" x="0px" y="0px"
	 width="144px" height="144px" viewBox="0 0 144 144" enable-background="new 0 0 144 144" xml:space="preserve">
<g>
	<g>
		<g>
			<g>
				<path d="M101.374,111.839c-1.539-2.466-3.206-5.376-5.325-7.386c-3.904-3.704-9.022-3.081-13.847-1.99
					c-0.774-1.137-1.58-2.307-2.571-3.202c-0.366-0.33-0.753-0.607-1.149-0.862l-9.813-1.604c0.762,1.218,3.951,6.197,4.478,6.188
					c2.896-0.052,5.778-0.017,8.516,1.037c0.12,0.046,0.236,0.1,0.352,0.154c0.04,0.295,0.074,0.591,0.096,0.882
					c0.377,5.156-3.982,9.146-8.618,10.35c-5.855,1.521-11.787-1.512-15.997-5.363c-0.893-0.817-1.719-1.715-2.499-2.646
					c-0.097-0.152-0.198-0.302-0.294-0.455c-0.518-0.811-1.024-1.631-1.532-2.448c-1.724-2.775-3.448-5.551-5.172-8.327
					c-0.661-1.065-1.405-2.086-2.149-3.101l-0.489-0.08c3.896,6.286,7.812,12.542,12.308,18.434
					c4.64,6.079,10.982,11.518,19.139,10.682c6.677-0.684,11.756-7.311,9.233-13.729c3.219-0.745,6.36-1.282,9.672-0.632
					c0.69,0.165,1.355,0.399,1.997,0.701c0.182,0.075,0.342,0.156,0.491,0.239c0.229,1.153,0.219,2.361,0.132,3.512
					c-0.582,7.733-9.211,11.654-15.533,13.67c0.606-0.193,3.389,6.085,4.191,5.829c4.881-1.556,9.398-3.563,12.799-7.522
					C102.548,120.957,103.729,115.613,101.374,111.839z M98.763,109.052C99.53,109.665,99.465,110.124,98.763,109.052
					L98.763,109.052z"/>
			</g>
		</g>
	</g>
	<path d="M107.096,79.979c-2.885-4.544-7.561-9.164-12.256-11.82c-3.644-2.061-7.999-2.613-12.333-2.763V47.383l-0.586-0.623h23.949
		l-7.958-7.936H42.05l7.958,7.936H74.55v18.557c-8.756-0.159-17.512-0.317-26.267-0.467c0.472,0.008,2.67,2.845,3.052,3.217
		c0.562,0.547,2.421,2.945,3.299,2.963c6.608,0.132,13.267,0.095,19.917,0.181v27.16l7.957,8.469V71.389
		c3.119,0.111,6.231,0.276,9.33,0.528c6.887,0.56,11.371,4.952,11.75,11.861c0.221,4.035-0.39,8.056-0.866,12.051
		c-0.084,0.708,2.644,2.822,3.082,3.248c0.271,0.264,3.37,2.725,3.331,2.992C110.163,94.925,111.193,86.432,107.096,79.979z"/>
</g>
</svg>
