<?xml version="1.0" encoding="utf-8"?>
<!-- Generator: Adobe Illustrator 17.0.0, SVG Export Plug-In . SVG Version: 6.00 Build 0)  -->
<!DOCTYPE svg PUBLIC "-//W3C//DTD SVG 1.1//EN" "http://www.w3.org/Graphics/SVG/1.1/DTD/svg11.dtd">
<svg version="1.1" id="Layer_1" xmlns="http://www.w3.org/2000/svg" xmlns:xlink="http://www.w3.org/1999/xlink" x="0px" y="0px"
	 width="144px" height="144px" viewBox="0 0 144 144" enable-background="new 0 0 144 144" xml:space="preserve">
<g>
	<path d="M43.986,42.465c20.03,7.534,65.256,31.776,48.003,58.868c-5.236,8.223-17.735,6.685-24.619,2.277
		c1.537,4.165,1.73,2.773,0.58-4.176c0.32-2.244,1.009-4.369,2.066-6.375c2.29-5.424,7.607-8.209,12.955-9.526
		c-0.633,0.156-4.49-10.483-6.322-10.118c-36.797,7.338,3.185,67.225,23.632,34.947c7.117-11.236-3.597-27.847-10.08-36.972
		C77.292,53.222,58.646,40.438,37.908,32.738C40.328,33.636,40.877,41.296,43.986,42.465L43.986,42.465z"/>
</g>
</svg>
