<?xml version="1.0" encoding="utf-8"?>
<!-- Generator: Adobe Illustrator 17.0.0, SVG Export Plug-In . SVG Version: 6.00 Build 0)  -->
<!DOCTYPE svg PUBLIC "-//W3C//DTD SVG 1.1//EN" "http://www.w3.org/Graphics/SVG/1.1/DTD/svg11.dtd">
<svg version="1.1" id="Layer_1" xmlns="http://www.w3.org/2000/svg" xmlns:xlink="http://www.w3.org/1999/xlink" x="0px" y="0px"
	 width="144px" height="144px" viewBox="0 0 144 144" enable-background="new 0 0 144 144" xml:space="preserve">
<g>
	<path d="M43.061,53.005h5.187c0.022,0.5,0.044,0.998,0.066,1.498c0.355-0.128,0.709-0.254,1.064-0.382
		c1.926-0.902,3.753-0.436,5.066,0.629c-0.026-0.582-0.051-1.164-0.077-1.746h4.703c1.292,2.249,3.042,3.947,4.853,5.583
		c2.175,1.967,4.366,3.551,6.956,3.781c4.486,0.398,8.401-3.844,9.276-9.364h17.854l-7.827-9.264H35.234l0.402,0.477h-0.13
		c0.051,0,0.116,0.027,0.187,0.067l4.289,5.076c0.616,0.789,1.493,1.92,2.244,2.657L43.061,53.005z M75.711,53.005
		c-1.305,3.094-3.641,5.336-6.4,5.965c-1.888,0.431-3.913-0.056-5.733-1.154c-0.1-0.135-0.203-0.268-0.3-0.404
		c-0.721-1.015-1.302-2.187-1.752-3.421c-0.066-0.181-0.387-0.441-0.485-0.539c-0.153-0.153-0.311-0.297-0.466-0.446H75.711z"/>
	<path d="M54.963,117.527c-5.525-4.897-8.649-12.937-3.941-19.461c1.846-2.557,5.067-3.646,8.095-3.427
		c0.757,1.491,1.329,3.102,1.925,4.638c0.495,1.279,3.188,2.825,4.189,3.666c0.135,0.114,0.64,0.469,1.259,0.913
		c1.024,0.862,2.049,1.722,3.073,2.583c0.276-5.347,1.876-10.311,5.517-14.185c1.506,1.221,3.012,2.443,4.518,3.665
		c2.915,2.365,5.757,5.087,9.191,6.686c3.569,1.66,6.855-0.382,7.685-3.948c0.779-3.351-1.487-6.503-3.821-8.606
		c-5.473-4.929-11.047-10.885-19.037-9.173c-2.603,0.558-4.766,1.814-6.524,3.51l-11.458-9.036c-0.097-2.146-0.193-4.293-0.29-6.438
		c-0.254-5.633-0.508-11.265-0.761-16.898c-0.001-0.022-0.012-0.048-0.016-0.071h-7.512c0.182,4.034,0.364,8.067,0.545,12.101
		c0.104,2.304,0.234,4.61,0.323,6.915c-1.322-0.212-2.707-0.072-4.169,0.621c-2.377,1.127-1.695,3.003-0.436,4.65
		c-0.02-0.015-0.041-0.024-0.061-0.039c0.044,0.043,0.087,0.086,0.131,0.129c0.847,1.085,1.926,2.063,2.52,2.649
		c2.095,2.068,5.423,7.012,8.879,4.993c1.475-0.862,1.24-3.511,1.047-5.374c1.206,0.258,2.378,0.755,3.28,1.221
		c2.571,1.328,4.914,3.494,7.19,5.412c-2.348,2.629-3.872,6.08-4.654,9.602c-0.221-0.198-0.446-0.394-0.678-0.592
		c-3.518-2.99-7.056-6.919-12.001-6.837c-5.522,0.093-8.593,5.704-8.818,10.526c-0.256,5.496,3.523,10.087,7.38,13.507
		c1.899,1.683,3.841,3.32,5.803,4.93C53.564,116.547,56.505,118.895,54.963,117.527"/>
	<path d="M81.538,95.806c-0.002-0.007-0.005-0.015-0.007-0.023c-1.948-1.335-3.827-2.802-5.68-4.303
		c0.098-0.094,0.191-0.19,0.292-0.282c2.272-2.065,5.22-3.159,8.219-3.535c1.133-0.142,2.264,0,3.373,0.23
		C89.05,92.044,86.472,96.471,81.538,95.806z"/>
</g>
</svg>
