<?xml version="1.0" encoding="utf-8"?>
<!-- Generator: Adobe Illustrator 17.0.0, SVG Export Plug-In . SVG Version: 6.00 Build 0)  -->
<!DOCTYPE svg PUBLIC "-//W3C//DTD SVG 1.1//EN" "http://www.w3.org/Graphics/SVG/1.1/DTD/svg11.dtd">
<svg version="1.1" id="Layer_1" xmlns="http://www.w3.org/2000/svg" xmlns:xlink="http://www.w3.org/1999/xlink" x="0px" y="0px"
	 width="144px" height="144px" viewBox="0 0 144 144" enable-background="new 0 0 144 144" xml:space="preserve">
<g>
	<g>
		<g>
			<g>
				<path d="M98.474,85.007c0.123-0.002-0.496-0.622-1.857-1.861c-0.793-0.822-1.602-1.746-2.554-2.359
					c-0.288-0.186-0.585-0.332-0.885-0.463h-6.913c0.659,0.75,3.406,3.809,3.766,3.744c1.981-0.361,3.963-0.659,5.959-0.243
					c0.087,0.018,0.173,0.042,0.259,0.066c0.061,0.198,0.117,0.397,0.165,0.595c0.836,3.496-1.707,6.722-4.753,8.068
					c-3.847,1.7-8.257,0.284-11.578-1.886c-0.705-0.461-1.372-0.984-2.011-1.536c-0.084-0.093-0.17-0.185-0.253-0.279
					c-0.446-0.499-0.885-1.004-1.325-1.508c-1.494-1.711-2.988-3.423-4.482-5.134c-0.573-0.657-1.198-1.274-1.823-1.887h-0.344
					c3.378,3.876,6.767,7.73,10.512,11.269c3.865,3.651,8.826,6.672,14.33,5.184c4.621-1.25,7.39-6.602,4.598-10.773
					C99.051,85.652,98.769,85.325,98.474,85.007z"/>
			</g>
		</g>
	</g>
	<g>
		<path d="M101.017,54.581c-0.329-0.38-1.221-1.679-2.111-2.772h-55.28c0.919,1.186,1.9,2.63,2.18,2.952
			c0.598,0.691,3.053,4.419,3.983,4.419c2.661,0,5.322,0,7.982,0c0,12.411,0,24.821,0,37.232H46.997l14.527,13.008
			c1.163,1.041,3.01,0.216,3.01-1.345v-2.037v-9.626V68.395c0.22,0.281,0.429,0.57,0.656,0.846
			c3.556,4.316,8.019,9.121,12.938,11.885c5.188,2.915,10.657,0.713,13.984-3.772c3.715-5.009,3.801-12.246,2.489-18.174
			c0.759,0,1.518,0,2.277,0c2.655,0,5.311,0,7.966,0C104.167,59.18,101.508,55.148,101.017,54.581z M78.715,75.445
			c-1.706,0.503-3.579,0.413-5.27-0.104c-2.963-0.907-4.61-3.383-6.094-5.891c-0.505-0.854-0.988-1.722-1.455-2.597
			c-0.337-0.631-1.363-1.947-1.363-2.652V59.18c7.993,0,15.986,0,23.979,0C88.437,66.185,85.864,73.338,78.715,75.445z"/>
	</g>
</g>
</svg>
