<?xml version="1.0" encoding="utf-8"?>
<!-- Generator: Adobe Illustrator 17.0.0, SVG Export Plug-In . SVG Version: 6.00 Build 0)  -->
<!DOCTYPE svg PUBLIC "-//W3C//DTD SVG 1.1//EN" "http://www.w3.org/Graphics/SVG/1.1/DTD/svg11.dtd">
<svg version="1.1" id="Layer_1" xmlns="http://www.w3.org/2000/svg" xmlns:xlink="http://www.w3.org/1999/xlink" x="0px" y="0px"
	 width="144px" height="144px" viewBox="0 0 144 144" enable-background="new 0 0 144 144" xml:space="preserve">
<path d="M104.12,64.203c-0.569-0.692-2.905-4.43-3.791-4.43c-1.034,0-2.069,0-3.103,0c-0.068-2.392-0.259-4.78-0.626-6.866
	c-0.052-0.293-0.292-0.644-0.634-1.017h9.879l-8.243-9.639H39.734l8.243,9.639h3.304c0.261,0.151,0.497,0.248,0.685,0.251
	c11.86,0.204,23.721,0.407,35.581,0.611c0.058,2.322,0.053,4.68,0.078,7.021c-13.229,0-26.457,0-39.686,0
	c0.644,0,3.175,4.042,3.642,4.61c0.569,0.692,2.905,4.43,3.791,4.43c1.797,0,3.594,0,5.392,0c0,6.631,0,13.263,0,19.895H50.459
	l19.345,19.784v-9.664l0,0c0-0.36,0-0.72,0-1.08c0.369,0,0.739,0,1.108,0c5.642,0,11.284,0,16.925,0c0,5.788,0,11.577,0,17.366
	c0,0.934,3.738,3.397,4.43,3.997c0.569,0.493,4.611,3.161,4.611,3.84c0-15.75,0-31.501,0-47.252c0-2.058,0-4.116,0-6.174
	c0.025-0.23,0.048-0.467,0.071-0.713c1.077,0,2.155,0,3.232,0c2.527,0,5.054,0,7.581,0C107.118,68.814,104.587,64.771,104.12,64.203
	z M87.837,88.708c-6.011,0-12.022,0-18.033,0c0-5.855,0-11.709,0-17.564c0-0.777,0-1.554,0-2.331c6.011,0,12.022,0,18.033,0
	C87.837,75.445,87.837,82.077,87.837,88.708z"/>
</svg>
