<?xml version="1.0" encoding="utf-8"?>
<!-- Generator: Adobe Illustrator 17.0.0, SVG Export Plug-In . SVG Version: 6.00 Build 0)  -->
<!DOCTYPE svg PUBLIC "-//W3C//DTD SVG 1.1//EN" "http://www.w3.org/Graphics/SVG/1.1/DTD/svg11.dtd">
<svg version="1.1" id="Layer_1" xmlns="http://www.w3.org/2000/svg" xmlns:xlink="http://www.w3.org/1999/xlink" x="0px" y="0px"
	 width="144px" height="144px" viewBox="0 0 144 144" enable-background="new 0 0 144 144" xml:space="preserve">
<g>
	<g>
		<g>
			<g>
				<path d="M100.314,112.029c-1.234-1.978-2.572-4.312-4.271-5.925c-3.131-2.971-7.237-2.471-11.107-1.596
					c-0.621-0.912-1.267-1.851-2.062-2.569c-0.293-0.265-0.604-0.487-0.922-0.691l-7.871-1.286c0.611,0.977,3.169,4.971,3.592,4.963
					c2.323-0.042,4.635-0.013,6.831,0.832c0.096,0.037,0.189,0.08,0.282,0.124c0.032,0.237,0.06,0.474,0.077,0.708
					c0.302,4.136-3.194,7.336-6.913,8.302c-4.696,1.22-9.455-1.213-12.831-4.302c-0.717-0.656-1.379-1.376-2.004-2.123
					c-0.078-0.122-0.159-0.242-0.236-0.365c-0.416-0.651-0.821-1.308-1.229-1.964c-1.383-2.226-2.766-4.453-4.148-6.68
					c-0.53-0.854-1.127-1.674-1.724-2.487l-0.392-0.064c3.125,5.042,6.266,10.061,9.873,14.786
					c3.722,4.876,8.809,9.239,15.352,8.568c5.356-0.549,9.43-5.864,7.406-11.012c2.582-0.598,5.102-1.028,7.758-0.507
					c0.553,0.133,1.087,0.32,1.602,0.562c0.146,0.06,0.274,0.125,0.394,0.192c0.183,0.925,0.176,1.894,0.106,2.817
					c-0.467,6.203-7.389,9.348-12.46,10.965c0.486-0.155,2.718,4.881,3.362,4.675c3.915-1.248,7.538-2.858,10.266-6.033
					C101.256,119.343,102.203,115.056,100.314,112.029z M98.22,109.793C98.835,110.285,98.783,110.653,98.22,109.793L98.22,109.793z
					"/>
			</g>
		</g>
	</g>
	<g>
		<path d="M84.777,71.894c-3.453-3.462-6.851-7.172-11.264-9.462c-0.886-0.459-1.864-0.853-2.884-1.161
			c-0.277-3.651-0.554-7.302-0.83-10.953c6.193,0,12.386,0,18.579,0c2.39,0,4.78,0,7.171,0c-0.609,0-3.003-4.676-3.445-5.333
			c-0.236-0.351-0.793-1.379-1.415-2.422H40.911c0.67,1.163,1.293,2.327,1.497,2.631c0.538,0.801,2.747,5.124,3.585,5.124
			c5.464,0,10.929,0,16.393,0c0.194,2.564,0.389,5.128,0.583,7.692c0.076,1.001,0.152,2.002,0.228,3.004
			c-1.368,0.406-2.621,1.116-3.631,2.23c-3.735,4.118,3.56,9.057,6.053,11.442c1.392,1.332,2.532,2.594,4.533,2.897
			c2.92,0.442,1.272-5.824,1.143-7.519c-0.034-0.446-0.068-0.892-0.101-1.338c1.72-0.422,3.694-0.26,5.296-0.052
			c2.029,0.263,3.949,1.033,5.74,1.988c0.597,1.05,1.045,2.174,1.448,3.305c3.564,10-3.93,20.822-13.751,23.575
			c0.324-0.091,3.615,3.698,3.923,4c0.385,0.378,3.502,4.006,4.083,3.843c9.885-2.771,16.293-12.651,14.042-22.576
			C90.973,78.386,87.905,75.031,84.777,71.894z"/>
	</g>
</g>
</svg>
