<?xml version="1.0" encoding="utf-8"?>
<!-- Generator: Adobe Illustrator 17.0.0, SVG Export Plug-In . SVG Version: 6.00 Build 0)  -->
<!DOCTYPE svg PUBLIC "-//W3C//DTD SVG 1.1//EN" "http://www.w3.org/Graphics/SVG/1.1/DTD/svg11.dtd">
<svg version="1.1" id="Layer_1" xmlns="http://www.w3.org/2000/svg" xmlns:xlink="http://www.w3.org/1999/xlink" x="0px" y="0px"
	 width="144px" height="144px" viewBox="0 0 144 144" enable-background="new 0 0 144 144" xml:space="preserve">
<path d="M95.751,51.122c-3.744-1.975-8.155-2.418-12.54-2.449v-4.469H75v4.625c-8.957,0.101-17.914,0.202-26.871,0.312
	c0.482-0.006,2.81,2.824,3.211,3.192c0.59,0.542,2.56,2.934,3.456,2.925C61.502,55.196,68.253,54.96,75,54.847v13.57
	c-5.961-0.388-11.922-0.776-17.884-1.164c0.051-3.005-4.586-9.531-4.586-9.531c-0.268,1.273-0.446,2.559-0.541,3.816
	c-0.372,4.939,0.849,10.109,3.77,14.138c0.492,0.686,1.025,1.348,1.576,1.999c0.057,0.059,0.109,0.123,0.161,0.187
	c0.068,0.077,0.137,0.159,0.205,0.237c0.105,0.119,0.218,0.246,0.347,0.392c0.02,0.023,0.04,0.046,0.061,0.064
	c0.105,0.114,0.222,0.242,0.339,0.374c0.912,1.017,1.851,2.011,2.755,3.006c1.397,1.539,2.892,2.807,4.83,3.621
	c3.07,1.284,6.299,0.571,8.967-1.117v18.97l8.212,8.764V54.789c3.203,0.019,6.401,0.094,9.586,0.26
	c7.047,0.365,11.756,4.713,12.35,11.754c0.347,4.113-0.156,8.235-0.522,12.327c-0.065,0.726,2.784,2.802,3.243,3.223
	c0.285,0.261,3.521,2.679,3.49,2.954c0.837-7.324,1.633-16.025-2.743-22.488C105.535,58.267,100.623,53.691,95.751,51.122z
	 M75,72.916c-2.12,3.996-5.482,7.142-10.249,7.477c-1.645,0.114-3.273-0.339-4.743-1.042c-0.239-0.114-0.468-0.239-0.688-0.383
	c-1.498-2.883-2.131-6.175-2.218-9.422c5.966,0.389,11.932,0.777,17.897,1.165V72.916z"/>
</svg>
