<?xml version="1.0" encoding="utf-8"?>
<!-- Generator: Adobe Illustrator 17.0.0, SVG Export Plug-In . SVG Version: 6.00 Build 0)  -->
<!DOCTYPE svg PUBLIC "-//W3C//DTD SVG 1.1//EN" "http://www.w3.org/Graphics/SVG/1.1/DTD/svg11.dtd">
<svg version="1.1" id="Layer_1" xmlns="http://www.w3.org/2000/svg" xmlns:xlink="http://www.w3.org/1999/xlink" x="0px" y="0px"
	 width="144px" height="144px" viewBox="0 0 144 144" enable-background="new 0 0 144 144" xml:space="preserve">
<g>
	<g>
		<g>
			<g>
				<path d="M74.766,100.631c0.163-0.002-0.659-0.827-2.467-2.473c-1.054-1.092-2.129-2.319-3.393-3.135
					c-0.382-0.247-0.777-0.441-1.176-0.615h-9.185c0.876,0.997,4.525,5.061,5.004,4.974c2.632-0.479,5.265-0.876,7.917-0.323
					c0.116,0.024,0.23,0.056,0.344,0.088c0.08,0.263,0.156,0.527,0.219,0.79c1.111,4.644-2.268,8.931-6.315,10.719
					c-5.111,2.259-10.97,0.378-15.382-2.506c-0.936-0.612-1.822-1.308-2.672-2.04c-0.111-0.124-0.225-0.246-0.336-0.371
					c-0.593-0.662-1.176-1.334-1.761-2.004c-1.986-2.273-3.97-4.547-5.955-6.821c-0.762-0.872-1.592-1.693-2.421-2.506H36.73
					c4.488,5.15,8.99,10.27,13.967,14.971c5.135,4.851,11.727,8.864,19.038,6.887c6.139-1.66,9.818-8.771,6.109-14.313
					C75.532,101.487,75.158,101.054,74.766,100.631z"/>
			</g>
		</g>
	</g>
	<path d="M88.56,48.856c-0.139-0.179-0.24-0.306-0.282-0.358c-0.567-0.687-2.095-3.569-3.007-3.57
		c-9.551-0.002-19.061,0.265-28.611,0c-2.9-0.083-5.788,0.169-8.695,0.087c-3.298-0.093-6.597-0.085-9.896-0.087
		c-0.067,0-0.134,0-0.2,0c0.58,0,2.857,3.736,3.277,4.17c0.512,0.529,2.614,3.387,3.411,3.387c3.071,0,6.143,0,9.214,0
		c0,4.409,0,8.818,0,13.227h-8.52l15.332,18.982V71.218v-5.505v-9.354h-0.073c0-1.291,0-2.582,0-3.873c3.241,0,6.482,0,9.723,0
		v39.629c0,1.504,0,3.007,0,4.511c0,1.185,0,2.37,0,3.555c0,0.942,3.262,3.427,3.866,4.033c0.367,0.367,2.39,1.935,3.421,3.004
		c0.363,0.377,0.603,0.692,0.603,0.871c0-2.689,0-5.377,0-8.066c0-16.992,0-32.837,0-47.537c2.253,0,4.506,0,6.759,0
		c1.066,0,2.131,0,3.197,0c0.962,0,2.464,0.26,3.316-0.09C91.323,52.426,89.335,49.848,88.56,48.856z"/>
</g>
</svg>
