<?xml version="1.0" encoding="utf-8"?>
<!-- Generator: Adobe Illustrator 17.0.0, SVG Export Plug-In . SVG Version: 6.00 Build 0)  -->
<!DOCTYPE svg PUBLIC "-//W3C//DTD SVG 1.1//EN" "http://www.w3.org/Graphics/SVG/1.1/DTD/svg11.dtd">
<svg version="1.1" id="Layer_1" xmlns="http://www.w3.org/2000/svg" xmlns:xlink="http://www.w3.org/1999/xlink" x="0px" y="0px"
	 width="144px" height="144px" viewBox="0 0 144 144" enable-background="new 0 0 144 144" xml:space="preserve">
<g>
	<g>
		<path d="M70.241,53.297c-11.501-4.82-27.248,4.391-25.175,17.828c1.071,6.94,5.564,13.583,9.652,19.121
			c3.726,5.047,8.087,8.858,14.456,9.873c7.01,1.118,13.546-3.468,17.337-8.935c3.759-5.421,3.575-11.877,1.076-17.695
			C82.563,61.794,72.44,47.401,57.907,50.801c0.85-0.199,5.634,13.246,7.991,12.788c4.534-0.88,8.736-0.108,12.901,1.819
			c1.089,0.55,2.116,1.197,3.08,1.941c3.462,2.486,1.164,3.708-1.219-3.22c0.864,2.512,0.746,5.194,0.329,7.772
			c-1.494,9.228-10.687,16.068-19.786,15.463c-2.488-0.165-4.919-1.233-7.031-2.484c-0.736-0.472-1.437-0.992-2.103-1.56
			c-3.937-3.133,2.801,7.139,1.298,2.332c-1.434-4.587-0.258-9.315,2.243-13.247c4.572-7.187,14.478-10.023,22.219-6.962
			c-0.697-0.275-2.87-5.539-3.369-6.338C73.551,57.649,71.956,54.016,70.241,53.297L70.241,53.297z"/>
	</g>
</g>
</svg>
