<?xml version="1.0" encoding="utf-8"?>
<!-- Generator: Adobe Illustrator 17.0.0, SVG Export Plug-In . SVG Version: 6.00 Build 0)  -->
<!DOCTYPE svg PUBLIC "-//W3C//DTD SVG 1.1//EN" "http://www.w3.org/Graphics/SVG/1.1/DTD/svg11.dtd">
<svg version="1.1" id="Layer_1" xmlns="http://www.w3.org/2000/svg" xmlns:xlink="http://www.w3.org/1999/xlink" x="0px" y="0px"
	 width="144px" height="144px" viewBox="0 0 144 144" enable-background="new 0 0 144 144" xml:space="preserve">
<path fill="#070808" d="M99.26,72.333c-0.925-0.003-4.527-4.739-5.197-5.409c-0.816-0.816-4.14-5.194-5.409-5.197
	c-18.083-0.052-36.167-0.105-54.25-0.157c0.925,0.003,4.527,4.739,5.197,5.409c0.816,0.816,4.14,5.194,5.409,5.197
	c5.072,0.015,10.144,0.029,15.215,0.044c1.398,3.428,2.796,6.856,4.194,10.285c1.466,3.596,3.133,6.243,5.31,8.809
	c-0.107-0.057-0.221-0.125-0.344-0.209c0.266,0.244,0.532,0.488,0.798,0.732c1.025,1.167,2.149,2.329,3.431,3.568
	c2.018,1.95,3.999,3.989,6.16,5.794c1.635,1.366,1.227,1.253,1.963-0.907c0.623-1.83,1.246-3.66,1.869-5.489
	c2.492-7.319,4.984-14.638,7.476-21.957c0.036-0.105-0.061-0.297-0.235-0.536C93.652,72.317,96.456,72.325,99.26,72.333z
	 M75.492,77.234c-0.831,2.44-1.661,4.879-2.492,7.319c-0.2,0.587-0.4,1.175-0.6,1.762c-1.914-4.692-3.827-9.384-5.741-14.076
	c3.508,0.01,7.015,0.02,10.523,0.031C76.619,73.924,76.056,75.579,75.492,77.234z"/>
</svg>
