<?xml version="1.0" encoding="utf-8"?>
<!-- Generator: Adobe Illustrator 17.0.0, SVG Export Plug-In . SVG Version: 6.00 Build 0)  -->
<!DOCTYPE svg PUBLIC "-//W3C//DTD SVG 1.1//EN" "http://www.w3.org/Graphics/SVG/1.1/DTD/svg11.dtd">
<svg version="1.1" id="Layer_1" xmlns="http://www.w3.org/2000/svg" xmlns:xlink="http://www.w3.org/1999/xlink" x="0px" y="0px"
	 width="144px" height="144px" viewBox="0 0 144 144" enable-background="new 0 0 144 144" xml:space="preserve">
<g>
	<path fill="#070808" d="M56.366,86.476C55.478,85.587,56.568,87.72,56.366,86.476L56.366,86.476z"/>
	<path fill="#070808" d="M91.787,103.954c-7.312-7.294-14.623-14.589-21.935-21.884c-1.977-1.973-3.958-4.144-5.998-6.308
		c-0.229-0.993-0.523-1.952-0.616-2.528c-0.479-2.961-0.958-5.922-1.436-8.883c6.265,0.693,12.026,2.69,17.454,5.9
		c0.725,0.428,1.424,0.898,2.11,1.387c1.604,2.332,2.903,4.872,4.014,7.469c0.827,1.932,3.754,3.966,5.197,5.409
		c1.305,1.305,4.681,3.495,5.409,5.197c-2.646-6.185-6.779-11.274-11.361-16.017c-0.971-1.144-3.512-3.65-4.902-4.86
		c-0.845-0.814-1.694-1.625-2.539-2.438c-7.303-7.017-14.668-11.037-24.819-12.1c0.395,0.041,0.211,0.211,0,0
		c0.638,3.946-0.053,6.356,0.584,10.302c0.095,0.59,0.296,1.188,0.45,1.747c-0.992-0.668-2.009-1.282-3.06-1.818
		c-1.787-0.91-3.671-0.926-5.595-0.65c-0.172,0.025,3.152,3.899,6.363,7.439c0.468,0.78,1.375,1.812,2.944,3.173
		c0.605,0.633,1.156,1.194,1.6,1.621c2.191,2.105,4.171,3.456,7.342,3.334c1.107-0.043,1.262-1.113,1.1-2.388
		c0.157,0.107,0.314,0.214,0.47,0.322c-0.813-1.069-0.492-0.802,0.963,0.799c1.828,1.824,3.656,3.647,5.484,5.471
		c6.855,6.839,13.709,13.677,20.564,20.516c0.279,0.278,5.284,5.322,5.409,5.197C97.109,109.239,92.066,104.232,91.787,103.954z"/>
</g>
</svg>
