<?xml version="1.0" encoding="utf-8"?>
<!-- Generator: Adobe Illustrator 17.0.0, SVG Export Plug-In . SVG Version: 6.00 Build 0)  -->
<!DOCTYPE svg PUBLIC "-//W3C//DTD SVG 1.1//EN" "http://www.w3.org/Graphics/SVG/1.1/DTD/svg11.dtd">
<svg version="1.1" id="Layer_1" xmlns="http://www.w3.org/2000/svg" xmlns:xlink="http://www.w3.org/1999/xlink" x="0px" y="0px"
	 width="144px" height="144px" viewBox="0 0 144 144" enable-background="new 0 0 144 144" xml:space="preserve">
<path fill="#070808" d="M67.899,54.004c-0.097,2.896-0.195,5.791-0.292,8.687c-0.049,1.448-0.097,2.896-0.146,4.343
	c-0.032,0.965-0.065,1.93-0.097,2.896c-1.008,0.022-2.017,0.045-3.025,0.067c-5.534,0.123-11.378-0.253-16.394,2.463
	c-4.138,2.241-5.515,7.273-5.266,11.633c0.254,4.449,3.061,7.863,6.016,10.906c3.393,3.495,6.743,7.218,10.854,9.884
	c4.861,3.152,10.861,3.998,16.514,4.364c11.506,0.746,25.795,1.443,34.738-7.124c0.068-0.065-8.165-8.537-8.355-8.355
	c-7.416,7.105-17.732,7.347-27.419,7.291c-5.378-0.031-10.703-0.174-15.974-1.339c-2.013-0.445-3.93-1.2-5.796-2.06
	c-1.07-0.493-2.062-1.131-3.047-1.77c1.322,1.424,2.644,2.849,3.965,4.273c-0.678-0.858-1.26-1.774-1.747-2.75
	c-4.184-7.67,0.307-16.302,8.351-18.306c4.741-1.181,10.096-0.715,14.939-0.822c0.13-0.003,0.491-14.595,0.535-15.926
	c0.032-0.946-3.488-3.656-4.094-4.261C71.666,57.604,67.876,54.677,67.899,54.004L67.899,54.004z"/>
</svg>
