<?xml version="1.0" encoding="utf-8"?>
<!-- Generator: Adobe Illustrator 17.0.0, SVG Export Plug-In . SVG Version: 6.00 Build 0)  -->
<!DOCTYPE svg PUBLIC "-//W3C//DTD SVG 1.1//EN" "http://www.w3.org/Graphics/SVG/1.1/DTD/svg11.dtd">
<svg version="1.1" id="Layer_1" xmlns="http://www.w3.org/2000/svg" xmlns:xlink="http://www.w3.org/1999/xlink" x="0px" y="0px"
	 width="144px" height="144px" viewBox="0 0 144 144" enable-background="new 0 0 144 144" xml:space="preserve">
<path d="M71.632,48.215c0.072,7.212,0.144,14.424,0.217,21.637c-0.131-0.096-0.26-0.204-0.393-0.282
	c-11.183-6.662-24.579,0.109-26.056,12.979c-0.602,5.248,2.264,9.758,5.349,13.662c3.519,4.454,7.027,9.414,11.522,12.949
	c4.068,3.199,9.784,3.675,14.279,1.253c5.202-2.802,5.23-10.377,5.215-15.413c-0.047-15.594-0.308-31.191-0.467-46.784H71.632z
	 M63,99.941c-1.748,0.404-5.206,0.586-6.712-0.604c-2.441-1.929-0.909-6.964-0.171-9.375c1.21-3.948,4.026-7.104,7.699-8.944
	c1.667-0.834,3.655-1.415,5.616-1.526c2.565-0.146,2.705,0.513,2.699,2.903C72.112,89.378,71.101,98.07,63,99.941z"/>
</svg>
