<?xml version="1.0" encoding="utf-8"?>
<!-- Generator: Adobe Illustrator 17.0.0, SVG Export Plug-In . SVG Version: 6.00 Build 0)  -->
<!DOCTYPE svg PUBLIC "-//W3C//DTD SVG 1.1//EN" "http://www.w3.org/Graphics/SVG/1.1/DTD/svg11.dtd">
<svg version="1.1" id="Layer_1" xmlns="http://www.w3.org/2000/svg" xmlns:xlink="http://www.w3.org/1999/xlink" x="0px" y="0px"
	 width="144px" height="144px" viewBox="0 0 144 144" enable-background="new 0 0 144 144" xml:space="preserve">
<g>
	<path d="M63.181,63.543c-4.922-4.226,1.302-13.207,4.275-16.078c3.876-3.743,10.076-3.681,14.938-2.906
		c10.66,1.698,7.901,13.443,4.383,19.922c-3.56,6.556-11.584,9.171-18.434,9.777c1.797,2.877,3.595,5.753,5.392,8.63
		c6.212-1.285,10.956-1.225,17.005,0.741c12.12,3.939,0.542,17.018-3.568,20.185c-14.194,10.936-32.403-5.909-39.903-16.461
		c-2.358-3.318,2.755,5.535,3.514,6.611c5.506,7.805,11.481,14.449,20.057,18.929c13.308,6.952,29.812-0.791,30.112-16.167
		c0.085-4.374-3.766-9.571-6.166-13.084c-6.397-9.361-15.384-11.68-26.443-9.384c0.691-0.143,3.647,8.783,5.392,8.63
		c27.085-2.387,25.963-34.284,6.388-45.849c-10.48-6.192-26.358,3.535-23.429,16.037c1.617,6.904,5.758,13.973,11.277,18.471
		C66.584,70.417,65.29,65.354,63.181,63.543L63.181,63.543z"/>
</g>
</svg>
