<?xml version="1.0" encoding="utf-8"?>
<!-- Generator: Adobe Illustrator 17.0.0, SVG Export Plug-In . SVG Version: 6.00 Build 0)  -->
<!DOCTYPE svg PUBLIC "-//W3C//DTD SVG 1.1//EN" "http://www.w3.org/Graphics/SVG/1.1/DTD/svg11.dtd">
<svg version="1.1" id="Layer_1" xmlns="http://www.w3.org/2000/svg" xmlns:xlink="http://www.w3.org/1999/xlink" x="0px" y="0px"
	 width="144px" height="144px" viewBox="0 0 144 144" enable-background="new 0 0 144 144" xml:space="preserve">
<path d="M58.895,65.806c2.32,2.097,4.655,3.786,7.417,4.03c4.784,0.425,8.957-4.097,9.891-9.983h19.036l-6.078-7.194H30.574
	l2.794,3.308c0.657,0.842,1.592,2.046,2.393,2.832l0.89,1.054h5.531c0.155,3.531,0.31,7.063,0.466,10.595
	c0.09,2.046,0.203,4.094,0.28,6.142c-1.146-0.188-2.347-0.064-3.614,0.551c-2.061,1.002-1.47,2.668-0.378,4.131
	c-0.017-0.013-0.035-0.022-0.053-0.034c0.038,0.037,0.076,0.076,0.114,0.113c0.734,0.964,1.67,1.833,2.185,2.354
	c1.817,1.836,4.702,6.228,7.699,4.436c1.279-0.765,1.076-3.119,0.908-4.773c1.046,0.229,2.062,0.669,2.844,1.084
	c2.661,1.408,5.041,3.879,7.376,5.766c2.285,1.846,4.571,3.693,6.857,5.538c4.049,3.271,8.037,6.642,12.185,9.786
	c3.69,2.797,8.206,4.595,12.716,2.721c-0.17,0.071-3.123-3.259-3.344-3.481c-0.273-0.273-3.099-3.502-3.48-3.343
	c-4.153,1.726-8.171,0.331-11.749-2.027c-4.193-2.762-7.99-6.328-11.893-9.481c-3.896-3.147-7.791-6.294-11.686-9.441
	c-0.084-1.907-0.168-3.813-0.252-5.719c-0.218-4.972-0.437-9.946-0.656-14.918h5.014C55.099,62.252,56.965,64.062,58.895,65.806z
	 M71.464,59.854c-1.391,3.299-3.883,5.689-6.824,6.36c-2.013,0.458-4.172-0.062-6.112-1.231c-0.107-0.144-0.216-0.285-0.32-0.431
	c-0.769-1.081-1.388-2.33-1.868-3.646c-0.071-0.194-0.412-0.471-0.518-0.576c-0.163-0.164-0.332-0.317-0.497-0.476H71.464z"/>
</svg>
