<?xml version="1.0" encoding="utf-8"?>
<!-- Generator: Adobe Illustrator 17.0.0, SVG Export Plug-In . SVG Version: 6.00 Build 0)  -->
<!DOCTYPE svg PUBLIC "-//W3C//DTD SVG 1.1//EN" "http://www.w3.org/Graphics/SVG/1.1/DTD/svg11.dtd">
<svg version="1.1" id="Layer_1" xmlns="http://www.w3.org/2000/svg" xmlns:xlink="http://www.w3.org/1999/xlink" x="0px" y="0px"
	 width="144px" height="144px" viewBox="0 0 144 144" enable-background="new 0 0 144 144" xml:space="preserve">
<path d="M111.932,120.374c-0.31-0.299-3.514-3.829-3.946-3.656c-4.708,1.888-9.263,0.362-13.319-2.216
	c-4.753-3.021-9.058-6.919-13.482-10.366c-4.416-3.441-8.832-6.881-13.248-10.322c-0.095-2.084-0.19-4.169-0.285-6.253
	c-0.249-5.47-0.499-10.94-0.748-16.41c-0.003-0.06-0.019-0.126-0.045-0.197c1.054,0,2.108,0,3.162,0
	c0.085,0.044,0.165,0.074,0.235,0.074c2.821,0,5.643,0,8.464,0c0.431,9.909-0.287-4.778,0.144,5.131
	c0.092,2.111,0.184,4.222,0.276,6.333c0.032,0.74,4.175,2.768,4.948,3.258c0.634,0.402,5.115,2.6,5.138,3.138
	c-0.092-2.111-0.183-4.222-0.275-6.333v0c-0.523-12.026,0.1,0.48-0.421-11.485c2.366,0,4.732,0,7.099,0
	c0.431,9.951-0.287-4.798,0.144,5.153c0.092,2.12,0.184,4.24,0.276,6.359c0.032,0.743,4.175,2.78,4.948,3.272
	c0.634,0.404,5.115,2.611,5.138,3.151c-0.092-2.12-0.183-4.24-0.275-6.359v0c-0.524-12.092,0.102,0.516-0.422-11.576
	c4.04,0,8.08,0,12.12,0c-0.67,0-3.305-4.501-3.791-5.133c-0.592-0.771-3.024-4.932-3.945-4.932c-1.088,0-2.175,0-3.263,0
	c0.323-3.646,0.292-8.353-0.629-11.995c-0.037-0.146-0.154-0.309-0.324-0.483h7.687l-9.344-8.346H38.348l0.798,0.713
	c-0.266-0.003-0.532-0.006-0.798-0.01c0.326,0.004,0.916,0.302,1.602,0.728l7.742,6.915h17.916
	c9.692,0.116,19.384,0.232,29.076,0.348c0.144,4.046-0.032,8.22,0.449,12.129c-0.74,0-1.481,0-2.222,0c-4.495,0-8.989,0-13.484,0
	c-2.002,0-4.004,0-6.006,0c-3.634,0-7.268,0-10.903,0c-6.136,0-12.273,0-18.409,0c0.821,0,4.044,4.449,4.639,5.074
	c0.725,0.762,3.7,4.875,4.828,4.875c1.974,0,3.947,0,5.921,0c0.181,3.96,0.361,7.92,0.542,11.88c0.102,2.238,0.23,4.477,0.317,6.716
	c-1.299-0.206-2.661-0.07-4.098,0.603c-2.336,1.095-1.667,2.916-0.429,4.516c-0.02-0.014-0.04-0.023-0.06-0.037
	c0.043,0.041,0.086,0.083,0.129,0.124c0.833,1.054,1.893,2.003,2.478,2.573c2.059,2.008,5.331,6.81,8.728,4.85
	c1.45-0.837,1.22-3.41,1.029-5.219c1.186,0.25,2.337,0.733,3.224,1.185c3.017,1.54,5.715,4.242,8.362,6.304
	c2.591,2.019,5.182,4.038,7.773,6.056c4.59,3.576,9.111,7.262,13.814,10.699c4.182,3.057,9.303,5.024,14.415,2.975
	C115.53,124.257,112.183,120.616,111.932,120.374z"/>
</svg>
