<?xml version="1.0" encoding="utf-8"?>
<!-- Generator: Adobe Illustrator 17.0.0, SVG Export Plug-In . SVG Version: 6.00 Build 0)  -->
<!DOCTYPE svg PUBLIC "-//W3C//DTD SVG 1.1//EN" "http://www.w3.org/Graphics/SVG/1.1/DTD/svg11.dtd">
<svg version="1.1" id="Layer_1" xmlns="http://www.w3.org/2000/svg" xmlns:xlink="http://www.w3.org/1999/xlink" x="0px" y="0px"
	 width="144px" height="144px" viewBox="0 0 144 144" enable-background="new 0 0 144 144" xml:space="preserve">
<path d="M85.767,71.244c-0.831-0.827-1.665-1.652-2.502-2.473c-0.163-0.159-1.029-0.99-1.399-1.333
	c-1.133-1.197-2.349-2.523-3.642-3.351c-5.983-3.835-12.281-6.141-18.999-6.371c0.005-0.369,0.005-0.737,0.012-1.106
	c0.058-2.942-0.774-5.618-0.935-8.514c-0.028-0.5-0.674-1.278-1.51-2.103h-8.947c0.041,0.773,0.079,1.548,0.069,2.344
	c-0.048,3.641-0.025,7.283,0.107,10.92c-2.889,0.987-5.125,2.547-6.888,5.581c-1.729,2.974-1.041,7.139,0.978,9.794
	c-0.044-0.028-0.091-0.05-0.134-0.079c0.1,0.101,0.201,0.201,0.302,0.302c0.141,0.172,0.287,0.339,0.439,0.496
	c3.276,3.39,6.636,7.809,10.533,10.476c1.62,1.11,3.257,0.88,5.135,0.662c2.708-0.315,1.713-4.166,1.631-6.062
	c-0.145-3.36-0.44-6.684-0.636-10.025c2.52-0.851,5.302-1.194,7.781-1.438c5.088-0.5,9.596,0.629,14.393,2.162
	c1.438,0.459,2.769,1.21,4.089,1.984C90.17,80.778,93.049,90.355,87,97.581c-8.044,9.608-20.427,4.608-29.182-1.489
	c-1.925-1.971-3.718-3.702-4.826-4.533c-0.041-0.041-0.082-0.082-0.122-0.123c0.02,0.026,0.042,0.053,0.062,0.079
	c-0.532-0.392-0.901-0.568-1.031-0.438c-0.038,0.038,2.183,2.301,4.663,4.789c10.827,12.168,29.893,27.105,42.707,11.8
	c6.017-7.186,0.501-17.981-3.155-24.664C93.622,78.445,89.39,74.847,85.767,71.244z"/>
</svg>
