<?xml version="1.0" encoding="utf-8"?>
<!-- Generator: Adobe Illustrator 17.0.0, SVG Export Plug-In . SVG Version: 6.00 Build 0)  -->
<!DOCTYPE svg PUBLIC "-//W3C//DTD SVG 1.1//EN" "http://www.w3.org/Graphics/SVG/1.1/DTD/svg11.dtd">
<svg version="1.1" id="Layer_1" xmlns="http://www.w3.org/2000/svg" xmlns:xlink="http://www.w3.org/1999/xlink" x="0px" y="0px"
	 width="144px" height="144px" viewBox="0 0 144 144" enable-background="new 0 0 144 144" xml:space="preserve">
<g>
	<path d="M88.018,53.41c-0.171-0.293-0.562-1.119-1.006-1.988H48.659c0.483,0.977,0.922,1.919,1.071,2.175
		c0.415,0.713,2.116,4.564,2.762,4.564c4.907,0,9.814,0,14.722,0v21.854H55.504l17.542,18.099c1.061,1.094,3.313,0.514,3.313-0.852
		V80.014h0V58.16c2.929,0,5.859,0,8.788,0c1.842,0,3.683,0,5.525,0C90.203,58.16,88.359,53.996,88.018,53.41z"/>
	<g>
		<g>
			<g>
				<path d="M90.25,104.817c-1.193-1.56-2.501-3.41-4.056-4.626c-2.863-2.24-6.266-1.493-9.441-0.45
					c-0.594-0.715-1.211-1.45-1.934-1.989c-0.267-0.199-0.545-0.36-0.828-0.506l-6.703-0.449c0.591,0.77,3.055,3.915,3.409,3.874
					c1.945-0.221,3.885-0.382,5.794,0.151c0.084,0.023,0.165,0.052,0.247,0.081c0.046,0.196,0.088,0.393,0.121,0.587
					c0.584,3.444-2.092,6.407-5.132,7.514c-3.84,1.399-8.024-0.26-11.103-2.581c-0.653-0.492-1.266-1.043-1.85-1.62
					c-0.075-0.096-0.152-0.19-0.227-0.287c-0.401-0.512-0.793-1.031-1.187-1.548c-1.338-1.756-2.675-3.513-4.013-5.269
					c-0.513-0.674-1.079-1.313-1.645-1.947l-0.334-0.022c3.024,3.978,6.059,7.934,9.461,11.608
					c3.511,3.791,8.125,7.042,13.557,5.956c4.447-0.889,7.438-5.671,5.329-9.826c2.117-0.708,4.195-1.27,6.464-1.046
					c0.474,0.067,0.937,0.181,1.388,0.343c0.127,0.038,0.24,0.083,0.346,0.129c0.228,0.761,0.299,1.574,0.314,2.353
					c0.105,5.239-5.447,8.429-9.57,10.191c0.395-0.169,2.669,3.875,3.193,3.651c3.183-1.36,6.092-2.999,8.125-5.88
					C91.625,110.874,92.076,107.205,90.25,104.817z M88.315,103.11C88.87,103.474,88.856,103.786,88.315,103.11L88.315,103.11z"/>
			</g>
		</g>
	</g>
</g>
</svg>
