<?xml version="1.0" encoding="utf-8"?>
<!-- Generator: Adobe Illustrator 17.0.0, SVG Export Plug-In . SVG Version: 6.00 Build 0)  -->
<!DOCTYPE svg PUBLIC "-//W3C//DTD SVG 1.1//EN" "http://www.w3.org/Graphics/SVG/1.1/DTD/svg11.dtd">
<svg version="1.1" id="Layer_1" xmlns="http://www.w3.org/2000/svg" xmlns:xlink="http://www.w3.org/1999/xlink" x="0px" y="0px"
	 width="144px" height="144px" viewBox="0 0 144 144" enable-background="new 0 0 144 144" xml:space="preserve">
<g>
	<g>
		<path d="M86.389,48.428c-0.296-0.413-1.115-1.86-1.915-3.028H36.587c0.819,1.263,1.72,2.867,1.97,3.216
			c0.518,0.723,2.645,4.626,3.451,4.626c1.636,0,3.273,0,4.909,0c0,6.924,0,13.849,0,20.773h-9.381l17.612,20.658V84.583v0
			c0-0.376,0-0.752,0-1.128c0.337,0,0.673,0,1.009,0c5.136,0,10.272,0,15.409,0c0,6.044,0,12.088,0,18.133
			c0,0.975,3.403,3.547,4.033,4.174c0.517,0.514,4.198,3.301,4.198,4.01c0-16.446,0-32.893,0-49.339c0-2.397,0-4.794,0-7.19
			c1.002,0,2.005,0,3.007,0c2.301,0,4.601,0,6.902,0C89.118,53.243,86.815,49.022,86.389,48.428z M71.565,74.016
			c-5.473,0-10.945,0-16.418,0c0-6.113,0-12.226,0-18.339c0-0.811,0-1.623,0-2.434c5.473,0,10.945,0,16.418,0
			C71.565,60.167,71.565,67.092,71.565,74.016z"/>
	</g>
	<g>
		<g>
			<g>
				<path d="M89.094,110.838c-1.193-1.56-2.501-3.41-4.056-4.626c-2.863-2.24-6.266-1.493-9.441-0.45
					c-0.594-0.715-1.211-1.45-1.934-1.989c-0.267-0.199-0.545-0.36-0.828-0.506l-6.703-0.449c0.591,0.77,3.055,3.915,3.409,3.874
					c1.945-0.221,3.885-0.382,5.794,0.151c0.084,0.023,0.165,0.052,0.247,0.081c0.046,0.196,0.088,0.393,0.121,0.587
					c0.584,3.444-2.092,6.407-5.132,7.514c-3.84,1.399-8.024-0.26-11.103-2.581c-0.653-0.492-1.266-1.043-1.85-1.62
					c-0.075-0.096-0.152-0.19-0.227-0.287c-0.401-0.512-0.793-1.031-1.187-1.548c-1.338-1.756-2.675-3.513-4.013-5.269
					c-0.513-0.674-1.079-1.313-1.645-1.947l-0.334-0.022c3.024,3.978,6.059,7.934,9.461,11.608
					c3.511,3.791,8.125,7.042,13.557,5.956c4.447-0.889,7.438-5.671,5.329-9.826c2.117-0.708,4.195-1.27,6.464-1.046
					c0.474,0.067,0.937,0.181,1.388,0.343c0.127,0.038,0.24,0.083,0.346,0.129c0.228,0.761,0.299,1.574,0.314,2.353
					c0.105,5.239-5.447,8.429-9.57,10.191c0.395-0.169,2.669,3.875,3.193,3.651c3.183-1.36,6.092-2.999,8.125-5.88
					C90.469,116.895,90.92,113.225,89.094,110.838z M87.159,109.131C87.714,109.494,87.7,109.807,87.159,109.131L87.159,109.131z"/>
			</g>
		</g>
	</g>
</g>
</svg>
