<?xml version="1.0" encoding="utf-8"?>
<!-- Generator: Adobe Illustrator 17.0.0, SVG Export Plug-In . SVG Version: 6.00 Build 0)  -->
<!DOCTYPE svg PUBLIC "-//W3C//DTD SVG 1.1//EN" "http://www.w3.org/Graphics/SVG/1.1/DTD/svg11.dtd">
<svg version="1.1" id="Layer_1" xmlns="http://www.w3.org/2000/svg" xmlns:xlink="http://www.w3.org/1999/xlink" x="0px" y="0px"
	 width="144px" height="144px" viewBox="0 0 144 144" enable-background="new 0 0 144 144" xml:space="preserve">
<path d="M110.471,118.083c-0.402-0.426-4.579-4.046-4.46-4.54c-0.671,2.771-2.658,4.268-5.454,5.052
	c-0.959,0.269-1.947,0.242-2.915,0.093c-1.811-6.911,1.229-14.821-0.254-21.796c-1.327-6.241-8.077-11.529-12.433-15.898
	c-3.194-3.204-7.376-4.78-11.683-4.766v-8.93l0.049-0.018l-0.049-2.169v-1.057h-0.024l-0.372-16.361h30.62L95.28,37.358H37.599
	l8.216,10.337h16.722l0.372,16.361H52.144l15.331,14.937c0.213,0.24,0.379,0.423,0.469,0.509c0.253,0.24,0.836,0.915,1.521,1.662
	c1.149,1.491,2.397,3.149,3.433,4.311c0.695,1.97,1.246,3.96,1.697,5.81c1.233,5.059,0.603,10.353-2.157,14.844
	c-2.385,3.883-7.033,5.899-11.555,6.365c-2.527,0.26-5.001-0.432-7.272-1.407c-3.22-1.383-5.235-3.94-6.412-6.008
	c2.967,5.292,8.718,9.902,13.332,13.41c6.753,5.133,16.414,2.773,21.148-3.579c5.614-7.534,1.777-17.814-1.713-25.292
	c-0.626-1.342-1.406-2.522-2.286-3.619c2.493-0.639,5.004-0.727,7.705-0.288c1.069,0.174,2.08,0.539,3.058,0.975
	c2.626,7.146-0.786,15.618,0.615,22.964c1.125,5.897,7.611,11.456,11.9,15.38c4.201,3.844,12.185,4.337,13.778-2.241
	C114.925,122.01,110.973,118.615,110.471,118.083z"/>
</svg>
