<?xml version="1.0" encoding="utf-8"?>
<!-- Generator: Adobe Illustrator 17.0.0, SVG Export Plug-In . SVG Version: 6.00 Build 0)  -->
<!DOCTYPE svg PUBLIC "-//W3C//DTD SVG 1.1//EN" "http://www.w3.org/Graphics/SVG/1.1/DTD/svg11.dtd">
<svg version="1.1" id="Layer_1" xmlns="http://www.w3.org/2000/svg" xmlns:xlink="http://www.w3.org/1999/xlink" x="0px" y="0px"
	 width="144px" height="144px" viewBox="0 0 144 144" enable-background="new 0 0 144 144" xml:space="preserve">
<path d="M82.063,71.854c-4.286-4.298-8.504-8.903-13.983-11.746c-1.099-0.57-2.314-1.059-3.58-1.441
	c-0.302-3.98-0.604-7.961-0.905-11.943h-9.201c0.199,2.631,0.399,5.264,0.599,7.895c0.094,1.244,0.188,2.486,0.282,3.729
	c-1.698,0.503-3.254,1.385-4.508,2.768c-4.636,5.113,4.42,11.242,7.514,14.204c1.728,1.653,3.143,3.22,5.627,3.596
	c3.624,0.548,1.578-7.23,1.419-9.334c-0.042-0.554-0.084-1.107-0.126-1.66c2.135-0.524,4.585-0.322,6.574-0.064
	c2.519,0.326,4.902,1.282,7.125,2.468c0.741,1.303,1.297,2.699,1.798,4.103c4.424,12.414-4.878,25.847-17.069,29.266
	c0.402-0.113,4.488,4.591,4.87,4.965c0.478,0.469,4.347,4.973,5.069,4.77c12.27-3.44,20.225-15.705,17.431-28.024
	C89.754,79.912,85.946,75.747,82.063,71.854z"/>
</svg>
