<?xml version="1.0" encoding="utf-8"?>
<!-- Generator: Adobe Illustrator 17.0.0, SVG Export Plug-In . SVG Version: 6.00 Build 0)  -->
<!DOCTYPE svg PUBLIC "-//W3C//DTD SVG 1.1//EN" "http://www.w3.org/Graphics/SVG/1.1/DTD/svg11.dtd">
<svg version="1.1" id="Layer_1" xmlns="http://www.w3.org/2000/svg" xmlns:xlink="http://www.w3.org/1999/xlink" x="0px" y="0px"
	 width="144px" height="144px" viewBox="0 0 144 144" enable-background="new 0 0 144 144" xml:space="preserve">
<path d="M86.925,68.239c-4.133-0.823-7.7,0.328-10.722,2.538c0-5.98,0-11.959,0-17.938c0-0.226-0.159-0.529-0.375-0.858H66.08
	c0,7.058,0,14.115,0,21.172c0,0.114,0.042,0.248,0.101,0.39c-1.256-0.98-2.559-1.862-3.921-2.595
	c-7.325-3.938-15.663-1.023-19.997,6.118c-4.469,7.365-0.614,13.998,4.267,19.345c4.967,5.441,10.091,12.7,18.004,11.668
	c6.934-0.904,10.444-9.156,13.504-15.716c2.608,3.096,5.399,6.032,8.31,8.94c5.596,5.593,12.68,7.922,19.003,2.144
	c6.023-5.502,4.488-14.523-0.256-20.165C100.192,77.452,94.504,69.748,86.925,68.239z M67.619,81.939
	c-3.574,7.36-7.772,16.443-16.899,15.318c-0.052-0.007-0.102-0.018-0.153-0.027c-0.818-4.184,1.047-8.48,3.387-11.682
	c2.572-3.518,6.565-5.155,10.596-5.495c1.29-0.11,2.582,0.079,3.847,0.363C68.126,80.922,67.866,81.431,67.619,81.939z
	 M94.236,93.524c-1.918,1.753-4.817,2.641-7.377,2.692c-3.288,0.066-4.944-1.295-6.504-3.986c-0.388-0.67-0.851-1.29-1.355-1.883
	c0.349-0.71,0.696-1.384,1.045-2.007c3.945-7.036,10.988-10.157,18.776-8.789C99.354,85.236,98.658,89.485,94.236,93.524z"/>
</svg>
