<?xml version="1.0" encoding="utf-8"?>
<!-- Generator: Adobe Illustrator 17.0.0, SVG Export Plug-In . SVG Version: 6.00 Build 0)  -->
<!DOCTYPE svg PUBLIC "-//W3C//DTD SVG 1.1//EN" "http://www.w3.org/Graphics/SVG/1.1/DTD/svg11.dtd">
<svg version="1.1" id="Layer_1" xmlns="http://www.w3.org/2000/svg" xmlns:xlink="http://www.w3.org/1999/xlink" x="0px" y="0px"
	 width="144px" height="144px" viewBox="0 0 144 144" enable-background="new 0 0 144 144" xml:space="preserve">
<g>
	<g>
		<path d="M79.803,82.39c-1.942-3.55-5.238-6.352-8.06-9.158c-0.647-0.644-1.297-1.286-1.949-1.926
			c-0.127-0.124-0.801-0.771-1.09-1.037c-0.882-0.933-1.83-1.965-2.837-2.611c-4.66-2.987-9.566-4.783-14.799-4.963
			c0.004-0.287,0.004-0.574,0.01-0.861c0.045-2.292-0.603-4.376-0.729-6.632c-0.024-0.434-0.636-1.135-1.398-1.86
			c2.359,0.076,4.721,0.135,7.09,0.135c3.499,0,6.975,0.345,10.471,0.345c3.102,0,7.035-0.639,10.01,0.333
			c0.029,0.069,0.046,0.131,0.046,0.184c0-0.057,0-0.115,0-0.172c0-0.978-3.706-3.794-4.347-4.435
			c-1.053-1.053-2.971-3.859-4.435-4.347c-2.979-0.993-6.938-0.345-10.056-0.345c-3.495,0-6.972-0.341-10.471-0.345
			c-7.156-0.009-14.249-0.517-21.389-0.517c0.835,0,3.766,3.854,4.347,4.435c0.641,0.641,3.457,4.347,4.435,4.347
			c2.517,0,5.028,0.066,7.538,0.149c0.05,0.749,0.077,1.507,0.067,2.281c-0.037,2.836-0.02,5.673,0.083,8.507
			c-2.25,0.769-3.992,1.984-5.365,4.347c-1.347,2.317-0.811,5.561,0.762,7.629c-0.034-0.022-0.071-0.038-0.104-0.061
			c0.078,0.078,0.157,0.157,0.235,0.235c0.11,0.135,0.224,0.264,0.342,0.387c2.552,2.64,5.169,6.083,8.205,8.16
			c1.262,0.864,2.537,0.685,4,0.515c2.109-0.245,1.334-3.246,1.27-4.722c-0.113-2.618-0.343-5.206-0.495-7.808
			c1.963-0.663,4.13-0.93,6.061-1.12c3.963-0.39,7.475,0.49,11.211,1.683c1.12,0.358,2.157,0.943,3.185,1.546
			c3.525,5.972,5.768,13.433,1.056,19.061c-6.265,7.484-15.911,3.589-22.731-1.16c-1.5-1.535-2.896-2.884-3.759-3.532
			c-0.032-0.032-0.064-0.063-0.095-0.095c0.016,0.02,0.033,0.041,0.048,0.061c-0.415-0.305-0.702-0.443-0.803-0.342
			c-0.029,0.03,1.7,1.792,3.632,3.73c8.434,9.478,23.285,21.113,33.266,9.191C86.948,96.004,82.651,87.596,79.803,82.39z
			 M76.481,54.078c-0.868-0.868-1.737-1.737-2.605-2.605C74.954,52.387,76.163,53.468,76.481,54.078z"/>
	</g>
	<g>
		<g>
			<g>
				<path d="M88.243,110.924c-1.195-1.915-2.489-4.174-4.135-5.736c-3.031-2.876-7.006-2.392-10.753-1.546
					c-0.601-0.883-1.227-1.792-1.996-2.487c-0.284-0.256-0.585-0.471-0.892-0.669l-7.62-1.245c0.592,0.945,3.068,4.812,3.477,4.805
					c2.249-0.041,4.487-0.013,6.613,0.805c0.093,0.036,0.183,0.078,0.273,0.12c0.031,0.229,0.058,0.459,0.074,0.685
					c0.292,4.004-3.092,7.102-6.692,8.037c-4.546,1.181-9.153-1.174-12.422-4.165c-0.694-0.635-1.335-1.332-1.94-2.055
					c-0.076-0.118-0.154-0.235-0.228-0.353c-0.402-0.63-0.795-1.266-1.189-1.901c-1.339-2.155-2.677-4.311-4.016-6.466
					c-0.514-0.827-1.091-1.62-1.669-2.408l-0.38-0.062c3.026,4.881,6.066,9.739,9.558,14.314c3.603,4.721,8.527,8.944,14.862,8.295
					c5.185-0.531,9.129-5.677,7.17-10.661c2.5-0.579,4.939-0.995,7.51-0.491c0.535,0.128,1.053,0.31,1.551,0.544
					c0.141,0.058,0.265,0.121,0.382,0.186c0.177,0.895,0.17,1.834,0.103,2.727c-0.452,6.005-7.153,9.05-12.062,10.615
					c0.471-0.15,2.631,4.725,3.255,4.526c3.79-1.209,7.298-2.767,9.938-5.841C89.155,118.005,90.072,113.855,88.243,110.924z
					 M86.216,108.76C86.811,109.236,86.761,109.593,86.216,108.76L86.216,108.76z"/>
			</g>
		</g>
	</g>
</g>
</svg>
