<?xml version="1.0" encoding="utf-8"?>
<!-- Generator: Adobe Illustrator 17.0.0, SVG Export Plug-In . SVG Version: 6.00 Build 0)  -->
<!DOCTYPE svg PUBLIC "-//W3C//DTD SVG 1.1//EN" "http://www.w3.org/Graphics/SVG/1.1/DTD/svg11.dtd">
<svg version="1.1" id="Layer_1" xmlns="http://www.w3.org/2000/svg" xmlns:xlink="http://www.w3.org/1999/xlink" x="0px" y="0px"
	 width="144px" height="144px" viewBox="0 0 144 144" enable-background="new 0 0 144 144" xml:space="preserve">
<path d="M95.261,74.741c2.483,0,4.968,0,7.451,0c-0.685,0-3.377-4.474-3.874-5.103c-0.605-0.766-3.091-4.903-4.033-4.903
	c-0.149,0-0.298,0-0.448,0c-0.04-2.641-0.259-5.34-0.757-7.649l-0.003-0.008h5.969l-8.794-8.922H29.04l8.794,8.922h45.223
	c0.073,2.535,0.055,5.112,0.106,7.657c-14.7,0-29.4,0-44.099,0c0.685,0,3.378,4.474,3.875,5.103c0.606,0.766,3.09,4.903,4.033,4.903
	c1.672,0,3.345,0,5.017,0c0.541,4.583,1.081,9.166,1.622,13.75c0.392,3.322,0.784,6.644,1.175,9.966
	c-1.67-0.352-3.373-0.5-5.071-0.197c-2.552,0.456-3.488,3.299-1.871,5.051c1.805,1.958,3.859,3.75,5.832,5.557
	c0.69,0.632,1.302,1.205,1.936,1.684c0.039,0.036,0.077,0.073,0.116,0.109c-0.009-0.013-0.015-0.026-0.024-0.039
	c1.085,0.801,2.247,1.315,3.988,1.334c1.228,0.014,2.565-0.549,3.699-0.92c0.159-0.052-0.449-4.081-0.609-5.205
	c2.763,0.546,5.602,1.782,7.963,2.788c6.8,2.897,12.387,9.396,20.484,8.306c8.182-1.102,6.784-12.167,6.655-17.612
	C97.689,91.08,96.473,82.888,95.261,74.741z M88.755,105.306c-2.11,5.598-9.676,4.646-14.096,2.635
	c-2.666-1.213-5.035-3.033-7.507-4.548c-1.577-0.966-3.243-1.786-4.959-2.505c-0.246-2.087-0.493-4.174-0.739-6.261
	c-0.782-6.629-1.564-13.257-2.346-19.886c8.838,0,17.675,0,26.513,0c0.787,0.233,1.772,0.446,2.773,0.646
	c0.479,3.648,0.904,7.302,1.194,10.97C90.063,92.338,90.924,99.55,88.755,105.306z"/>
</svg>
