<?xml version="1.0" encoding="utf-8"?>
<!-- Generator: Adobe Illustrator 17.0.0, SVG Export Plug-In . SVG Version: 6.00 Build 0)  -->
<!DOCTYPE svg PUBLIC "-//W3C//DTD SVG 1.1//EN" "http://www.w3.org/Graphics/SVG/1.1/DTD/svg11.dtd">
<svg version="1.1" id="Layer_1" xmlns="http://www.w3.org/2000/svg" xmlns:xlink="http://www.w3.org/1999/xlink" x="0px" y="0px"
	 width="144px" height="144px" viewBox="0 0 144 144" enable-background="new 0 0 144 144" xml:space="preserve">
<g>
	<path d="M68.471,56.194c7.494,2.155-3.705,9.005-7.57,9.825c-3.857,0.818-2.106,2.193-1.286-1.519
		c0.978-4.429,4.703-7.741,8.062-10.391c2.76-2.177,6.304-2.85,9.643-3.445c2.309-0.205,4.577,0.013,6.804,0.654
		c5.631,4.295,7.17,4.355,4.618,0.178c3.291,10.079-5.315,16.621-11.763,21.946c-0.592,0.489,7.388,14.558,8.968,14.352
		c7.56-0.988,13.277,0.16,19.596,4.745c-2.902-4.644-5.804-9.288-8.706-13.932c1.84,18.802-20.357,30.136-33.444,15.008
		c-2.169-2.507,0.688,2.645,0.955,3.113c1.935,3.4,3.965,7.093,6.545,10.059c11.042,12.692,37.329,9.839,35.236-11.218
		C104.7,81.172,90.893,71.158,76.98,73.443c2.989,4.784,5.979,9.568,8.968,14.352c7.733-6.778,12.996-11.511,11.73-22.595
		c-0.714-6.254-6.438-13.521-10.021-18.453c-5.754-7.918-12.978-11.85-22.895-10.169c-10.628,1.802-16.32,12.763-14.46,22.522
		c2.32,12.168,17.062,29.14,28.089,15.365c7.508-9.38-10.04-29.569-18.467-31.951C63.109,43.414,64.189,54.962,68.471,56.194
		L68.471,56.194z"/>
</g>
</svg>
