<?xml version="1.0" encoding="utf-8"?>
<!-- Generator: Adobe Illustrator 17.0.0, SVG Export Plug-In . SVG Version: 6.00 Build 0)  -->
<!DOCTYPE svg PUBLIC "-//W3C//DTD SVG 1.1//EN" "http://www.w3.org/Graphics/SVG/1.1/DTD/svg11.dtd">
<svg version="1.1" id="Layer_1" xmlns="http://www.w3.org/2000/svg" xmlns:xlink="http://www.w3.org/1999/xlink" x="0px" y="0px"
	 width="144px" height="144px" viewBox="0 0 144 144" enable-background="new 0 0 144 144" xml:space="preserve">
<path d="M75.874,62.995c-2.825,0.385-5.295,1.514-7.426,3.153c0-4.199,0-8.396,0-12.594h-7.802
	c0.136,7.506,0.782,19.65,1.509,20.485c-0.987,1.931-1.785,3.992-2.393,6.091c-0.25-0.287-0.503-0.574-0.766-0.862
	c-3.986-4.373-7.897-9.995-13.953-10.454c-6.763-0.513-11.114,6.582-11.9,12.958c-0.896,7.266,3.239,13.794,7.595,18.776
	c2.144,2.453,4.346,4.849,6.575,7.211c0.259,0.275,3.607,3.729,1.865,1.737c-6.238-7.136-9.207-18.167-2.758-26.284
	c2.529-3.183,6.584-4.255,10.264-3.618c0.768,2.067,1.297,4.27,1.862,6.378c0.471,1.754,3.6,4.116,4.735,5.348
	c0.153,0.166,0.733,0.696,1.442,1.356c1.162,1.261,2.324,2.522,3.486,3.782c0.904-7.066,3.387-13.472,8.251-18.193
	c1.713,1.795,3.426,3.59,5.138,5.384c3.315,3.473,6.501,7.414,10.532,9.931c4.188,2.614,8.425,0.283,9.817-4.356
	c1.308-4.358-1.129-8.803-3.761-11.861C92.014,70.19,85.828,61.642,75.874,62.995z M84.173,82.759
	c-2.584-0.714-4.988-3.024-7.173-5.472c0.428-0.412,0.868-0.816,1.334-1.201c2.998-2.481,6.718-3.592,10.427-3.747
	c1.401-0.058,2.769,0.26,4.101,0.693C94.048,78.78,90.299,84.45,84.173,82.759z"/>
</svg>
