<?xml version="1.0" encoding="utf-8"?>
<!-- Generator: Adobe Illustrator 17.0.0, SVG Export Plug-In . SVG Version: 6.00 Build 0)  -->
<!DOCTYPE svg PUBLIC "-//W3C//DTD SVG 1.1//EN" "http://www.w3.org/Graphics/SVG/1.1/DTD/svg11.dtd">
<svg version="1.1" id="Layer_1" xmlns="http://www.w3.org/2000/svg" xmlns:xlink="http://www.w3.org/1999/xlink" x="0px" y="0px"
	 width="144px" height="144px" viewBox="0 0 144 144" enable-background="new 0 0 144 144" xml:space="preserve">
<path d="M93,70.159c-6.226,6.436-12.853,12.886-22.108,14.188c-4.817,0.677-9.776-0.197-14.243-2.036
	c-2.068-0.852-4.014-1.981-5.857-3.242c-0.797-0.546-1.558-1.143-2.306-1.754c-1.702-1.574-3.423-3.129-4.91-4.878
	c2.832,3.33,6.033,6.355,9.138,9.424c0.047,0.047,0.095,0.093,0.143,0.139c1.072,1.082,1.592,1.589,1.544,1.504
	c1.556,1.491,3.154,2.925,4.906,4.202c4.368,3.185,9.508,5.168,14.887,5.687c5.527,0.534,10.92-0.887,15.643-3.734
	c4.6-2.773,8.393-6.733,12.1-10.564C102.051,78.977,93.018,70.141,93,70.159z"/>
</svg>
