<?xml version="1.0" encoding="utf-8"?>
<!-- Generator: Adobe Illustrator 17.0.0, SVG Export Plug-In . SVG Version: 6.00 Build 0)  -->
<!DOCTYPE svg PUBLIC "-//W3C//DTD SVG 1.1//EN" "http://www.w3.org/Graphics/SVG/1.1/DTD/svg11.dtd">
<svg version="1.1" id="Layer_1" xmlns="http://www.w3.org/2000/svg" xmlns:xlink="http://www.w3.org/1999/xlink" x="0px" y="0px"
	 width="144px" height="144px" viewBox="0 0 144 144" enable-background="new 0 0 144 144" xml:space="preserve">
<g>
	<path d="M65.799,102.832l-0.006-24.029c-2.202-0.008-4.422-0.019-6.643-0.03c-3.483-0.019-6.96-0.038-10.42-0.106
		c-0.96-0.019-5.535-7.239-5.73-7.546l22.812,0.376l-0.019-14.82L44.16,56.695l-9.165-9.133l53.345-0.034l9.165,9.133l-22.545,0.034
		l0.019,14.953c2.857,0.121,7.091,0.547,10.665,2.57c4.276,2.414,8.663,6.643,11.445,11.031c4.054,6.381,2.813,14.975,1.991,20.662
		c-0.353-0.175-7.877-5.011-7.772-5.895l0.182-1.496c0.376-3.044,0.765-6.184,0.596-9.247c-0.313-5.664-3.95-9.331-9.731-9.805
		c-2.278-0.186-4.707-0.326-7.395-0.437l0.019,33.572L65.799,102.832z"/>
	<path d="M88.34,47.547l9.152,9.129H74.961v14.971c3.301,0.163,7.294,0.672,10.674,2.585c4.271,2.414,8.655,6.639,11.437,11.027
		c4.047,6.37,2.811,14.956,1.989,20.647l-0.004,0.019c0,0-7.835-5.026-7.731-5.907l0.182-1.496c0.376-3.041,0.765-6.184,0.596-9.251
		c-0.313-5.679-3.955-9.35-9.748-9.824c-2.278-0.186-4.707-0.326-7.397-0.437v33.542l-9.148-9.737V78.803
		c-2.221-0.027-4.441-0.038-6.662-0.049c-3.481-0.019-6.958-0.038-10.42-0.106c-0.96-0.019-5.713-7.539-5.713-7.539h0.006
		l22.789,0.406V56.676H44.16l-9.152-9.129H88.34 M88.356,47.508H88.34H35.008h-0.094l0.066,0.066l9.152,9.129l0.011,0.011h0.016
		h21.614v14.76l-22.75-0.405l-0.072-0.001l0.033,0.061c0.194,0.307,4.775,7.538,5.745,7.557c3.464,0.068,7,0.087,10.421,0.106
		c2.171,0.011,4.415,0.023,6.623,0.048v23.976v0.015l0.011,0.011l9.148,9.737L75,112.651v-0.098V79.053
		c2.75,0.113,5.156,0.255,7.355,0.435c5.77,0.473,9.401,4.131,9.713,9.787c0.168,3.061-0.219,6.199-0.595,9.234l-0.184,1.506
		c-0.106,0.895,7.427,5.739,7.748,5.944l0.046,0.029l0.013-0.052l0-0.002l0.004-0.021c0.822-5.688,2.063-14.285-1.995-20.673
		c-2.784-4.391-7.172-8.622-11.451-11.041c-3.562-2.016-7.779-2.444-10.655-2.588V56.715h22.492h0.094l-0.066-0.066l-9.152-9.129
		L88.356,47.508L88.356,47.508z"/>
</g>
</svg>
