<?xml version="1.0" encoding="utf-8"?>
<!-- Generator: Adobe Illustrator 17.0.0, SVG Export Plug-In . SVG Version: 6.00 Build 0)  -->
<!DOCTYPE svg PUBLIC "-//W3C//DTD SVG 1.1//EN" "http://www.w3.org/Graphics/SVG/1.1/DTD/svg11.dtd">
<svg version="1.1" id="Layer_1" xmlns="http://www.w3.org/2000/svg" xmlns:xlink="http://www.w3.org/1999/xlink" x="0px" y="0px"
	 width="144px" height="144px" viewBox="0 0 144 144" enable-background="new 0 0 144 144" xml:space="preserve">
<g>
	<g>
		<g>
			<g>
				<path d="M101.513,96.86c-1.271-2.037-2.648-4.44-4.399-6.101c-3.224-3.059-7.452-2.545-11.437-1.644
					c-0.639-0.939-1.305-1.906-2.123-2.645c-0.302-0.273-0.622-0.501-0.949-0.712L74.5,84.434c0.629,1.006,3.263,5.119,3.699,5.111
					c2.392-0.043,4.772-0.014,7.034,0.857c0.099,0.038,0.195,0.083,0.291,0.128c0.033,0.244,0.061,0.488,0.079,0.729
					c0.311,4.259-3.289,7.554-7.119,8.549c-4.836,1.256-9.736-1.249-13.213-4.43c-0.738-0.675-1.42-1.417-2.064-2.186
					c-0.08-0.126-0.163-0.249-0.243-0.375c-0.428-0.67-0.846-1.347-1.265-2.022c-1.424-2.292-2.848-4.585-4.272-6.878
					c-0.546-0.88-1.161-1.723-1.775-2.561l-0.404-0.066c3.218,5.192,6.453,10.36,10.167,15.226
					c3.832,5.021,9.071,9.514,15.808,8.823c5.515-0.565,9.711-6.039,7.627-11.34c2.659-0.616,5.253-1.059,7.989-0.522
					c0.57,0.137,1.12,0.33,1.65,0.579c0.15,0.062,0.282,0.129,0.406,0.197c0.189,0.952,0.181,1.95,0.109,2.9
					c-0.481,6.388-7.608,9.626-12.83,11.291c0.5-0.16,2.799,5.026,3.462,4.814c4.032-1.286,7.763-2.943,10.572-6.213
					C102.483,104.392,103.459,99.978,101.513,96.86z M99.357,94.558C99.99,95.065,99.937,95.444,99.357,94.558L99.357,94.558z"/>
			</g>
		</g>
	</g>
	<g>
		<path d="M89.038,58.995c-0.329-0.38-1.221-1.679-2.111-2.772h-55.28c0.919,1.186,1.9,2.63,2.18,2.952
			c0.598,0.691,3.053,4.419,3.983,4.419c2.661,0,5.322,0,7.982,0c0,12.411,0,24.821,0,37.232H35.018l14.527,13.008
			c1.163,1.041,3.01,0.216,3.01-1.345v-2.037v-9.626V72.81c0.22,0.281,0.429,0.57,0.656,0.846
			c3.556,4.316,8.019,9.121,12.938,11.885c5.188,2.915,10.657,0.713,13.984-3.772c3.715-5.009,3.801-12.246,2.489-18.174
			c0.759,0,1.518,0,2.277,0c2.655,0,5.311,0,7.966,0C92.188,63.595,89.529,59.562,89.038,58.995z M66.737,79.86
			c-1.706,0.503-3.579,0.413-5.27-0.104c-2.963-0.907-4.61-3.383-6.094-5.891c-0.505-0.854-0.988-1.722-1.455-2.597
			c-0.337-0.631-1.363-1.947-1.363-2.652v-5.021c7.993,0,15.986,0,23.979,0C76.458,70.599,73.885,77.753,66.737,79.86z"/>
	</g>
</g>
</svg>
