<?xml version="1.0" encoding="utf-8"?>
<!-- Generator: Adobe Illustrator 17.0.0, SVG Export Plug-In . SVG Version: 6.00 Build 0)  -->
<!DOCTYPE svg PUBLIC "-//W3C//DTD SVG 1.1//EN" "http://www.w3.org/Graphics/SVG/1.1/DTD/svg11.dtd">
<svg version="1.1" id="Layer_1" xmlns="http://www.w3.org/2000/svg" xmlns:xlink="http://www.w3.org/1999/xlink" x="0px" y="0px"
	 width="144px" height="144px" viewBox="0 0 144 144" enable-background="new 0 0 144 144" xml:space="preserve">
<path fill="#070808" d="M83.901,106.266c-7.312-7.294-14.623-14.589-21.935-21.884c-1.977-1.973-3.958-4.144-5.998-6.308
	c-0.229-0.993-0.523-1.952-0.616-2.528c-0.44-2.721-0.88-5.441-1.32-8.162c3.903,3.916,8.253,7.441,12.773,9.84
	c4.524,2.401,10.283,3.753,14.639,0.455c4.437-3.359,2.949-10.583,2.003-15.086c-0.346-1.648-4.077-4.289-5.197-5.409
	c-0.964-0.963-5.128-3.857-5.409-5.197c1.288,6.128,2.148,13.46-4.545,16.61c-2.79,1.313-6.506,0.146-9.216-0.748
	c-1.491-0.492-2.885-1.234-4.266-1.967c-0.442-0.25-0.865-0.527-1.291-0.8c-0.901-1.6-4.041-3.887-4.964-4.81
	c-0.361-0.361-1.287-1.081-2.273-1.891c-0.19-0.219-0.369-0.434-0.523-0.641c0.137,0.185,0.281,0.371,0.421,0.557
	c-1.415-1.167-2.917-2.5-3.034-3.222c0.638,3.946,1.276,7.892,1.914,11.838c0.095,0.59,0.296,1.188,0.45,1.747
	c-0.992-0.668-2.009-1.282-3.06-1.818c-1.787-0.91-3.671-0.926-5.595-0.65c-0.172,0.025,3.152,3.899,6.363,7.439
	c0.468,0.78,1.375,1.812,2.944,3.173c0.605,0.633,1.156,1.194,1.6,1.621c2.191,2.105,4.171,3.456,7.342,3.334
	c1.107-0.043,1.262-1.113,1.1-2.388c0.157,0.107,0.314,0.214,0.47,0.322c-0.813-1.069-0.492-0.802,0.963,0.799
	c1.828,1.824,3.656,3.647,5.484,5.471c6.855,6.839,13.709,13.677,20.564,20.516c0.279,0.278,5.284,5.322,5.409,5.197
	C89.223,111.551,84.18,106.544,83.901,106.266z"/>
</svg>
