<?xml version="1.0" encoding="utf-8"?>
<!-- Generator: Adobe Illustrator 17.0.0, SVG Export Plug-In . SVG Version: 6.00 Build 0)  -->
<!DOCTYPE svg PUBLIC "-//W3C//DTD SVG 1.1//EN" "http://www.w3.org/Graphics/SVG/1.1/DTD/svg11.dtd">
<svg version="1.1" id="Layer_1" xmlns="http://www.w3.org/2000/svg" xmlns:xlink="http://www.w3.org/1999/xlink" x="0px" y="0px"
	 width="144px" height="144px" viewBox="0 0 144 144" enable-background="new 0 0 144 144" xml:space="preserve">
<g>
	<g>
		<g>
			<g>
				<path d="M88.672,107.583c0.123-0.002-0.496-0.622-1.857-1.861c-0.793-0.822-1.602-1.746-2.554-2.359
					c-0.288-0.186-0.585-0.332-0.885-0.463h-6.913c0.659,0.75,3.406,3.809,3.766,3.744c1.981-0.361,3.963-0.659,5.959-0.243
					c0.088,0.018,0.173,0.042,0.259,0.066c0.061,0.198,0.117,0.397,0.165,0.595c0.836,3.496-1.707,6.722-4.753,8.068
					c-3.847,1.7-8.257,0.284-11.578-1.886c-0.705-0.461-1.372-0.984-2.011-1.536c-0.084-0.093-0.17-0.185-0.253-0.279
					c-0.446-0.499-0.885-1.004-1.325-1.508c-1.494-1.711-2.988-3.423-4.482-5.134c-0.573-0.657-1.198-1.274-1.823-1.887h-0.344
					c3.378,3.876,6.767,7.73,10.512,11.269c3.865,3.651,8.826,6.672,14.33,5.184c4.621-1.25,7.39-6.602,4.598-10.773
					C89.248,108.227,88.966,107.901,88.672,107.583z"/>
			</g>
		</g>
	</g>
	<g>
		<g>
			<path d="M93.901,70.71c-2.8-3.419-6.057-7.293-9.83-9.719c-1.226-0.788-2.591-1.31-4.001-1.577
				c-0.23-3.055-0.46-6.109-0.69-9.164h15.491l-8.296-8.296H33.186l8.296,8.296h8.972v51.643l7.198,7.198h0.291V50.25h15.039
				c0.159,2.11,0.318,4.22,0.476,6.329c0.034,0.449,0.205,1.812,0.281,3.363c-0.801,0.3-1.569,0.688-2.283,1.17
				c-4.357,2.939,2.317,7.842,4.302,9.905c1.069,1.112,2.017,2.573,3.735,2.126c1.795-0.468,1.305-4.053,1.217-5.233
				c-0.016-0.212-0.032-0.425-0.048-0.638c2.132-0.873,4.601-0.766,6.81-0.317c0.758,0.154,1.478,0.441,2.184,0.75
				c0.736,1.887,1.033,3.946,1.123,5.94c0.384,8.525-5.36,15.362-11.717,20.923c-3.654,3.197-3.788,9.258-0.224,12.521
				c0.251,0.23,0.417,0.349,0.463,0.313c8.211-6.341,16.996-13.482,18.353-24.332C98.209,78.62,96.728,74.163,93.901,70.71z"/>
		</g>
	</g>
</g>
</svg>
