<?xml version="1.0" encoding="utf-8"?>
<!-- Generator: Adobe Illustrator 17.0.0, SVG Export Plug-In . SVG Version: 6.00 Build 0)  -->
<!DOCTYPE svg PUBLIC "-//W3C//DTD SVG 1.1//EN" "http://www.w3.org/Graphics/SVG/1.1/DTD/svg11.dtd">
<svg version="1.1" id="Layer_1" xmlns="http://www.w3.org/2000/svg" xmlns:xlink="http://www.w3.org/1999/xlink" x="0px" y="0px"
	 width="144px" height="144px" viewBox="0 0 144 144" enable-background="new 0 0 144 144" xml:space="preserve">
<g>
	<g>
		<path d="M88.705,80.935c-1.942-3.55-5.238-6.352-8.06-9.158c-0.647-0.644-1.297-1.286-1.949-1.926
			c-0.127-0.124-0.801-0.771-1.09-1.037c-0.882-0.933-1.83-1.965-2.837-2.611c-4.66-2.987-9.566-4.783-14.799-4.963
			c0.004-0.287,0.004-0.574,0.01-0.861c0.045-2.292-0.603-4.376-0.729-6.632c-0.024-0.434-0.636-1.135-1.398-1.86
			c2.359,0.076,4.721,0.135,7.09,0.135c3.499,0,6.975,0.345,10.471,0.345c3.102,0,7.035-0.639,10.01,0.333
			c0.029,0.069,0.046,0.131,0.046,0.184c0-0.057,0-0.115,0-0.172c0-0.978-3.706-3.794-4.347-4.435
			c-1.053-1.053-2.971-3.859-4.435-4.347c-2.979-0.993-6.938-0.345-10.056-0.345c-3.495,0-6.972-0.341-10.471-0.345
			c-7.156-0.009-14.249-0.517-21.389-0.517c0.835,0,3.766,3.854,4.347,4.435c0.641,0.641,3.457,4.347,4.435,4.347
			c2.517,0,5.028,0.066,7.538,0.149c0.05,0.749,0.077,1.507,0.067,2.281c-0.037,2.836-0.02,5.673,0.083,8.507
			c-2.25,0.769-3.992,1.984-5.365,4.347c-1.347,2.317-0.811,5.561,0.762,7.629c-0.034-0.022-0.071-0.038-0.104-0.061
			c0.078,0.078,0.157,0.157,0.235,0.235c0.11,0.135,0.224,0.264,0.342,0.387c2.552,2.64,5.169,6.083,8.205,8.16
			c1.262,0.864,2.537,0.685,4,0.515c2.109-0.245,1.334-3.246,1.27-4.722c-0.113-2.618-0.343-5.206-0.495-7.808
			c1.963-0.663,4.13-0.93,6.061-1.12c3.963-0.39,7.475,0.49,11.211,1.683c1.12,0.358,2.157,0.943,3.185,1.546
			c3.525,5.972,5.768,13.433,1.056,19.061c-6.265,7.484-15.911,3.589-22.731-1.16c-1.5-1.535-2.896-2.884-3.759-3.532
			c-0.032-0.032-0.064-0.063-0.095-0.095c0.016,0.02,0.033,0.041,0.048,0.061c-0.415-0.305-0.702-0.443-0.803-0.342
			c-0.029,0.03,1.7,1.792,3.632,3.73c8.434,9.478,23.285,21.113,33.266,9.191C95.849,94.548,91.553,86.14,88.705,80.935z
			 M85.383,52.623c-0.868-0.868-1.737-1.737-2.605-2.605C83.856,50.931,85.065,52.012,85.383,52.623z"/>
	</g>
	<g>
		<g>
			<g>
				<path d="M85.973,105.939c0.132-0.002-0.532-0.667-1.991-1.996c-0.851-0.881-1.718-1.872-2.738-2.529
					c-0.309-0.199-0.627-0.356-0.949-0.496h-7.412c0.707,0.804,3.651,4.084,4.038,4.013c2.124-0.387,4.248-0.707,6.389-0.261
					c0.094,0.019,0.186,0.045,0.277,0.071c0.065,0.212,0.126,0.426,0.176,0.637c0.897,3.748-1.83,7.206-5.096,8.65
					c-4.124,1.823-8.852,0.305-12.412-2.022c-0.756-0.494-1.47-1.055-2.156-1.646c-0.09-0.1-0.182-0.198-0.271-0.299
					c-0.479-0.535-0.949-1.076-1.421-1.617c-1.602-1.834-3.204-3.669-4.805-5.504c-0.615-0.704-1.285-1.366-1.954-2.023H55.28
					c3.622,4.156,7.254,8.287,11.27,12.081c4.144,3.914,9.463,7.153,15.363,5.557c4.954-1.34,7.923-7.078,4.93-11.55
					C86.591,106.63,86.289,106.28,85.973,105.939z"/>
			</g>
		</g>
	</g>
</g>
</svg>
