<?xml version="1.0" encoding="utf-8"?>
<!-- Generator: Adobe Illustrator 17.0.0, SVG Export Plug-In . SVG Version: 6.00 Build 0)  -->
<!DOCTYPE svg PUBLIC "-//W3C//DTD SVG 1.1//EN" "http://www.w3.org/Graphics/SVG/1.1/DTD/svg11.dtd">
<svg version="1.1" id="Layer_1" xmlns="http://www.w3.org/2000/svg" xmlns:xlink="http://www.w3.org/1999/xlink" x="0px" y="0px"
	 width="144px" height="144px" viewBox="0 0 144 144" enable-background="new 0 0 144 144" xml:space="preserve">
<g>
	<g>
		<g>
			<g>
				<path d="M95.21,107.718c-1.539-2.466-3.206-5.376-5.325-7.386c-3.904-3.704-9.022-3.081-13.847-1.99
					c-0.774-1.137-1.58-2.307-2.571-3.202c-0.366-0.33-0.753-0.607-1.149-0.862l-9.813-1.604c0.762,1.218,3.951,6.197,4.478,6.188
					c2.896-0.052,5.778-0.017,8.516,1.037c0.12,0.046,0.236,0.1,0.352,0.154c0.04,0.295,0.074,0.591,0.096,0.882
					c0.377,5.156-3.982,9.146-8.618,10.35c-5.855,1.521-11.787-1.512-15.997-5.363c-0.893-0.817-1.719-1.715-2.499-2.646
					c-0.097-0.152-0.198-0.302-0.294-0.455c-0.518-0.811-1.024-1.631-1.532-2.448c-1.724-2.775-3.448-5.551-5.172-8.327
					c-0.661-1.065-1.405-2.086-2.149-3.101l-0.489-0.08c3.896,6.286,7.812,12.542,12.308,18.434
					c4.64,6.079,10.982,11.518,19.139,10.682c6.677-0.684,11.756-7.311,9.233-13.729c3.219-0.745,6.36-1.282,9.672-0.632
					c0.69,0.165,1.355,0.399,1.997,0.701c0.182,0.075,0.342,0.156,0.491,0.239c0.229,1.153,0.219,2.361,0.132,3.512
					c-0.582,7.733-9.211,11.654-15.533,13.67c0.606-0.193,3.389,6.085,4.191,5.829c4.881-1.556,9.398-3.563,12.799-7.522
					C96.385,116.836,97.566,111.492,95.21,107.718z M92.6,104.931C93.366,105.544,93.302,106.003,92.6,104.931L92.6,104.931z"/>
			</g>
		</g>
	</g>
	<path d="M91.762,46.889c-0.139-0.179-0.24-0.306-0.282-0.358c-0.567-0.687-2.095-3.569-3.007-3.57
		c-9.551-0.002-19.061,0.265-28.611,0c-2.9-0.083-5.788,0.169-8.695,0.087c-3.298-0.093-6.597-0.085-9.896-0.087
		c-0.067,0-0.134,0-0.2,0c0.58,0,2.857,3.736,3.277,4.17c0.512,0.529,2.614,3.387,3.411,3.387c3.071,0,6.143,0,9.214,0
		c0,4.409,0,8.818,0,13.227h-8.52l15.332,18.982V69.251v-5.505v-9.354h-0.073c0-1.291,0-2.582,0-3.873c3.241,0,6.482,0,9.723,0
		v39.629c0,1.504,0,3.007,0,4.511c0,1.185,0,2.37,0,3.555c0,0.942,3.262,3.427,3.866,4.033c0.367,0.367,2.39,1.935,3.421,3.004
		c0.363,0.377,0.603,0.692,0.603,0.871c0-2.689,0-5.377,0-8.066c0-16.992,0-32.837,0-47.537c2.253,0,4.506,0,6.759,0
		c1.066,0,2.131,0,3.197,0c0.962,0,2.464,0.26,3.316-0.09C94.525,50.459,92.537,47.882,91.762,46.889z"/>
</g>
</svg>
