<?xml version="1.0" encoding="utf-8"?>
<!-- Generator: Adobe Illustrator 17.0.0, SVG Export Plug-In . SVG Version: 6.00 Build 0)  -->
<!DOCTYPE svg PUBLIC "-//W3C//DTD SVG 1.1//EN" "http://www.w3.org/Graphics/SVG/1.1/DTD/svg11.dtd">
<svg version="1.1" id="Layer_1" xmlns="http://www.w3.org/2000/svg" xmlns:xlink="http://www.w3.org/1999/xlink" x="0px" y="0px"
	 width="144px" height="144px" viewBox="0 0 144 144" enable-background="new 0 0 144 144" xml:space="preserve">
<path d="M105.303,72.267c-1.96-3.569-5.365-7.077-8.547-9.479c-3.278-2.474-7.027-2.22-9.878,0.571
	c-0.205,0.227-0.411,0.454-0.618,0.699c-3.912,4.425-7.823,8.85-11.735,13.274c-1.058-2.148-2.149-4.275-3.334-6.329
	c-2.089-3.62-5.237-6.528-8.281-9.271c-3.906-3.521-7.742,0.849-9.706,4.309c-1.366,2.408-2.265,5.217-2.189,7.953
	c-5.944-6.874-13.652-11.703-18.958-1.904c-3.067,5.664-1.859,13.228,1.738,18.249c1.924,2.687,4.524,5.014,6.907,7.242
	c1.946,1.819,4.09,3.256,6.708,3.678c-0.606-0.098-9.626-8.075-10.386-10.821c-1.028-3.711-0.631-7.828,0.719-11.378
	c1.352-3.553,4.401-6.029,8.03-6.426c0.852-0.093,5.22,3.456,5.931,4.825c0.234,0.593,4.757,5.649,5.376,6.156
	c0.452,0.453,0.905,0.907,1.357,1.36c0.043,0.065,0.096,0.131,0.128,0.195c-0.228-0.444-0.486-0.924-0.769-1.43
	c-1.436-3.293-0.78-7.169,0.67-10.337c1.334-2.915,3.959-6.944,7.587-6.841c0.51,0,2.621,5.255,2.991,5.989
	c1.502,2.983,2.912,6.083,5.078,8.659c0.328,0.39,4.206,4.705,4.445,4.432c4.742-5.407,9.483-10.814,14.225-16.221
	c1.201-1.37,5.374-3.712,7.019-1.954c0.441,0.471,0.625,1.123,0.767,1.752c1.84,8.158-1.5,17.769-10.136,20.351
	c0.148-0.044,2.613,2.885,2.82,3.095c0.332,0.336,2.513,3,3.048,2.85C105.374,92.986,109.964,80.754,105.303,72.267z M49.755,73.683
	L49.755,73.683"/>
</svg>
