<?xml version="1.0" encoding="utf-8"?>
<!-- Generator: Adobe Illustrator 17.0.0, SVG Export Plug-In . SVG Version: 6.00 Build 0)  -->
<!DOCTYPE svg PUBLIC "-//W3C//DTD SVG 1.1//EN" "http://www.w3.org/Graphics/SVG/1.1/DTD/svg11.dtd">
<svg version="1.1" id="Layer_1" xmlns="http://www.w3.org/2000/svg" xmlns:xlink="http://www.w3.org/1999/xlink" x="0px" y="0px"
	 width="144px" height="144px" viewBox="0 0 144 144" enable-background="new 0 0 144 144" xml:space="preserve">
<path d="M91.172,60.699c-7.132-4.661-13.937-7.841-22.625-6.562C58.4,55.63,49.994,67.014,47.608,76.824
	c-0.048,0.197,0.024,0.431,0.18,0.689l-9.056-5.487l12.601-23.742H37.895l-9.521,17.94l-0.357,0.671l-0.51,0.962l23.766,12.564
	c3.238,2.094,6.927,4.396,10.593,5.704c-1.118-0.401,5.554-9.131,6.091-9.812c3.444-4.373,7.987-8.085,13.36-10.066
	c3.317-1.222,7.222-2.191,10.789-1.639c6.052,0.937,5.625,9.038,5.558,13.438C97.561,85.013,94.624,91.824,91,97.893l13.974,13.973
	c0.042,0.011,0.071,0.014,0.08,0.001c5.535-8.246,10.472-24.538,6.369-33.622C107.742,70.098,98.136,65.249,91.172,60.699z"/>
</svg>
