<?xml version="1.0" encoding="utf-8"?>
<!-- Generator: Adobe Illustrator 17.0.0, SVG Export Plug-In . SVG Version: 6.00 Build 0)  -->
<!DOCTYPE svg PUBLIC "-//W3C//DTD SVG 1.1//EN" "http://www.w3.org/Graphics/SVG/1.1/DTD/svg11.dtd">
<svg version="1.1" id="Layer_1" xmlns="http://www.w3.org/2000/svg" xmlns:xlink="http://www.w3.org/1999/xlink" x="0px" y="0px"
	 width="144px" height="144px" viewBox="0 0 144 144" enable-background="new 0 0 144 144" xml:space="preserve">
<g>
	<path d="M58.906,36.155c0.231,3.936-1.666,6.915-6.616,3.909c2.54,3.902,5.079,7.803,7.619,11.705
		c-2.2-4.318,3.097-7.162,5.856-8.788c2.335-0.787,4.701-0.897,7.099-0.329c7.613,2.901,8.267,3.765,1.961,2.594
		c-0.487,5.808-6.099,12.073-9.006,16.863c-3.042,5.013-4.116,10.655-4.793,16.374c-1.816,15.34,7.979,30.039,16.684,41.721
		c1.809,2.427,2.197,2.231,0.759-0.474c-2-3.761-4.32-7.367-6.776-10.844c-4.3-6.086-0.612-21.203,1.561-27.984
		c3.009-9.389,10.151-15.514,11.036-25.769c0.546-6.324-7.214-16.671-11.31-21.011c-8.939-9.472-27.562-6.441-20.034,8.066
		c1.533,2.955,15.577,22.662,14.509,7.648C67.1,44.852,59.151,40.331,58.906,36.155L58.906,36.155z"/>
</g>
</svg>
