<?xml version="1.0" encoding="utf-8"?>
<!-- Generator: Adobe Illustrator 17.0.0, SVG Export Plug-In . SVG Version: 6.00 Build 0)  -->
<!DOCTYPE svg PUBLIC "-//W3C//DTD SVG 1.1//EN" "http://www.w3.org/Graphics/SVG/1.1/DTD/svg11.dtd">
<svg version="1.1" id="Layer_1" xmlns="http://www.w3.org/2000/svg" xmlns:xlink="http://www.w3.org/1999/xlink" x="0px" y="0px"
	 width="144px" height="144px" viewBox="0 0 144 144" enable-background="new 0 0 144 144" xml:space="preserve">
<path d="M71,46.071c0,6.206,0,12.411,0,18.617c-0.019,0-0.038,0-0.057,0c-8.508,0-17.016,0-25.524,0l7.962,9.832
	c5.873,0,11.745,0,17.619,0c0,6.569,0,13.138,0,19.708c0,3.342,0,6.685,0,10.028c0,1.172,3.725,4.261,4.415,5.014
	c0.566,0.618,4.595,3.965,4.595,4.817c0-3.343,0-6.686,0-10.028c0-19.33,0-38.658,0-57.988H71z"/>
</svg>
