<?xml version="1.0" encoding="utf-8"?>
<!-- Generator: Adobe Illustrator 17.0.0, SVG Export Plug-In . SVG Version: 6.00 Build 0)  -->
<!DOCTYPE svg PUBLIC "-//W3C//DTD SVG 1.1//EN" "http://www.w3.org/Graphics/SVG/1.1/DTD/svg11.dtd">
<svg version="1.1" id="Layer_1" xmlns="http://www.w3.org/2000/svg" xmlns:xlink="http://www.w3.org/1999/xlink" x="0px" y="0px"
	 width="144px" height="144px" viewBox="0 0 144 144" enable-background="new 0 0 144 144" xml:space="preserve">
<path fill="#070808" d="M118.272,76.834c-0.935-0.007-4.521-4.733-5.197-5.409c-0.823-0.823-4.131-5.187-5.409-5.197
	c-19-0.146-38-0.292-57-0.439c0.934,0.007,4.521,4.733,5.197,5.409c0.823,0.823,4.131,5.187,5.409,5.197
	c2.315,0.018,4.63,0.036,6.946,0.053c6.197,6.881,14.094,13.109,21.76,17.531c4.684,2.702,11.486,6.427,15.939,1.448
	c1.736-1.941,1.785-5.483,2.103-7.902c0.462-3.512,0.924-7.024,1.386-10.536c0.008-0.061-0.018-0.139-0.061-0.225
	C112.321,76.788,115.296,76.811,118.272,76.834z M77.451,83.668C75.975,82.489,75.414,81.818,77.451,83.668L77.451,83.668z
	 M91.006,88.227c-3.112,1.213-7.139-0.785-9.858-2.112c-0.779-0.38-1.591-0.896-2.331-1.419c-1.066-1.218-2.066-2.492-3.03-3.793
	c-1.346-1.815-3.333-3.148-5.36-4.437C79.284,76.534,88.142,76.602,97,76.67C96.436,81.677,95.128,86.62,91.006,88.227z"/>
</svg>
