<?xml version="1.0" encoding="utf-8"?>
<!-- Generator: Adobe Illustrator 17.0.0, SVG Export Plug-In . SVG Version: 6.00 Build 0)  -->
<!DOCTYPE svg PUBLIC "-//W3C//DTD SVG 1.1//EN" "http://www.w3.org/Graphics/SVG/1.1/DTD/svg11.dtd">
<svg version="1.1" id="Layer_1" xmlns="http://www.w3.org/2000/svg" xmlns:xlink="http://www.w3.org/1999/xlink" x="0px" y="0px"
	 width="144px" height="144px" viewBox="0 0 144 144" enable-background="new 0 0 144 144" xml:space="preserve">
<path d="M106.934,69.683c-0.866,0-4.269-3.425-4.897-3.907c-0.569-0.436-2.448-2.295-3.865-3.222
	c0.134-3.167-0.025-6.729-0.726-9.68h6.047l-9.559-9.479H26.831l0.799,0.793c-0.266-0.003-0.533-0.006-0.799-0.009
	c0.288,0.003,0.771,0.221,1.347,0.552l8.212,8.143h49.252c0.092,3.04,0.032,6.14,0.206,9.148c-18.809,0-37.618,0-56.427,0
	c0.866,0,4.269,3.425,4.897,3.907c0.765,0.587,3.906,3.753,5.097,3.753c2.713,0,5.426,0,8.139,0
	c0.705,14.822,1.451,29.642,2.138,44.464c0.045,0.961,4.086,3.285,4.897,3.907c0.67,0.514,5.063,3.039,5.096,3.753
	c-0.797-17.215-1.686-34.428-2.483-51.643c-0.006-0.136-0.098-0.3-0.243-0.481c3.115,0,6.23,0,9.345,0
	c0.661,3.278,1.643,6.512,2.396,9.723c1.649,7.03,6.595,9.377,12.67,11.36c2.877,0.939,4.702,1.964,6.914,1.511
	c0.14,7.088,0.28,14.175,0.425,21.263c0.019,0.934,4.111,3.305,4.897,3.907c0.646,0.495,5.082,3.067,5.096,3.753
	c-0.351-17.172-0.678-34.345-1.029-51.517C100.758,69.683,103.846,69.683,106.934,69.683z M86.119,78.506
	c-0.599,1.441-1.617,2.769-2.911,3.824c-1.968,1.604-5.495,0.767-5.913-1.411c-0.049-0.258-0.101-0.515-0.156-0.771
	c-0.757-3.491-1.641-6.963-2.32-10.465H87.46C87.461,72.669,87.31,75.639,86.119,78.506z"/>
</svg>
