<?xml version="1.0" encoding="utf-8"?>
<!-- Generator: Adobe Illustrator 17.0.0, SVG Export Plug-In . SVG Version: 6.00 Build 0)  -->
<!DOCTYPE svg PUBLIC "-//W3C//DTD SVG 1.1//EN" "http://www.w3.org/Graphics/SVG/1.1/DTD/svg11.dtd">
<svg version="1.1" id="Layer_1" xmlns="http://www.w3.org/2000/svg" xmlns:xlink="http://www.w3.org/1999/xlink" x="0px" y="0px"
	 width="144px" height="144px" viewBox="0 0 144 144" enable-background="new 0 0 144 144" xml:space="preserve">
<path d="M89.285,50.678c-2.299-0.428-4.378-0.138-6.243,0.637c0-1.548,0-3.096,0-4.644H75c0,3.237,0,6.474,0,9.711
	c-1.654-1.452-3.412-2.736-5.309-3.69c-5.819-2.927-12.443-0.76-15.886,4.548c-3.551,5.473-0.488,10.404,3.39,14.379
	c3.946,4.045,8.017,9.44,14.303,8.673c1.311-0.16,2.467-0.633,3.502-1.32c0,8.822,0,17.645,0,26.468c0,0.959,3.325,3.49,3.94,4.106
	c0.506,0.506,4.101,3.246,4.101,3.945c0-14.664,0-29.328,0-43.991c1.836,1.976,3.774,3.875,5.786,5.757
	c4.446,4.157,10.074,5.887,15.097,1.594c4.785-4.09,3.565-10.796-0.204-14.989C99.825,57.525,95.306,51.799,89.285,50.678z
	 M73.948,60.862c-2.839,5.47-6.175,12.222-13.426,11.385c-0.041-0.004-0.081-0.014-0.122-0.019c-0.65-3.11,0.832-6.304,2.691-8.683
	c2.043-2.615,5.215-3.832,8.417-4.086c1.025-0.081,2.051,0.06,3.057,0.27C74.351,60.105,74.144,60.484,73.948,60.862z M75,56.838
	c-0.031-0.035-0.059-0.066-0.09-0.1c0.029,0.032,0.061,0.066,0.09,0.098V56.838z M95.093,69.472
	c-2.239,1.915-5.171,2.231-7.941,1.664c-0.636-0.13-1.255-0.361-1.853-0.649c-0.417-0.656-0.825-1.317-1.233-1.976
	c-0.295-0.476-0.645-0.919-1.025-1.343c0-0.052,0-0.104,0-0.156c0.259-0.491,0.518-0.959,0.778-1.393
	c3.139-5.237,9.11-7.982,14.916-6.532c0.179,0.754,0.28,1.529,0.342,2.298C99.335,64.59,97.412,67.49,95.093,69.472z"/>
</svg>
