<?xml version="1.0" encoding="utf-8"?>
<!-- Generator: Adobe Illustrator 17.0.0, SVG Export Plug-In . SVG Version: 6.00 Build 0)  -->
<!DOCTYPE svg PUBLIC "-//W3C//DTD SVG 1.1//EN" "http://www.w3.org/Graphics/SVG/1.1/DTD/svg11.dtd">
<svg version="1.1" id="Layer_1" xmlns="http://www.w3.org/2000/svg" xmlns:xlink="http://www.w3.org/1999/xlink" x="0px" y="0px"
	 width="144px" height="144px" viewBox="0 0 144 144" enable-background="new 0 0 144 144" xml:space="preserve">
<path d="M103.316,73.904c-0.827-3.373-3.185-6.557-4.972-9.452c-1.306-2.117-2.665-4.273-4.335-6.13
	c2.784-5.696-0.139-11.004-3.208-15.995c-3.034-4.934-5.741-9.587-11.805-10.663c-6.932-1.23-13.08,4.274-17.291,9.015
	c-1.223,1.376,7.656,11.575,7.395,11.834c3.443-3.422,6.846-6.546,11.462-8.266c1.898-0.707,3.973-0.715,5.957-0.545
	c0.37,0.048,0.736,0.117,1.099,0.198c-1.199,5.523-7.258,9.387-12.717,11.919c-1.679,0.634-3.286,1.335-4.747,1.986
	c-0.023,0.01,6.197,12.719,7.607,12.174c1.661-0.642,3.333-1.301,4.957-2.037c3.684-1.338,7.443-2.17,11.512-1.618
	c0.628,0.111,1.24,0.28,1.845,0.476c-0.14,1.234-0.432,2.456-0.807,3.616c-2.144,6.646-8.229,10.007-14.892,11.782
	c-3.342-1.242-7.067-0.686-9.988,1.685c-1.357,0.13-2.666,0.227-3.893,0.306c-0.031,0.002,3.377,6.42,3.617,6.803
	c0.47,0.753,3.376,6.363,4.529,6.233c0.234-0.026,0.467-0.053,0.701-0.079c0.337,0.491,0.505,0.827,0.418,0.938
	c0.312-0.395,0.648-0.755,0.994-1.099c3.194-0.371,6.353-0.793,9.415-1.527c-0.754,2.239-2.333,4.188-3.93,5.858
	c-8.054,8.424-22.074,5.96-30.004-1.017c-0.722-0.635,0.135,1.029,0.058,0.867c0.644,1.37,1.423,2.685,2.2,3.982
	c1.532,2.56,3.106,5.628,5.27,7.733c10.068,9.792,31.027,8.434,34.643-7.123c0.867-3.73-0.856-7.994-3.215-11.868
	c1.822-0.724,3.594-1.622,5.298-2.764C102.272,87.251,104.963,80.623,103.316,73.904z M89.615,44.503
	C92.74,45.736,91.6,47.771,89.615,44.503L89.615,44.503z M98.087,67.588C100.618,68.942,99.949,70.592,98.087,67.588L98.087,67.588z
	"/>
</svg>
