<?xml version="1.0" encoding="utf-8"?>
<!-- Generator: Adobe Illustrator 17.0.0, SVG Export Plug-In . SVG Version: 6.00 Build 0)  -->
<!DOCTYPE svg PUBLIC "-//W3C//DTD SVG 1.1//EN" "http://www.w3.org/Graphics/SVG/1.1/DTD/svg11.dtd">
<svg version="1.1" id="Layer_1" xmlns="http://www.w3.org/2000/svg" xmlns:xlink="http://www.w3.org/1999/xlink" x="0px" y="0px"
	 width="144px" height="144px" viewBox="0 0 144 144" enable-background="new 0 0 144 144" xml:space="preserve">
<g>
	<g>
		<path d="M76.192,72.96c3.544-0.011,7.088-0.023,10.632-0.035c-0.675,0.002-3.352-3.771-3.842-4.298
			c-0.597-0.642-3.069-4.132-3.999-4.129c-0.822,0.003-1.645,0.005-2.467,0.008c-0.043-2.603-0.226-5.244-0.618-7.516
			c-0.005-0.027-0.019-0.057-0.027-0.085h9.537l-7.501-8.771H42.115c-6.093-0.107-12.187-0.214-18.28-0.321
			c0.844,0.015,3.973,3.749,4.582,4.298c0.348,0.313,1.17,1.241,2.063,2.138l2.272,2.657h34.484c0.06,2.525,0.047,5.093,0.083,7.631
			c-8.418,0.028-16.836,0.055-25.254,0.083c-0.014-0.041-0.031-0.085-0.035-0.121c0.004,0.04,0.008,0.081,0.013,0.121
			c-4.58,0.015-9.159,0.03-13.739,0.045c0.675-0.002,3.352,3.771,3.842,4.298c0.598,0.642,3.069,4.132,3.999,4.129
			c2.258-0.008,4.517-0.015,6.775-0.022c0.713,6.863,1.504,13.777,2.839,20.431c1.698,8.463,7.849,15.442,14.01,20.686
			c3.007,2.559,6.224,3.767,10.063,2.951c4.727-1.005,6.295-6.268,6.934-10.702c1.441-10.004,0.813-20.48-1.012-30.423
			C75.911,75.307,76.064,74.25,76.192,72.96z M69.513,90.955c-0.304,7.551-0.942,17.3-9.696,18.082
			c-1.443,0.129-2.872-0.321-4.212-0.83c-1.508-3.153-2.173-6.769-2.695-10.226c-1.243-8.238-2.133-16.641-3.027-24.935
			c5.988-0.02,11.976-0.039,17.964-0.059c0.057,0.415,0.116,0.829,0.186,1.236c0.048,0.279,0.406,0.527,0.929,0.756
			C69.54,80.267,69.73,85.591,69.513,90.955z"/>
	</g>
</g>
</svg>
