<?xml version="1.0" encoding="utf-8"?>
<!-- Generator: Adobe Illustrator 17.0.0, SVG Export Plug-In . SVG Version: 6.00 Build 0)  -->
<!DOCTYPE svg PUBLIC "-//W3C//DTD SVG 1.1//EN" "http://www.w3.org/Graphics/SVG/1.1/DTD/svg11.dtd">
<svg version="1.1" id="Layer_1" xmlns="http://www.w3.org/2000/svg" xmlns:xlink="http://www.w3.org/1999/xlink" x="0px" y="0px"
	 width="144px" height="144px" viewBox="0 0 144 144" enable-background="new 0 0 144 144" xml:space="preserve">
<path d="M101.647,60.451h0.827l-7.535-7.837h-52.9l7.535,7.837h3.089c0.071,0.025,0.136,0.04,0.195,0.04h2.035
	c0.165,5.133,0.33,10.272,0.495,15.405c0.211,6.481-0.178,12.928,4.532,17.975c1.367,1.467,2.748,3.006,4.182,4.512
	c3.158,3.329,6.56,6.52,10.589,8.482c6.771,3.31,14.883,2.173,22.058,1.255c-0.641,0-4.096-4.3-4.558-4.763
	c-0.581-0.581-3.858-4.69-4.763-4.578c-5.893,0.753-11.739,1.381-17.625,0.238c-1.361-0.264-2.682-0.72-3.95-1.275
	c-1.817-4.875-1.077-11.184-1.242-16.29c-0.191-5.964-0.454-14.728-0.646-21.001h10.383l0,0c0.984,2.411,1.962,4.816,2.946,7.22
	c1.037,2.537,2.206,4.4,3.739,6.203c-0.073-0.04-0.152-0.086-0.238-0.145c0.185,0.172,0.37,0.344,0.562,0.515
	c0.72,0.819,1.513,1.638,2.418,2.51c1.42,1.374,2.814,2.808,4.334,4.083c1.149,0.958,0.865,0.879,1.381-0.641
	c0.443-1.288,0.878-2.576,1.315-3.865c1.757-5.153,3.514-10.305,5.265-15.458c0.026-0.073-0.04-0.211-0.165-0.377
	c1.975,0.007,3.95,0.013,5.926,0.013C101.78,60.511,101.716,60.487,101.647,60.451z M85.096,63.966
	c-0.588,1.718-1.176,3.435-1.757,5.153c-0.139,0.41-0.284,0.826-0.423,1.242c-1.347-3.308-2.694-6.609-4.04-9.909h1.729
	c1.894,0.005,3.787,0.01,5.681,0.02C85.889,61.634,85.492,62.797,85.096,63.966z"/>
</svg>
