<?xml version="1.0" encoding="utf-8"?>
<!-- Generator: Adobe Illustrator 17.0.0, SVG Export Plug-In . SVG Version: 6.00 Build 0)  -->
<!DOCTYPE svg PUBLIC "-//W3C//DTD SVG 1.1//EN" "http://www.w3.org/Graphics/SVG/1.1/DTD/svg11.dtd">
<svg version="1.1" id="Layer_1" xmlns="http://www.w3.org/2000/svg" xmlns:xlink="http://www.w3.org/1999/xlink" x="0px" y="0px"
	 width="144px" height="144px" viewBox="0 0 144 144" enable-background="new 0 0 144 144" xml:space="preserve">
<g>
	<g>
		<g>
			<g>
				<path d="M102.275,114.303c-1.077-1.727-2.244-3.764-3.728-5.171c-2.733-2.593-6.316-2.157-9.694-1.393
					c-0.542-0.796-1.106-1.615-1.8-2.242c-0.256-0.231-0.527-0.425-0.804-0.604l-6.87-1.123c0.533,0.852,2.766,4.339,3.135,4.332
					c2.028-0.037,4.045-0.012,5.962,0.726c0.084,0.032,0.165,0.07,0.246,0.108c0.028,0.207,0.052,0.414,0.067,0.618
					c0.264,3.61-2.788,6.403-6.034,7.246c-4.099,1.065-8.252-1.058-11.199-3.755c-0.626-0.572-1.203-1.201-1.749-1.853
					c-0.068-0.106-0.138-0.211-0.206-0.318c-0.363-0.568-0.717-1.142-1.072-1.714c-1.207-1.943-2.414-3.887-3.621-5.83
					c-0.463-0.746-0.984-1.461-1.505-2.171l-0.342-0.056c2.728,4.401,5.469,8.781,8.617,12.906
					c3.248,4.256,7.688,8.064,13.399,7.478c4.674-0.479,8.231-5.118,6.464-9.612c2.254-0.522,4.453-0.897,6.771-0.442
					c0.483,0.116,0.949,0.279,1.398,0.491c0.127,0.052,0.239,0.109,0.344,0.167c0.16,0.807,0.153,1.653,0.093,2.458
					c-0.408,5.414-6.449,8.159-10.875,9.57c0.424-0.135,2.372,4.26,2.934,4.081c3.417-1.09,6.579-2.494,8.96-5.266
					C103.097,120.687,103.924,116.945,102.275,114.303z M100.447,112.352C100.984,112.781,100.939,113.103,100.447,112.352
					L100.447,112.352z"/>
			</g>
		</g>
	</g>
	<g>
		<g>
			<path d="M96.419,71.072c-2.8-3.419-6.057-7.293-9.83-9.719c-1.226-0.788-2.591-1.31-4.001-1.577
				c-0.23-3.055-0.46-6.109-0.69-9.164h15.491l-8.296-8.296H35.704L44,50.612h8.972v51.643l7.198,7.198h0.291V50.612h15.039
				c0.159,2.11,0.318,4.22,0.476,6.329c0.034,0.449,0.205,1.812,0.281,3.363c-0.801,0.3-1.569,0.688-2.283,1.17
				c-4.357,2.939,2.317,7.842,4.302,9.905c1.069,1.112,2.017,2.573,3.735,2.126c1.795-0.468,1.305-4.053,1.217-5.233
				c-0.016-0.212-0.032-0.425-0.048-0.638c2.132-0.873,4.601-0.766,6.81-0.317c0.758,0.154,1.478,0.441,2.184,0.75
				c0.736,1.887,1.033,3.946,1.123,5.94c0.384,8.525-5.36,15.362-11.717,20.923c-3.654,3.197-3.788,9.258-0.224,12.521
				c0.251,0.23,0.417,0.349,0.463,0.313c8.211-6.341,16.996-13.482,18.353-24.332C100.727,78.982,99.246,74.525,96.419,71.072z"/>
		</g>
	</g>
</g>
</svg>
