<?xml version="1.0" encoding="utf-8"?>
<!-- Generator: Adobe Illustrator 17.0.0, SVG Export Plug-In . SVG Version: 6.00 Build 0)  -->
<!DOCTYPE svg PUBLIC "-//W3C//DTD SVG 1.1//EN" "http://www.w3.org/Graphics/SVG/1.1/DTD/svg11.dtd">
<svg version="1.1" id="Layer_1" xmlns="http://www.w3.org/2000/svg" xmlns:xlink="http://www.w3.org/1999/xlink" x="0px" y="0px"
	 width="144px" height="144px" viewBox="0 0 144 144" enable-background="new 0 0 144 144" xml:space="preserve">
<path fill="#070808" d="M108.314,101.567c-2.24-1.616-5.663-6.276-8.578-8.379c-6.338-4.572-12.647-9.543-19.072-14.145
	c1.156-2.773,2.261-5.582,3.29-8.438c0.364-1.009-9.164-7.983-8.931-8.631c-1.288,3.576-2.681,7.076-4.173,10.502
	c-0.956-0.586-1.915-1.161-2.879-1.713c-5.3-3.029-11.092-4.101-16.378-1.591c-4.372,2.076-6.973,7.9-6.394,13.749
	c0.386,3.9,2.694,6.777,5.16,9.232c0.261,0.477,1.505,1.666,3.73,3.566c3.38,3.291,6.442,6.327,10.884,5.938
	c4.792-0.42,7.882-6.476,10.22-10.896c1.667-3.15,3.209-6.404,4.65-9.734c3.109,2.019,6.111,4.407,9.007,6.496
	C95.337,92.205,101.825,96.886,108.314,101.567z M58.996,91.861c-1.205,0.87-2.598,1.134-3.989,1.256
	c-0.155,0.002-0.31-0.018-0.464-0.025c-0.919-3.596-0.404-7.402,1.444-10.798c2.828-5.195,8.134-6.339,13.013-5.718
	c-1.28,2.725-2.63,5.398-4.057,8.01C63.341,87.521,61.472,90.073,58.996,91.861z"/>
</svg>
