<?xml version="1.0" encoding="utf-8"?>
<!-- Generator: Adobe Illustrator 17.0.0, SVG Export Plug-In . SVG Version: 6.00 Build 0)  -->
<!DOCTYPE svg PUBLIC "-//W3C//DTD SVG 1.1//EN" "http://www.w3.org/Graphics/SVG/1.1/DTD/svg11.dtd">
<svg version="1.1" id="Layer_1" xmlns="http://www.w3.org/2000/svg" xmlns:xlink="http://www.w3.org/1999/xlink" x="0px" y="0px"
	 width="144px" height="144px" viewBox="0 0 144 144" enable-background="new 0 0 144 144" xml:space="preserve">
<g>
	<path fill="#070808" d="M106.776,68.674c-0.791,0-3.897-4.53-4.471-5.167c-0.699-0.776-3.566-4.965-4.653-4.965
		c-0.418,0-0.837,0-1.255,0c0.085-3.11-0.092-6.536-0.75-9.341c-0.261-1.112-4.499-3.133-5.62-3.875
		c-0.906-0.601-4.443-3.705-5.849-3.724c-17.464-0.225-34.928-0.451-52.392-0.676c1.036,0.013,4.873,3.381,5.62,3.875
		c0.906,0.601,4.443,3.705,5.849,3.724c13.922,0.18,27.844,0.359,41.766,0.539c0.103,3.142,0.033,6.36,0.192,9.478
		c-17.292,0-34.585,0-51.878,0c0.791,0,3.897,4.53,4.471,5.167c0.699,0.776,3.566,4.965,4.653,4.965c3.108,0,6.216,0,9.325,0
		c0,13.943,0,27.886,0,41.829H39.199l16.97,14.614c1.359,1.17,3.516,0.243,3.516-1.511v-2.288v-10.815V79.026
		c0.257,0.316,0.501,0.64,0.767,0.95c4.153,4.849,9.368,10.247,15.114,13.352c6.06,3.275,12.449,0.801,16.336-4.237
		c4.34-5.627,4.44-13.758,2.907-20.418c0.887,0,1.774,0,2.66,0C100.572,68.674,103.674,68.674,106.776,68.674z M76.253,86.946
		c-2.185,0.619-4.465,0.253-6.588-0.377c-1.245-0.37-2.387-1.017-3.485-1.687c-0.099-0.131-0.202-0.257-0.299-0.389
		c-2.397-3.176-4.369-6.646-6.196-10.179v-5.641c9.337,0,18.675,0,28.012,0C87.609,76.543,84.603,84.579,76.253,86.946z"/>
	<polygon points="107.978,49.874 36.582,49.874 26.412,39.565 97.808,39.565 	"/>
</g>
</svg>
