<?xml version="1.0" encoding="utf-8"?>
<!-- Generator: Adobe Illustrator 17.0.0, SVG Export Plug-In . SVG Version: 6.00 Build 0)  -->
<!DOCTYPE svg PUBLIC "-//W3C//DTD SVG 1.1//EN" "http://www.w3.org/Graphics/SVG/1.1/DTD/svg11.dtd">
<svg version="1.1" id="Layer_1" xmlns="http://www.w3.org/2000/svg" xmlns:xlink="http://www.w3.org/1999/xlink" x="0px" y="0px"
	 width="144px" height="144px" viewBox="0 0 144 144" enable-background="new 0 0 144 144" xml:space="preserve">
<g>
	<g>
		<g>
			<g>
				<path d="M78.09,103.835c0.132-0.002-0.532-0.667-1.991-1.996c-0.851-0.881-1.718-1.872-2.738-2.529
					c-0.309-0.199-0.627-0.356-0.949-0.496h-7.412c0.707,0.804,3.651,4.084,4.038,4.013c2.124-0.387,4.248-0.707,6.389-0.261
					c0.094,0.019,0.186,0.045,0.277,0.071c0.065,0.212,0.126,0.426,0.176,0.637c0.897,3.748-1.83,7.206-5.096,8.65
					c-4.124,1.823-8.852,0.305-12.412-2.022c-0.756-0.494-1.47-1.055-2.156-1.646c-0.09-0.1-0.182-0.198-0.271-0.299
					c-0.479-0.535-0.949-1.076-1.421-1.617c-1.602-1.834-3.204-3.669-4.805-5.504c-0.615-0.704-1.285-1.366-1.954-2.023h-0.369
					c3.622,4.156,7.254,8.287,11.27,12.081c4.144,3.914,9.463,7.153,15.363,5.557c4.954-1.34,7.923-7.078,4.93-11.55
					C78.708,104.526,78.405,104.176,78.09,103.835z"/>
			</g>
		</g>
	</g>
	<g>
		<path d="M82.293,82.115c-2.434-2.923-4.996-5.754-7.619-8.496c-0.828-0.865-1.732-1.799-2.699-2.72
			c1.729-1.14,3.287-2.546,4.562-4.399c2.777-4.033,1.75-8.581-1.139-12.06c-0.45-0.542-0.915-1.087-1.394-1.629
			c-0.091-0.127-0.21-0.278-0.356-0.454c3.7,0.044,7.4,0.089,11.1,0.133c-0.609-0.007-3.075-3.618-3.502-4.097
			c-0.415-0.466-1.939-2.675-2.977-3.568H46.438c0.964,1.089,2.285,2.992,2.587,3.331c0.522,0.587,2.804,3.939,3.658,3.949
			c6.142,0.074,12.283,0.148,18.425,0.222c0.962,6.432-5.511,10.519-11.011,12.91c-1.153,0.172-2.317,0.602-3.48,1.37
			c0.805,0.905,1.61,1.809,2.415,2.714c1.822,2.428,4.095,5.566,4.745,5.333c1.22-0.438,2.432-0.884,3.612-1.376
			c3.787-0.47,7.449,1.902,10.465,4.575c0.515,0.982,0.887,2.025,1.168,3.127c0.691,2.709-0.325,5.54-1.669,7.83
			c-3.016,5.137-9.149,6.382-14.484,5.674c-6.93-0.919-12.822-3.27-10.37-1.201c6.109,5.154,11.677,8.907,19.853,9.483
			c7.203,0.508,14.23-4.944,13.976-12.717C86.226,86.977,84.134,84.326,82.293,82.115z"/>
	</g>
</g>
</svg>
