<?xml version="1.0" encoding="utf-8"?>
<!-- Generator: Adobe Illustrator 17.0.0, SVG Export Plug-In . SVG Version: 6.00 Build 0)  -->
<!DOCTYPE svg PUBLIC "-//W3C//DTD SVG 1.1//EN" "http://www.w3.org/Graphics/SVG/1.1/DTD/svg11.dtd">
<svg version="1.1" id="Layer_1" xmlns="http://www.w3.org/2000/svg" xmlns:xlink="http://www.w3.org/1999/xlink" x="0px" y="0px"
	 width="144px" height="144px" viewBox="0 0 144 144" enable-background="new 0 0 144 144" xml:space="preserve">
<path d="M118.149,117.608c-1.544-1.569-3.521-3.037-5.64-3.711c-11.277-3.588-17.516-4.952-20.405-6.567
	c-0.213-1.207-0.751-2.373-1.628-3.4c-3.029-3.545-6.445-7.033-9.94-10.104c-3.035-2.667-5.197,0.761-4.025,3.747
	c0.648,1.651,2.152,3.299,3.794,4.834c-0.882,1.298-2.008,2.469-3.131,3.397c-3.832,3.166-9.273,4.091-14.051,4.181
	c-4.289,0.08-8.465-1.204-12.207-3.256c-0.331-0.631-0.638-1.274-0.943-1.916c-1.296-2.723-1.875-5.711-2.155-8.697
	c-0.485-5.174,1.352-10.19,5.086-13.685c3.888-3.64,8.608-2.99,13.168-1.453c5.394,1.818,8.204-1.154,7.879-6.59
	c-0.396-6.634-1.116-13.266-1.674-19.889c-0.018-0.207-0.13-0.453-0.295-0.718h32.389l-9.834-11.531h-5.141
	c-20.005,0-40.011,0-60.016,0h-3.881l9.834,11.531h27.457c0.183,2.171,0.365,4.342,0.548,6.513c0.357,4.243,1.565,9.717-3.799,10.75
	c-4.007,0.772-7.778-2.411-12.055-1.633c-4.913,0.893-8.047,5.53-9.42,10.006c-2.483,8.096,1.664,17.158,7.028,22.995
	c6.024,6.555,12.194,13.858,20.756,16.849c8.174,2.855,18.853,1.027,24.533-5.864c0.419-0.508,0.763-1.045,1.039-1.6
	c6.184,4.18,25.433,7.606,31.782,11.155C121.425,121.96,119.581,119.064,118.149,117.608z"/>
</svg>
