<?xml version="1.0" encoding="utf-8"?>
<!-- Generator: Adobe Illustrator 17.0.0, SVG Export Plug-In . SVG Version: 6.00 Build 0)  -->
<!DOCTYPE svg PUBLIC "-//W3C//DTD SVG 1.1//EN" "http://www.w3.org/Graphics/SVG/1.1/DTD/svg11.dtd">
<svg version="1.1" id="Layer_1" xmlns="http://www.w3.org/2000/svg" xmlns:xlink="http://www.w3.org/1999/xlink" x="0px" y="0px"
	 width="144px" height="144px" viewBox="0 0 144 144" enable-background="new 0 0 144 144" xml:space="preserve">
<g>
	<g>
		<path d="M89.157,78.585c-0.494-7.598-0.987-9.785-1.481-16.414h11.815l-9.044-9.044H24.541c1.263,1.43,2.79,3.514,3.187,3.936
			c0.751,0.798,3.83,5.107,4.998,5.107h6.129c0.187,4.148,0.374,8.297,0.561,12.445c0.105,2.344,0.238,4.69,0.328,7.035
			c-1.345-0.216-2.754-0.073-4.241,0.632c-2.418,1.147-1.725,3.055-0.444,4.731c-0.021-0.014-0.041-0.024-0.062-0.039
			c0.044,0.043,0.089,0.087,0.133,0.13c0.861,1.104,1.96,2.099,2.564,2.696c2.131,2.104,5.517,7.134,9.034,5.081
			c1.501-0.876,1.262-3.573,1.065-5.467c1.227,0.262,2.419,0.767,3.337,1.242c2.616,1.352,4.999,3.555,7.315,5.505
			c-2.389,2.676-3.939,6.186-4.735,9.769c-0.225-0.2-0.454-0.401-0.69-0.602c-3.579-3.042-7.179-7.039-12.209-6.955
			c-5.618,0.094-8.742,5.803-8.971,10.709c-0.261,5.592,3.584,10.263,7.508,13.742c1.932,1.713,3.908,3.378,5.904,5.016
			c0.232,0.19,3.224,2.579,1.655,1.188c-5.621-4.983-8.799-13.163-4.009-19.8c1.878-2.603,5.155-3.709,8.236-3.487
			c0.771,1.517,1.353,3.156,1.958,4.719c0.504,1.301,3.243,2.874,4.261,3.73c0.137,0.115,0.651,0.477,1.281,0.928
			c1.042,0.876,2.085,1.752,3.127,2.628c0.281-5.44,1.908-10.491,5.613-14.432c1.532,1.243,3.065,2.486,4.597,3.729
			c2.966,2.406,5.857,5.176,9.35,6.802c3.631,1.69,6.975-0.387,7.818-4.016c0.793-3.41-1.512-6.616-3.888-8.755
			c-5.568-5.014-11.239-11.074-19.368-9.333c-2.648,0.567-4.849,1.845-6.637,3.57l-11.658-9.194
			c-0.098-2.184-0.196-4.367-0.295-6.551c-0.258-5.73-0.516-11.461-0.774-17.191c-0.003-0.063-0.019-0.132-0.046-0.206h14.234
			c0.387,4.513,0.775,5.509,1.163,11.274c0.095,1.413,0.19,2.826,0.285,4.239c0.033,0.495,4.321,1.853,5.121,2.181
			c0.656,0.269,5.294,1.74,5.318,2.101c-0.095-1.413-0.19-2.826-0.285-4.239c-0.486-7.224-0.972-9.385-1.458-15.556h6.677
			c0.396,4.939,0.792,5.887,1.188,11.983c0.095,1.463,0.19,2.925,0.285,4.388c0.034,0.513,4.321,1.918,5.121,2.258
			c0.656,0.279,5.294,1.801,5.319,2.174C89.347,81.51,89.252,80.048,89.157,78.585L89.157,78.585z M68.456,102.241
			c2.311-2.102,5.311-3.214,8.362-3.597c1.153-0.145,2.304-0.001,3.432,0.234c1.337,4.224-1.285,8.728-6.305,8.051
			c0,0-0.005-0.015-0.007-0.023c-1.982-1.359-3.894-2.851-5.779-4.379C68.258,102.432,68.353,102.334,68.456,102.241z"/>
	</g>
	<path d="M48.224,44.087c9.692,0.116,19.384,0.232,29.076,0.348c0.125,3.517,0.073,7.105,0.357,10.56h11.606
		c0.188-3.367,0.077-7.277-0.719-10.425c-0.037-0.147-0.154-0.311-0.324-0.483h7.687l-9.344-8.347H20.964l0.798,0.713
		c-0.266-0.002-0.532-0.006-0.798-0.009c0.325,0.003,0.916,0.302,1.602,0.727l7.742,6.915H48.224z"/>
</g>
</svg>
