<?xml version="1.0" encoding="utf-8"?>
<!-- Generator: Adobe Illustrator 17.0.0, SVG Export Plug-In . SVG Version: 6.00 Build 0)  -->
<!DOCTYPE svg PUBLIC "-//W3C//DTD SVG 1.1//EN" "http://www.w3.org/Graphics/SVG/1.1/DTD/svg11.dtd">
<svg version="1.1" id="Layer_1" xmlns="http://www.w3.org/2000/svg" xmlns:xlink="http://www.w3.org/1999/xlink" x="0px" y="0px"
	 width="144px" height="144px" viewBox="0 0 144 144" enable-background="new 0 0 144 144" xml:space="preserve">
<path d="M97.807,62.527c-0.589-0.531-3.006-3.396-3.922-3.396c-0.572,0-0.768,0-0.752,0c-0.178,0-0.356,0-0.534,0
	c-0.02-2.178-0.154-4.393-0.437-6.376h9.551l-8.004-9.359H37.521l8.004,9.359h38.776c0.035,2.119,0.034,4.259,0.071,6.376
	c-12.28,0-24.561,0-36.841,0c0.666,0,3.285,3.099,3.769,3.535c0.589,0.531,3.006,3.396,3.923,3.396c3.532,0,7.064,0,10.596,0
	c0,4.021,0,8.043,0,12.064H65.72v9.775h-9.838l17.631,19.031V86.704c0.032,0.027,0.053,0.052,0.053,0.072c0-1.105,0-2.211,0-3.316
	c0-5.799,0-11.599,0-17.398c3.727,0,7.454,0,11.182,0v39.731c0,2.696,0,5.391,0,8.087c0,0.945,3.751,3.436,4.446,4.043
	c0.57,0.498,4.628,3.198,4.628,3.885c0-2.696,0-5.391,0-8.087c0-17.036,0-32.921,0-47.659c2.591,0,5.139,0,7.754,0
	C100.909,66.061,98.291,62.962,97.807,62.527z"/>
</svg>
