<?xml version="1.0" encoding="utf-8"?>
<!-- Generator: Adobe Illustrator 17.0.0, SVG Export Plug-In . SVG Version: 6.00 Build 0)  -->
<!DOCTYPE svg PUBLIC "-//W3C//DTD SVG 1.1//EN" "http://www.w3.org/Graphics/SVG/1.1/DTD/svg11.dtd">
<svg version="1.1" id="Layer_1" xmlns="http://www.w3.org/2000/svg" xmlns:xlink="http://www.w3.org/1999/xlink" x="0px" y="0px"
	 width="144px" height="144px" viewBox="0 0 144 144" enable-background="new 0 0 144 144" xml:space="preserve">
<path d="M101.216,87.126c-4.544-4.355-9.907-7.515-16.305-4.475c-5.488,2.607-4.785,8.001-1.938,11.852
	c-0.046-0.039-0.09-0.071-0.137-0.11c0.073,0.072,0.146,0.144,0.219,0.215c0.336,0.444,0.694,0.873,1.08,1.268
	c1.196,1.221,2.541,2.818,4.007,4.416c-6.226-0.827-13.068-4-17.942-5.927c-3.997-1.58-7.864-3.46-11.661-5.452
	c-0.373-0.196-0.739-0.401-1.106-0.606c-0.065-3.684-0.24-7.367-0.455-11.04c-0.546-9.334-1.744-18.622-3.363-27.832h-9.302
	c0.923,6.971,1.586,13.97,1.942,21.006c0.089,1.769,0.586,7.22,0.196,12.224c-0.191-0.062-0.376-0.137-0.57-0.193
	c-5.524-1.617-12.251,3.92-7.497,8.913c2.641,2.773,5.398,5.45,8.165,8.101c2.48,2.376,4.164,4.189,7.755,2.384
	c2.945-1.48,3.106-5.663,3.145-8.536c3.152,0.694,6.126,2.947,8.812,4.519c3.701,2.166,7.568,4.046,11.483,5.804
	c7.244,3.254,38.454,15.502,35.149-2.637C111.881,95.468,104.64,90.408,101.216,87.126z M95,99.978
	c-0.987,0.29-2.033,0.443-3.116,0.498c-0.079-0.092-0.159-0.185-0.245-0.284c0.029-1.677,0.734-3.353,1.949-4.971
	c1.993-2.655,5.412-3.235,8.558-2.978c0.006,0.212,0.009,0.425,0.007,0.636C102.131,96.739,98.27,99.02,95,99.978z"/>
</svg>
