<?xml version="1.0" encoding="utf-8"?>
<!-- Generator: Adobe Illustrator 17.0.0, SVG Export Plug-In . SVG Version: 6.00 Build 0)  -->
<!DOCTYPE svg PUBLIC "-//W3C//DTD SVG 1.1//EN" "http://www.w3.org/Graphics/SVG/1.1/DTD/svg11.dtd">
<svg version="1.1" id="Layer_1" xmlns="http://www.w3.org/2000/svg" xmlns:xlink="http://www.w3.org/1999/xlink" x="0px" y="0px"
	 width="144px" height="144px" viewBox="0 0 144 144" enable-background="new 0 0 144 144" xml:space="preserve">
<path d="M106.39,85.386c-2.921-3.23-5.903-7.274-9.419-9.797c-8.961-6.43-18.559-0.181-24.398,7.778
	c-5.867,7.997-10.52,18.311-21.644,15.766c-0.141-0.041-0.277-0.098-0.416-0.143c-0.257-0.799-0.495-1.603-0.71-2.404
	c-1.51-5.599-0.622-11.709,0.65-17.239c2.159-9.382,7.229-18.394,2.566-27.888c-0.385-0.783-0.884-1.524-1.425-2.247h-7.5
	c-0.08,1.282-0.227,2.562-0.426,3.813c-1.11,6.968-4.196,13.352-5.227,20.389c-2.043,13.951,5.747,22.007,14.183,30.907
	c8.267,8.72,17.621,9.225,25.339-0.831c2.918-3.803,5.164-7.821,8.095-11.314c0.299,0.375,0.609,0.739,0.915,1.11
	c0.389,0.883,1.871,2.477,3.209,3.649c2.144,2.27,4.387,4.351,6.625,6.082c7.361,5.693,17.062,1.24,15.178-9.278
	C111.384,90.391,108.475,87.69,106.39,85.386z M99,91.297c-1.49,2.06-3.853,2.671-6.124,2.841c-1.352,0.101-2.702-0.427-3.951-0.956
	c-0.667-0.66-1.364-1.297-2.067-1.927c1.203-1.333,2.527-2.577,4.062-3.683c2.365-1.703,5.099-2.466,7.875-2.858
	c0.857-0.121,1.696-0.091,2.488,0.026C101.261,86.972,100.527,89.189,99,91.297z"/>
</svg>
