<?xml version="1.0" encoding="utf-8"?>
<!-- Generator: Adobe Illustrator 17.0.0, SVG Export Plug-In . SVG Version: 6.00 Build 0)  -->
<!DOCTYPE svg PUBLIC "-//W3C//DTD SVG 1.1//EN" "http://www.w3.org/Graphics/SVG/1.1/DTD/svg11.dtd">
<svg version="1.1" id="Layer_1" xmlns="http://www.w3.org/2000/svg" xmlns:xlink="http://www.w3.org/1999/xlink" x="0px" y="0px"
	 width="144px" height="144px" viewBox="0 0 144 144" enable-background="new 0 0 144 144" xml:space="preserve">
<g>
	<path fill="#070808" d="M52.74,83.734c-0.049-0.114-0.097-0.227-0.139-0.331C52.645,83.513,52.693,83.623,52.74,83.734z"/>
	<path fill="#070808" d="M52.965,84.232c-0.078-0.166-0.154-0.331-0.225-0.498C52.808,83.892,52.883,84.058,52.965,84.232z"/>
	<path fill="#070808" d="M52.601,83.403c-0.123-0.31-0.239-0.622-0.339-0.937C52.326,82.669,52.437,82.995,52.601,83.403z"/>
	<path fill="#070808" d="M105.485,96.272c-0.331-0.37-3.773-3.509-3.675-3.937c-0.553,2.403-2.19,3.701-4.494,4.381
		c-0.79,0.233-1.604,0.21-2.402,0.081c-1.492-5.993,1.012-12.853-0.209-18.902c-1.093-5.412-6.655-9.998-10.245-13.787
		c-3.609-3.81-8.746-4.978-13.584-3.555c-1.209-0.978-2.557-1.677-4.164-1.623c0.364-0.012,1.449,1.197,2.367,2.278
		c-0.034,0.015-0.069,0.027-0.104,0.042c0.039-0.018,0.091-0.01,0.148,0.01c0.611,0.721,1.141,1.375,1.32,1.554
		c0.208,0.208,0.689,0.794,1.253,1.441c0.947,1.293,1.975,2.731,2.829,3.739c0.573,1.708,1.027,3.435,1.398,5.039
		c1.017,4.387,0.497,8.978-1.777,12.873c-1.966,3.367-5.795,5.116-9.521,5.519c-2.082,0.226-4.121-0.374-5.992-1.22
		c-3.045-1.376-4.783-4.095-5.67-5.973c2.302,4.909,7.361,9.183,11.372,12.392c5.564,4.452,13.525,2.405,17.425-3.104
		c4.626-6.533,1.465-15.448-1.411-21.933c-0.516-1.163-1.158-2.187-1.884-3.138c2.054-0.555,4.123-0.631,6.349-0.25
		c0.881,0.151,1.714,0.467,2.519,0.845c2.164,6.197-0.648,13.544,0.507,19.914c0.927,5.114,6.271,9.934,9.805,13.337
		c3.461,3.333,10.041,3.761,11.352-1.943C109.155,99.677,105.899,96.733,105.485,96.272z"/>
</g>
</svg>
