<?xml version="1.0" encoding="utf-8"?>
<!-- Generator: Adobe Illustrator 17.0.0, SVG Export Plug-In . SVG Version: 6.00 Build 0)  -->
<!DOCTYPE svg PUBLIC "-//W3C//DTD SVG 1.1//EN" "http://www.w3.org/Graphics/SVG/1.1/DTD/svg11.dtd">
<svg version="1.1" id="Layer_1" xmlns="http://www.w3.org/2000/svg" xmlns:xlink="http://www.w3.org/1999/xlink" x="0px" y="0px"
	 width="144px" height="144px" viewBox="0 0 144 144" enable-background="new 0 0 144 144" xml:space="preserve">
<g>
	<g>
		<path d="M96.303,45.575c-0.296-0.413-1.115-1.86-1.915-3.028H46.5c0.819,1.263,1.72,2.867,1.97,3.216
			c0.518,0.723,2.645,4.626,3.451,4.626c1.636,0,3.273,0,4.909,0c0,6.924,0,13.849,0,20.773h-9.381l17.612,20.658V81.73v0
			c0-0.376,0-0.752,0-1.128c0.337,0,0.673,0,1.009,0c5.136,0,10.272,0,15.409,0c0,6.044,0,12.088,0,18.133
			c0,0.975,3.403,3.547,4.033,4.174c0.517,0.514,4.198,3.301,4.198,4.01c0-16.446,0-32.893,0-49.339c0-2.397,0-4.794,0-7.19
			c1.002,0,2.005,0,3.007,0c2.301,0,4.601,0,6.902,0C99.032,50.389,96.728,46.168,96.303,45.575z M81.479,71.162
			c-5.473,0-10.945,0-16.418,0c0-6.113,0-12.226,0-18.339c0-0.811,0-1.623,0-2.434c5.473,0,10.945,0,16.418,0
			C81.479,57.313,81.479,64.238,81.479,71.162z"/>
	</g>
	<g>
		<g>
			<g>
				<path d="M89.627,106.04c0.132-0.002-0.535-0.671-2.002-2.007c-0.855-0.886-1.727-1.882-2.753-2.544
					c-0.31-0.2-0.63-0.358-0.954-0.499h-7.453c0.711,0.809,3.671,4.107,4.06,4.036c2.136-0.389,4.272-0.711,6.425-0.262
					c0.094,0.02,0.187,0.045,0.279,0.072c0.065,0.214,0.126,0.428,0.177,0.641c0.902,3.769-1.84,7.247-5.124,8.698
					c-4.147,1.833-8.902,0.306-12.482-2.034c-0.76-0.497-1.479-1.061-2.168-1.656c-0.09-0.101-0.183-0.2-0.273-0.301
					c-0.481-0.538-0.954-1.082-1.429-1.626c-1.611-1.845-3.222-3.69-4.832-5.535c-0.618-0.708-1.292-1.374-1.965-2.034h-0.371
					c3.642,4.179,7.295,8.334,11.333,12.148c4.167,3.936,9.516,7.193,15.449,5.588c4.982-1.347,7.967-7.117,4.957-11.614
					C90.249,106.735,89.945,106.383,89.627,106.04z"/>
			</g>
		</g>
	</g>
</g>
</svg>
