<?xml version="1.0" encoding="utf-8"?>
<!-- Generator: Adobe Illustrator 17.0.0, SVG Export Plug-In . SVG Version: 6.00 Build 0)  -->
<!DOCTYPE svg PUBLIC "-//W3C//DTD SVG 1.1//EN" "http://www.w3.org/Graphics/SVG/1.1/DTD/svg11.dtd">
<svg version="1.1" id="Layer_1" xmlns="http://www.w3.org/2000/svg" xmlns:xlink="http://www.w3.org/1999/xlink" x="0px" y="0px"
	 width="144px" height="144px" viewBox="0 0 144 144" enable-background="new 0 0 144 144" xml:space="preserve">
<g>
	<g>
		<path d="M92.563,45.245c2.851,0,5.702,0,8.554,0c-0.727,0-3.582-4.91-4.109-5.601c-0.642-0.841-3.278-5.381-4.277-5.381
			c-2.851,0-5.702,0-8.554,0c-16.853,0-33.706,0-50.559,0c0.727,0,3.582,4.91,4.109,5.601c0.642,0.841,3.278,5.381,4.277,5.381
			c11.972,0,23.943,0,35.915,0c0,4.771,0,9.38,0,13.895c-0.139-0.038-0.26-0.038-0.357,0.009
			c-7.931,3.887-15.862,7.775-23.793,11.662c-6.585,3.228-13.112,8.662-6.741,15.574c4.243,4.603,8.854,9.89,14.464,12.912
			c5.082,2.737,10.774,4.762,16.426,6.712c0,0.039,0,0.076,0,0.115c0,4.177,0,8.354,0,12.531c0,1.464,4.161,5.324,4.931,6.265
			c0.633,0.772,5.133,4.955,5.133,6.02c0-4.177,0-8.354,0-12.531c0-16.184,0-32.367,0-48.551c0.111-0.054,0.222-0.109,0.333-0.163
			c-0.082,0.04-0.196,0.022-0.333-0.042c0-8.136,0-16.272,0-24.408C89.509,45.245,91.036,45.245,92.563,45.245z M77.775,96.183
			c-0.441-0.35-10.856-4.461-15.629-6.288c-2.386-0.914-4.805-1.743-7.2-2.634c1.478-4.699,5.13-7.213,9.433-9.343
			c4.459-2.205,8.927-4.394,13.396-6.578C77.775,79.621,77.775,87.902,77.775,96.183z"/>
	</g>
	<path d="M38.338,66.034h46.12c-1.054-0.797-3.252-3.79-3.708-4.268c-0.642-0.67-3.278-4.294-4.277-4.294
		c-2.851,0-29.163,0-46.016,0c0.726,0,3.582,3.919,4.109,4.469C35.119,62.52,37.146,65.277,38.338,66.034z"/>
</g>
</svg>
