<?xml version="1.0" encoding="utf-8"?>
<!-- Generator: Adobe Illustrator 17.0.0, SVG Export Plug-In . SVG Version: 6.00 Build 0)  -->
<!DOCTYPE svg PUBLIC "-//W3C//DTD SVG 1.1//EN" "http://www.w3.org/Graphics/SVG/1.1/DTD/svg11.dtd">
<svg version="1.1" id="Layer_1" xmlns="http://www.w3.org/2000/svg" xmlns:xlink="http://www.w3.org/1999/xlink" x="0px" y="0px"
	 width="144px" height="144px" viewBox="0 0 144 144" enable-background="new 0 0 144 144" xml:space="preserve">
<path d="M89.647,105.214c-7.79-6.045-15.581-12.09-23.371-18.136c-0.741-0.575-1.482-1.191-2.231-1.817
	c-0.102-1.646-0.334-3.138-0.397-3.833c-0.81-8.895-1.621-17.789-2.431-26.684l8.115,0.061c0.683,2.003,1.365,4.006,2.048,6.008
	c0.758,2.225,1.62,3.863,2.745,5.451c-0.055-0.036-0.114-0.077-0.178-0.129c0.138,0.151,0.275,0.302,0.413,0.453
	c0.53,0.722,1.111,1.442,1.774,2.208c1.044,1.207,2.068,2.468,3.185,3.585c0.846,0.845,0.635,0.775,1.015-0.561l0.967-3.396
	c1.289-4.529,2.577-9.057,3.866-13.586c0.012-0.041-0.01-0.108-0.046-0.184h4.839c-1.524-1.681-2.999-3.387-4.264-5.24H41.893
	l4.377,5.24h5.13c0.566,0.014,1.321,0.028,3.188,0.042c0.39,4.274,0.779,8.548,1.168,12.823c0.352,3.862,0.736,7.724,1.045,11.591
	c0.026,0.326,0.023,0.678-0.007,1.041c-0.168-0.079-0.332-0.171-0.503-0.243c-1.921-0.814-3.936,0.012-4.746,1.834
	c-0.595,1.338,0.684,2.507,1.496,3.352c1.953,2.032,4.738,6.188,7.687,6.736c2.506,0.466,3.244-1.811,3.35-4.394
	c0.15,0.046,0.296,0.097,0.434,0.155c2.014,0.854,3.843,2.744,5.565,4.08c1.771,1.373,3.541,2.748,5.312,4.122
	c7.082,5.496,14.164,10.992,21.246,16.487C94.756,110.822,92.087,107.109,89.647,105.214z M77.93,54.653
	c-0.275,0.967-0.55,1.933-0.825,2.9c-0.429,1.51-0.859,3.018-1.289,4.528c-0.103,0.364-0.207,0.727-0.31,1.09
	c-0.968-2.839-1.936-5.678-2.903-8.518H77.93z"/>
</svg>
