<?xml version="1.0" encoding="utf-8"?>
<!-- Generator: Adobe Illustrator 17.0.0, SVG Export Plug-In . SVG Version: 6.00 Build 0)  -->
<!DOCTYPE svg PUBLIC "-//W3C//DTD SVG 1.1//EN" "http://www.w3.org/Graphics/SVG/1.1/DTD/svg11.dtd">
<svg version="1.1" id="Layer_1" xmlns="http://www.w3.org/2000/svg" xmlns:xlink="http://www.w3.org/1999/xlink" x="0px" y="0px"
	 width="144px" height="144px" viewBox="0 0 144 144" enable-background="new 0 0 144 144" xml:space="preserve">
<g>
	<g>
		<g>
			<g>
				<path d="M76.771,104.808c0.136-0.002-0.55-0.69-2.058-2.063c-0.879-0.911-1.775-1.935-2.83-2.614
					c-0.319-0.206-0.648-0.368-0.981-0.513h-7.661c0.731,0.831,3.774,4.221,4.173,4.148c2.196-0.4,4.391-0.73,6.604-0.27
					c0.097,0.02,0.192,0.047,0.287,0.074c0.067,0.22,0.13,0.44,0.182,0.659c0.927,3.874-1.892,7.449-5.267,8.94
					c-4.263,1.884-9.15,0.315-12.83-2.09c-0.781-0.511-1.52-1.091-2.229-1.702c-0.093-0.103-0.188-0.205-0.28-0.309
					c-0.495-0.553-0.981-1.113-1.469-1.671c-1.656-1.896-3.311-3.793-4.967-5.689c-0.635-0.728-1.328-1.412-2.02-2.091h-0.382
					c3.744,4.295,7.498,8.566,11.649,12.487c4.283,4.046,9.781,7.393,15.879,5.744c5.121-1.385,8.189-7.316,5.096-11.938
					C77.409,105.522,77.097,105.16,76.771,104.808z"/>
			</g>
		</g>
	</g>
	<g>
		<path d="M75.778,72.745c-3.453-3.462-6.851-7.172-11.264-9.462c-0.886-0.459-1.864-0.853-2.884-1.161
			c-0.277-3.651-0.554-7.302-0.83-10.953c6.193,0,12.386,0,18.579,0c2.39,0,4.78,0,7.171,0c-0.609,0-3.003-4.676-3.445-5.333
			c-0.236-0.351-0.793-1.379-1.415-2.422H31.911c0.67,1.163,1.293,2.327,1.497,2.631c0.538,0.801,2.747,5.124,3.585,5.124
			c5.464,0,10.929,0,16.393,0c0.194,2.564,0.389,5.128,0.583,7.692c0.076,1.001,0.152,2.002,0.228,3.004
			c-1.368,0.406-2.621,1.116-3.631,2.23c-3.735,4.118,3.56,9.057,6.053,11.442c1.392,1.332,2.532,2.594,4.533,2.897
			c2.92,0.442,1.272-5.824,1.143-7.519c-0.034-0.446-0.068-0.892-0.101-1.338c1.72-0.422,3.694-0.26,5.296-0.052
			c2.029,0.263,3.949,1.033,5.74,1.988c0.597,1.05,1.045,2.174,1.448,3.305c3.564,10-3.93,20.822-13.751,23.575
			c0.324-0.091,3.615,3.698,3.923,4c0.385,0.378,3.502,4.006,4.083,3.843c9.885-2.771,16.293-12.651,14.042-22.576
			C81.973,79.236,78.906,75.881,75.778,72.745z"/>
	</g>
</g>
</svg>
